G04 #@! TF.GenerationSoftware,KiCad,Pcbnew,5.1.9+dfsg1-1*
G04 #@! TF.CreationDate,2022-01-28T20:29:42-05:00*
G04 #@! TF.ProjectId,simplePWM,73696d70-6c65-4505-974d-2e6b69636164,rev?*
G04 #@! TF.SameCoordinates,Original*
G04 #@! TF.FileFunction,Copper,L1,Top*
G04 #@! TF.FilePolarity,Positive*
%FSLAX46Y46*%
G04 Gerber Fmt 4.6, Leading zero omitted, Abs format (unit mm)*
G04 Created by KiCad (PCBNEW 5.1.9+dfsg1-1) date 2022-01-28 20:29:42*
%MOMM*%
%LPD*%
G01*
G04 APERTURE LIST*
G04 #@! TA.AperFunction,ComponentPad*
%ADD10O,1.700000X1.700000*%
G04 #@! TD*
G04 #@! TA.AperFunction,ComponentPad*
%ADD11R,1.700000X1.700000*%
G04 #@! TD*
G04 #@! TA.AperFunction,SMDPad,CuDef*
%ADD12R,0.800000X0.900000*%
G04 #@! TD*
G04 #@! TA.AperFunction,SMDPad,CuDef*
%ADD13C,0.100000*%
G04 #@! TD*
G04 #@! TA.AperFunction,SMDPad,CuDef*
%ADD14R,0.900000X1.300000*%
G04 #@! TD*
G04 #@! TA.AperFunction,SMDPad,CuDef*
%ADD15R,0.900000X0.800000*%
G04 #@! TD*
G04 #@! TA.AperFunction,SMDPad,CuDef*
%ADD16R,1.150000X0.700000*%
G04 #@! TD*
G04 #@! TA.AperFunction,SMDPad,CuDef*
%ADD17R,2.500000X2.300000*%
G04 #@! TD*
G04 #@! TA.AperFunction,SMDPad,CuDef*
%ADD18R,2.500000X3.300000*%
G04 #@! TD*
G04 #@! TA.AperFunction,ViaPad*
%ADD19C,0.800000*%
G04 #@! TD*
G04 #@! TA.AperFunction,Conductor*
%ADD20C,0.500000*%
G04 #@! TD*
G04 #@! TA.AperFunction,Conductor*
%ADD21C,0.250000*%
G04 #@! TD*
G04 #@! TA.AperFunction,Conductor*
%ADD22C,0.750000*%
G04 #@! TD*
G04 #@! TA.AperFunction,Conductor*
%ADD23C,0.254000*%
G04 #@! TD*
G04 #@! TA.AperFunction,Conductor*
%ADD24C,0.100000*%
G04 #@! TD*
G04 APERTURE END LIST*
D10*
X126746000Y-103632000D03*
D11*
X126746000Y-106172000D03*
D12*
X143256000Y-100568000D03*
X142306000Y-98568000D03*
X144206000Y-98568000D03*
X143510000Y-89170000D03*
X144460000Y-91170000D03*
X142560000Y-91170000D03*
G04 #@! TA.AperFunction,SMDPad,CuDef*
D13*
G36*
X148993500Y-108472000D02*
G01*
X148993500Y-105347000D01*
X149410000Y-105347000D01*
X149410000Y-103872000D01*
X150310000Y-103872000D01*
X150310000Y-105347000D01*
X150726500Y-105347000D01*
X150726500Y-108472000D01*
X148993500Y-108472000D01*
G37*
G04 #@! TD.AperFunction*
D14*
X148360000Y-104522000D03*
X151360000Y-104522000D03*
G04 #@! TA.AperFunction,SMDPad,CuDef*
G36*
G01*
X155170000Y-88288000D02*
X155170000Y-87988000D01*
G75*
G02*
X155320000Y-87838000I150000J0D01*
G01*
X156970000Y-87838000D01*
G75*
G02*
X157120000Y-87988000I0J-150000D01*
G01*
X157120000Y-88288000D01*
G75*
G02*
X156970000Y-88438000I-150000J0D01*
G01*
X155320000Y-88438000D01*
G75*
G02*
X155170000Y-88288000I0J150000D01*
G01*
G37*
G04 #@! TD.AperFunction*
G04 #@! TA.AperFunction,SMDPad,CuDef*
G36*
G01*
X155170000Y-89558000D02*
X155170000Y-89258000D01*
G75*
G02*
X155320000Y-89108000I150000J0D01*
G01*
X156970000Y-89108000D01*
G75*
G02*
X157120000Y-89258000I0J-150000D01*
G01*
X157120000Y-89558000D01*
G75*
G02*
X156970000Y-89708000I-150000J0D01*
G01*
X155320000Y-89708000D01*
G75*
G02*
X155170000Y-89558000I0J150000D01*
G01*
G37*
G04 #@! TD.AperFunction*
G04 #@! TA.AperFunction,SMDPad,CuDef*
G36*
G01*
X155170000Y-90828000D02*
X155170000Y-90528000D01*
G75*
G02*
X155320000Y-90378000I150000J0D01*
G01*
X156970000Y-90378000D01*
G75*
G02*
X157120000Y-90528000I0J-150000D01*
G01*
X157120000Y-90828000D01*
G75*
G02*
X156970000Y-90978000I-150000J0D01*
G01*
X155320000Y-90978000D01*
G75*
G02*
X155170000Y-90828000I0J150000D01*
G01*
G37*
G04 #@! TD.AperFunction*
G04 #@! TA.AperFunction,SMDPad,CuDef*
G36*
G01*
X155170000Y-92098000D02*
X155170000Y-91798000D01*
G75*
G02*
X155320000Y-91648000I150000J0D01*
G01*
X156970000Y-91648000D01*
G75*
G02*
X157120000Y-91798000I0J-150000D01*
G01*
X157120000Y-92098000D01*
G75*
G02*
X156970000Y-92248000I-150000J0D01*
G01*
X155320000Y-92248000D01*
G75*
G02*
X155170000Y-92098000I0J150000D01*
G01*
G37*
G04 #@! TD.AperFunction*
G04 #@! TA.AperFunction,SMDPad,CuDef*
G36*
G01*
X155170000Y-93368000D02*
X155170000Y-93068000D01*
G75*
G02*
X155320000Y-92918000I150000J0D01*
G01*
X156970000Y-92918000D01*
G75*
G02*
X157120000Y-93068000I0J-150000D01*
G01*
X157120000Y-93368000D01*
G75*
G02*
X156970000Y-93518000I-150000J0D01*
G01*
X155320000Y-93518000D01*
G75*
G02*
X155170000Y-93368000I0J150000D01*
G01*
G37*
G04 #@! TD.AperFunction*
G04 #@! TA.AperFunction,SMDPad,CuDef*
G36*
G01*
X155170000Y-94638000D02*
X155170000Y-94338000D01*
G75*
G02*
X155320000Y-94188000I150000J0D01*
G01*
X156970000Y-94188000D01*
G75*
G02*
X157120000Y-94338000I0J-150000D01*
G01*
X157120000Y-94638000D01*
G75*
G02*
X156970000Y-94788000I-150000J0D01*
G01*
X155320000Y-94788000D01*
G75*
G02*
X155170000Y-94638000I0J150000D01*
G01*
G37*
G04 #@! TD.AperFunction*
G04 #@! TA.AperFunction,SMDPad,CuDef*
G36*
G01*
X155170000Y-95908000D02*
X155170000Y-95608000D01*
G75*
G02*
X155320000Y-95458000I150000J0D01*
G01*
X156970000Y-95458000D01*
G75*
G02*
X157120000Y-95608000I0J-150000D01*
G01*
X157120000Y-95908000D01*
G75*
G02*
X156970000Y-96058000I-150000J0D01*
G01*
X155320000Y-96058000D01*
G75*
G02*
X155170000Y-95908000I0J150000D01*
G01*
G37*
G04 #@! TD.AperFunction*
G04 #@! TA.AperFunction,SMDPad,CuDef*
G36*
G01*
X150220000Y-95908000D02*
X150220000Y-95608000D01*
G75*
G02*
X150370000Y-95458000I150000J0D01*
G01*
X152020000Y-95458000D01*
G75*
G02*
X152170000Y-95608000I0J-150000D01*
G01*
X152170000Y-95908000D01*
G75*
G02*
X152020000Y-96058000I-150000J0D01*
G01*
X150370000Y-96058000D01*
G75*
G02*
X150220000Y-95908000I0J150000D01*
G01*
G37*
G04 #@! TD.AperFunction*
G04 #@! TA.AperFunction,SMDPad,CuDef*
G36*
G01*
X150220000Y-94638000D02*
X150220000Y-94338000D01*
G75*
G02*
X150370000Y-94188000I150000J0D01*
G01*
X152020000Y-94188000D01*
G75*
G02*
X152170000Y-94338000I0J-150000D01*
G01*
X152170000Y-94638000D01*
G75*
G02*
X152020000Y-94788000I-150000J0D01*
G01*
X150370000Y-94788000D01*
G75*
G02*
X150220000Y-94638000I0J150000D01*
G01*
G37*
G04 #@! TD.AperFunction*
G04 #@! TA.AperFunction,SMDPad,CuDef*
G36*
G01*
X150220000Y-93368000D02*
X150220000Y-93068000D01*
G75*
G02*
X150370000Y-92918000I150000J0D01*
G01*
X152020000Y-92918000D01*
G75*
G02*
X152170000Y-93068000I0J-150000D01*
G01*
X152170000Y-93368000D01*
G75*
G02*
X152020000Y-93518000I-150000J0D01*
G01*
X150370000Y-93518000D01*
G75*
G02*
X150220000Y-93368000I0J150000D01*
G01*
G37*
G04 #@! TD.AperFunction*
G04 #@! TA.AperFunction,SMDPad,CuDef*
G36*
G01*
X150220000Y-92098000D02*
X150220000Y-91798000D01*
G75*
G02*
X150370000Y-91648000I150000J0D01*
G01*
X152020000Y-91648000D01*
G75*
G02*
X152170000Y-91798000I0J-150000D01*
G01*
X152170000Y-92098000D01*
G75*
G02*
X152020000Y-92248000I-150000J0D01*
G01*
X150370000Y-92248000D01*
G75*
G02*
X150220000Y-92098000I0J150000D01*
G01*
G37*
G04 #@! TD.AperFunction*
G04 #@! TA.AperFunction,SMDPad,CuDef*
G36*
G01*
X150220000Y-90828000D02*
X150220000Y-90528000D01*
G75*
G02*
X150370000Y-90378000I150000J0D01*
G01*
X152020000Y-90378000D01*
G75*
G02*
X152170000Y-90528000I0J-150000D01*
G01*
X152170000Y-90828000D01*
G75*
G02*
X152020000Y-90978000I-150000J0D01*
G01*
X150370000Y-90978000D01*
G75*
G02*
X150220000Y-90828000I0J150000D01*
G01*
G37*
G04 #@! TD.AperFunction*
G04 #@! TA.AperFunction,SMDPad,CuDef*
G36*
G01*
X150220000Y-89558000D02*
X150220000Y-89258000D01*
G75*
G02*
X150370000Y-89108000I150000J0D01*
G01*
X152020000Y-89108000D01*
G75*
G02*
X152170000Y-89258000I0J-150000D01*
G01*
X152170000Y-89558000D01*
G75*
G02*
X152020000Y-89708000I-150000J0D01*
G01*
X150370000Y-89708000D01*
G75*
G02*
X150220000Y-89558000I0J150000D01*
G01*
G37*
G04 #@! TD.AperFunction*
G04 #@! TA.AperFunction,SMDPad,CuDef*
G36*
G01*
X150220000Y-88288000D02*
X150220000Y-87988000D01*
G75*
G02*
X150370000Y-87838000I150000J0D01*
G01*
X152020000Y-87838000D01*
G75*
G02*
X152170000Y-87988000I0J-150000D01*
G01*
X152170000Y-88288000D01*
G75*
G02*
X152020000Y-88438000I-150000J0D01*
G01*
X150370000Y-88438000D01*
G75*
G02*
X150220000Y-88288000I0J150000D01*
G01*
G37*
G04 #@! TD.AperFunction*
G04 #@! TA.AperFunction,SMDPad,CuDef*
G36*
G01*
X147277500Y-96069999D02*
X147277500Y-96970001D01*
G75*
G02*
X147027501Y-97220000I-249999J0D01*
G01*
X146502499Y-97220000D01*
G75*
G02*
X146252500Y-96970001I0J249999D01*
G01*
X146252500Y-96069999D01*
G75*
G02*
X146502499Y-95820000I249999J0D01*
G01*
X147027501Y-95820000D01*
G75*
G02*
X147277500Y-96069999I0J-249999D01*
G01*
G37*
G04 #@! TD.AperFunction*
G04 #@! TA.AperFunction,SMDPad,CuDef*
G36*
G01*
X149102500Y-96069999D02*
X149102500Y-96970001D01*
G75*
G02*
X148852501Y-97220000I-249999J0D01*
G01*
X148327499Y-97220000D01*
G75*
G02*
X148077500Y-96970001I0J249999D01*
G01*
X148077500Y-96069999D01*
G75*
G02*
X148327499Y-95820000I249999J0D01*
G01*
X148852501Y-95820000D01*
G75*
G02*
X149102500Y-96069999I0J-249999D01*
G01*
G37*
G04 #@! TD.AperFunction*
G04 #@! TA.AperFunction,SMDPad,CuDef*
G36*
G01*
X156356000Y-105098001D02*
X156356000Y-104197999D01*
G75*
G02*
X156605999Y-103948000I249999J0D01*
G01*
X157131001Y-103948000D01*
G75*
G02*
X157381000Y-104197999I0J-249999D01*
G01*
X157381000Y-105098001D01*
G75*
G02*
X157131001Y-105348000I-249999J0D01*
G01*
X156605999Y-105348000D01*
G75*
G02*
X156356000Y-105098001I0J249999D01*
G01*
G37*
G04 #@! TD.AperFunction*
G04 #@! TA.AperFunction,SMDPad,CuDef*
G36*
G01*
X154531000Y-105098001D02*
X154531000Y-104197999D01*
G75*
G02*
X154780999Y-103948000I249999J0D01*
G01*
X155306001Y-103948000D01*
G75*
G02*
X155556000Y-104197999I0J-249999D01*
G01*
X155556000Y-105098001D01*
G75*
G02*
X155306001Y-105348000I-249999J0D01*
G01*
X154780999Y-105348000D01*
G75*
G02*
X154531000Y-105098001I0J249999D01*
G01*
G37*
G04 #@! TD.AperFunction*
G04 #@! TA.AperFunction,SMDPad,CuDef*
G36*
G01*
X142182001Y-103636500D02*
X141281999Y-103636500D01*
G75*
G02*
X141032000Y-103386501I0J249999D01*
G01*
X141032000Y-102861499D01*
G75*
G02*
X141281999Y-102611500I249999J0D01*
G01*
X142182001Y-102611500D01*
G75*
G02*
X142432000Y-102861499I0J-249999D01*
G01*
X142432000Y-103386501D01*
G75*
G02*
X142182001Y-103636500I-249999J0D01*
G01*
G37*
G04 #@! TD.AperFunction*
G04 #@! TA.AperFunction,SMDPad,CuDef*
G36*
G01*
X142182001Y-105461500D02*
X141281999Y-105461500D01*
G75*
G02*
X141032000Y-105211501I0J249999D01*
G01*
X141032000Y-104686499D01*
G75*
G02*
X141281999Y-104436500I249999J0D01*
G01*
X142182001Y-104436500D01*
G75*
G02*
X142432000Y-104686499I0J-249999D01*
G01*
X142432000Y-105211501D01*
G75*
G02*
X142182001Y-105461500I-249999J0D01*
G01*
G37*
G04 #@! TD.AperFunction*
G04 #@! TA.AperFunction,SMDPad,CuDef*
G36*
G01*
X160978001Y-109328000D02*
X160077999Y-109328000D01*
G75*
G02*
X159828000Y-109078001I0J249999D01*
G01*
X159828000Y-108552999D01*
G75*
G02*
X160077999Y-108303000I249999J0D01*
G01*
X160978001Y-108303000D01*
G75*
G02*
X161228000Y-108552999I0J-249999D01*
G01*
X161228000Y-109078001D01*
G75*
G02*
X160978001Y-109328000I-249999J0D01*
G01*
G37*
G04 #@! TD.AperFunction*
G04 #@! TA.AperFunction,SMDPad,CuDef*
G36*
G01*
X160978001Y-111153000D02*
X160077999Y-111153000D01*
G75*
G02*
X159828000Y-110903001I0J249999D01*
G01*
X159828000Y-110377999D01*
G75*
G02*
X160077999Y-110128000I249999J0D01*
G01*
X160978001Y-110128000D01*
G75*
G02*
X161228000Y-110377999I0J-249999D01*
G01*
X161228000Y-110903001D01*
G75*
G02*
X160978001Y-111153000I-249999J0D01*
G01*
G37*
G04 #@! TD.AperFunction*
G04 #@! TA.AperFunction,SMDPad,CuDef*
G36*
G01*
X143910000Y-87572001D02*
X143910000Y-86671999D01*
G75*
G02*
X144159999Y-86422000I249999J0D01*
G01*
X144685001Y-86422000D01*
G75*
G02*
X144935000Y-86671999I0J-249999D01*
G01*
X144935000Y-87572001D01*
G75*
G02*
X144685001Y-87822000I-249999J0D01*
G01*
X144159999Y-87822000D01*
G75*
G02*
X143910000Y-87572001I0J249999D01*
G01*
G37*
G04 #@! TD.AperFunction*
G04 #@! TA.AperFunction,SMDPad,CuDef*
G36*
G01*
X142085000Y-87572001D02*
X142085000Y-86671999D01*
G75*
G02*
X142334999Y-86422000I249999J0D01*
G01*
X142860001Y-86422000D01*
G75*
G02*
X143110000Y-86671999I0J-249999D01*
G01*
X143110000Y-87572001D01*
G75*
G02*
X142860001Y-87822000I-249999J0D01*
G01*
X142334999Y-87822000D01*
G75*
G02*
X142085000Y-87572001I0J249999D01*
G01*
G37*
G04 #@! TD.AperFunction*
G04 #@! TA.AperFunction,SMDPad,CuDef*
G36*
G01*
X143110000Y-84385999D02*
X143110000Y-85286001D01*
G75*
G02*
X142860001Y-85536000I-249999J0D01*
G01*
X142334999Y-85536000D01*
G75*
G02*
X142085000Y-85286001I0J249999D01*
G01*
X142085000Y-84385999D01*
G75*
G02*
X142334999Y-84136000I249999J0D01*
G01*
X142860001Y-84136000D01*
G75*
G02*
X143110000Y-84385999I0J-249999D01*
G01*
G37*
G04 #@! TD.AperFunction*
G04 #@! TA.AperFunction,SMDPad,CuDef*
G36*
G01*
X144935000Y-84385999D02*
X144935000Y-85286001D01*
G75*
G02*
X144685001Y-85536000I-249999J0D01*
G01*
X144159999Y-85536000D01*
G75*
G02*
X143910000Y-85286001I0J249999D01*
G01*
X143910000Y-84385999D01*
G75*
G02*
X144159999Y-84136000I249999J0D01*
G01*
X144685001Y-84136000D01*
G75*
G02*
X144935000Y-84385999I0J-249999D01*
G01*
G37*
G04 #@! TD.AperFunction*
G04 #@! TA.AperFunction,SMDPad,CuDef*
G36*
G01*
X147785500Y-83877999D02*
X147785500Y-84778001D01*
G75*
G02*
X147535501Y-85028000I-249999J0D01*
G01*
X147010499Y-85028000D01*
G75*
G02*
X146760500Y-84778001I0J249999D01*
G01*
X146760500Y-83877999D01*
G75*
G02*
X147010499Y-83628000I249999J0D01*
G01*
X147535501Y-83628000D01*
G75*
G02*
X147785500Y-83877999I0J-249999D01*
G01*
G37*
G04 #@! TD.AperFunction*
G04 #@! TA.AperFunction,SMDPad,CuDef*
G36*
G01*
X149610500Y-83877999D02*
X149610500Y-84778001D01*
G75*
G02*
X149360501Y-85028000I-249999J0D01*
G01*
X148835499Y-85028000D01*
G75*
G02*
X148585500Y-84778001I0J249999D01*
G01*
X148585500Y-83877999D01*
G75*
G02*
X148835499Y-83628000I249999J0D01*
G01*
X149360501Y-83628000D01*
G75*
G02*
X149610500Y-83877999I0J-249999D01*
G01*
G37*
G04 #@! TD.AperFunction*
D12*
X143322000Y-96488000D03*
X142372000Y-94488000D03*
X144272000Y-94488000D03*
D15*
X146288000Y-103886000D03*
X144288000Y-104836000D03*
X144288000Y-102936000D03*
G04 #@! TA.AperFunction,SMDPad,CuDef*
D13*
G36*
X133169000Y-84264000D02*
G01*
X134719000Y-84264000D01*
X134719000Y-84514000D01*
X137794000Y-84514000D01*
X137794000Y-88714000D01*
X134719000Y-88714000D01*
X134719000Y-88964000D01*
X133169000Y-88964000D01*
X133169000Y-84264000D01*
G37*
G04 #@! TD.AperFunction*
D16*
X139414000Y-84704000D03*
X139414000Y-85974000D03*
X139414000Y-88524000D03*
X139414000Y-87254000D03*
D10*
X147320000Y-113284000D03*
D11*
X149860000Y-113284000D03*
D10*
X139954000Y-113284000D03*
D11*
X142494000Y-113284000D03*
D10*
X165735000Y-108077000D03*
X165735000Y-105537000D03*
X165735000Y-102997000D03*
X165735000Y-100457000D03*
X165735000Y-97917000D03*
D11*
X165735000Y-95377000D03*
D10*
X159766000Y-81280000D03*
X157226000Y-81280000D03*
X154686000Y-81280000D03*
X152146000Y-81280000D03*
X149606000Y-81280000D03*
D11*
X147066000Y-81280000D03*
D10*
X125984000Y-91186000D03*
D11*
X125984000Y-88646000D03*
D10*
X165735000Y-85725000D03*
X165735000Y-88265000D03*
D11*
X165735000Y-90805000D03*
G04 #@! TA.AperFunction,SMDPad,CuDef*
G36*
G01*
X155396250Y-109278000D02*
X154483750Y-109278000D01*
G75*
G02*
X154240000Y-109034250I0J243750D01*
G01*
X154240000Y-108546750D01*
G75*
G02*
X154483750Y-108303000I243750J0D01*
G01*
X155396250Y-108303000D01*
G75*
G02*
X155640000Y-108546750I0J-243750D01*
G01*
X155640000Y-109034250D01*
G75*
G02*
X155396250Y-109278000I-243750J0D01*
G01*
G37*
G04 #@! TD.AperFunction*
G04 #@! TA.AperFunction,SMDPad,CuDef*
G36*
G01*
X155396250Y-111153000D02*
X154483750Y-111153000D01*
G75*
G02*
X154240000Y-110909250I0J243750D01*
G01*
X154240000Y-110421750D01*
G75*
G02*
X154483750Y-110178000I243750J0D01*
G01*
X155396250Y-110178000D01*
G75*
G02*
X155640000Y-110421750I0J-243750D01*
G01*
X155640000Y-110909250D01*
G75*
G02*
X155396250Y-111153000I-243750J0D01*
G01*
G37*
G04 #@! TD.AperFunction*
D17*
X131318000Y-103378000D03*
X135618000Y-103378000D03*
G04 #@! TA.AperFunction,SMDPad,CuDef*
G36*
G01*
X158444250Y-109199500D02*
X157531750Y-109199500D01*
G75*
G02*
X157288000Y-108955750I0J243750D01*
G01*
X157288000Y-108468250D01*
G75*
G02*
X157531750Y-108224500I243750J0D01*
G01*
X158444250Y-108224500D01*
G75*
G02*
X158688000Y-108468250I0J-243750D01*
G01*
X158688000Y-108955750D01*
G75*
G02*
X158444250Y-109199500I-243750J0D01*
G01*
G37*
G04 #@! TD.AperFunction*
G04 #@! TA.AperFunction,SMDPad,CuDef*
G36*
G01*
X158444250Y-111074500D02*
X157531750Y-111074500D01*
G75*
G02*
X157288000Y-110830750I0J243750D01*
G01*
X157288000Y-110343250D01*
G75*
G02*
X157531750Y-110099500I243750J0D01*
G01*
X158444250Y-110099500D01*
G75*
G02*
X158688000Y-110343250I0J-243750D01*
G01*
X158688000Y-110830750D01*
G75*
G02*
X158444250Y-111074500I-243750J0D01*
G01*
G37*
G04 #@! TD.AperFunction*
D18*
X138938000Y-94996000D03*
X132138000Y-94996000D03*
G04 #@! TA.AperFunction,SMDPad,CuDef*
G36*
G01*
X153982000Y-101379000D02*
X153982000Y-102329000D01*
G75*
G02*
X153732000Y-102579000I-250000J0D01*
G01*
X153232000Y-102579000D01*
G75*
G02*
X152982000Y-102329000I0J250000D01*
G01*
X152982000Y-101379000D01*
G75*
G02*
X153232000Y-101129000I250000J0D01*
G01*
X153732000Y-101129000D01*
G75*
G02*
X153982000Y-101379000I0J-250000D01*
G01*
G37*
G04 #@! TD.AperFunction*
G04 #@! TA.AperFunction,SMDPad,CuDef*
G36*
G01*
X155882000Y-101379000D02*
X155882000Y-102329000D01*
G75*
G02*
X155632000Y-102579000I-250000J0D01*
G01*
X155132000Y-102579000D01*
G75*
G02*
X154882000Y-102329000I0J250000D01*
G01*
X154882000Y-101379000D01*
G75*
G02*
X155132000Y-101129000I250000J0D01*
G01*
X155632000Y-101129000D01*
G75*
G02*
X155882000Y-101379000I0J-250000D01*
G01*
G37*
G04 #@! TD.AperFunction*
G04 #@! TA.AperFunction,SMDPad,CuDef*
G36*
G01*
X149868000Y-102329000D02*
X149868000Y-101379000D01*
G75*
G02*
X150118000Y-101129000I250000J0D01*
G01*
X150618000Y-101129000D01*
G75*
G02*
X150868000Y-101379000I0J-250000D01*
G01*
X150868000Y-102329000D01*
G75*
G02*
X150618000Y-102579000I-250000J0D01*
G01*
X150118000Y-102579000D01*
G75*
G02*
X149868000Y-102329000I0J250000D01*
G01*
G37*
G04 #@! TD.AperFunction*
G04 #@! TA.AperFunction,SMDPad,CuDef*
G36*
G01*
X147968000Y-102329000D02*
X147968000Y-101379000D01*
G75*
G02*
X148218000Y-101129000I250000J0D01*
G01*
X148718000Y-101129000D01*
G75*
G02*
X148968000Y-101379000I0J-250000D01*
G01*
X148968000Y-102329000D01*
G75*
G02*
X148718000Y-102579000I-250000J0D01*
G01*
X148218000Y-102579000D01*
G75*
G02*
X147968000Y-102329000I0J250000D01*
G01*
G37*
G04 #@! TD.AperFunction*
G04 #@! TA.AperFunction,SMDPad,CuDef*
G36*
G01*
X139921000Y-103624000D02*
X138971000Y-103624000D01*
G75*
G02*
X138721000Y-103374000I0J250000D01*
G01*
X138721000Y-102874000D01*
G75*
G02*
X138971000Y-102624000I250000J0D01*
G01*
X139921000Y-102624000D01*
G75*
G02*
X140171000Y-102874000I0J-250000D01*
G01*
X140171000Y-103374000D01*
G75*
G02*
X139921000Y-103624000I-250000J0D01*
G01*
G37*
G04 #@! TD.AperFunction*
G04 #@! TA.AperFunction,SMDPad,CuDef*
G36*
G01*
X139921000Y-105524000D02*
X138971000Y-105524000D01*
G75*
G02*
X138721000Y-105274000I0J250000D01*
G01*
X138721000Y-104774000D01*
G75*
G02*
X138971000Y-104524000I250000J0D01*
G01*
X139921000Y-104524000D01*
G75*
G02*
X140171000Y-104774000I0J-250000D01*
G01*
X140171000Y-105274000D01*
G75*
G02*
X139921000Y-105524000I-250000J0D01*
G01*
G37*
G04 #@! TD.AperFunction*
G04 #@! TA.AperFunction,SMDPad,CuDef*
G36*
G01*
X132047000Y-88638000D02*
X131097000Y-88638000D01*
G75*
G02*
X130847000Y-88388000I0J250000D01*
G01*
X130847000Y-87888000D01*
G75*
G02*
X131097000Y-87638000I250000J0D01*
G01*
X132047000Y-87638000D01*
G75*
G02*
X132297000Y-87888000I0J-250000D01*
G01*
X132297000Y-88388000D01*
G75*
G02*
X132047000Y-88638000I-250000J0D01*
G01*
G37*
G04 #@! TD.AperFunction*
G04 #@! TA.AperFunction,SMDPad,CuDef*
G36*
G01*
X132047000Y-90538000D02*
X131097000Y-90538000D01*
G75*
G02*
X130847000Y-90288000I0J250000D01*
G01*
X130847000Y-89788000D01*
G75*
G02*
X131097000Y-89538000I250000J0D01*
G01*
X132047000Y-89538000D01*
G75*
G02*
X132297000Y-89788000I0J-250000D01*
G01*
X132297000Y-90288000D01*
G75*
G02*
X132047000Y-90538000I-250000J0D01*
G01*
G37*
G04 #@! TD.AperFunction*
G04 #@! TA.AperFunction,SMDPad,CuDef*
G36*
G01*
X130015000Y-88638000D02*
X129065000Y-88638000D01*
G75*
G02*
X128815000Y-88388000I0J250000D01*
G01*
X128815000Y-87888000D01*
G75*
G02*
X129065000Y-87638000I250000J0D01*
G01*
X130015000Y-87638000D01*
G75*
G02*
X130265000Y-87888000I0J-250000D01*
G01*
X130265000Y-88388000D01*
G75*
G02*
X130015000Y-88638000I-250000J0D01*
G01*
G37*
G04 #@! TD.AperFunction*
G04 #@! TA.AperFunction,SMDPad,CuDef*
G36*
G01*
X130015000Y-90538000D02*
X129065000Y-90538000D01*
G75*
G02*
X128815000Y-90288000I0J250000D01*
G01*
X128815000Y-89788000D01*
G75*
G02*
X129065000Y-89538000I250000J0D01*
G01*
X130015000Y-89538000D01*
G75*
G02*
X130265000Y-89788000I0J-250000D01*
G01*
X130265000Y-90288000D01*
G75*
G02*
X130015000Y-90538000I-250000J0D01*
G01*
G37*
G04 #@! TD.AperFunction*
G04 #@! TA.AperFunction,SMDPad,CuDef*
G36*
G01*
X152367000Y-84828000D02*
X151417000Y-84828000D01*
G75*
G02*
X151167000Y-84578000I0J250000D01*
G01*
X151167000Y-84078000D01*
G75*
G02*
X151417000Y-83828000I250000J0D01*
G01*
X152367000Y-83828000D01*
G75*
G02*
X152617000Y-84078000I0J-250000D01*
G01*
X152617000Y-84578000D01*
G75*
G02*
X152367000Y-84828000I-250000J0D01*
G01*
G37*
G04 #@! TD.AperFunction*
G04 #@! TA.AperFunction,SMDPad,CuDef*
G36*
G01*
X152367000Y-86728000D02*
X151417000Y-86728000D01*
G75*
G02*
X151167000Y-86478000I0J250000D01*
G01*
X151167000Y-85978000D01*
G75*
G02*
X151417000Y-85728000I250000J0D01*
G01*
X152367000Y-85728000D01*
G75*
G02*
X152617000Y-85978000I0J-250000D01*
G01*
X152617000Y-86478000D01*
G75*
G02*
X152367000Y-86728000I-250000J0D01*
G01*
G37*
G04 #@! TD.AperFunction*
G04 #@! TA.AperFunction,SMDPad,CuDef*
G36*
G01*
X160241000Y-90040000D02*
X159291000Y-90040000D01*
G75*
G02*
X159041000Y-89790000I0J250000D01*
G01*
X159041000Y-89290000D01*
G75*
G02*
X159291000Y-89040000I250000J0D01*
G01*
X160241000Y-89040000D01*
G75*
G02*
X160491000Y-89290000I0J-250000D01*
G01*
X160491000Y-89790000D01*
G75*
G02*
X160241000Y-90040000I-250000J0D01*
G01*
G37*
G04 #@! TD.AperFunction*
G04 #@! TA.AperFunction,SMDPad,CuDef*
G36*
G01*
X160241000Y-91940000D02*
X159291000Y-91940000D01*
G75*
G02*
X159041000Y-91690000I0J250000D01*
G01*
X159041000Y-91190000D01*
G75*
G02*
X159291000Y-90940000I250000J0D01*
G01*
X160241000Y-90940000D01*
G75*
G02*
X160491000Y-91190000I0J-250000D01*
G01*
X160491000Y-91690000D01*
G75*
G02*
X160241000Y-91940000I-250000J0D01*
G01*
G37*
G04 #@! TD.AperFunction*
D19*
X159766000Y-88392000D03*
X156464000Y-87122000D03*
X154686000Y-88138000D03*
X151892000Y-101854000D03*
X150114000Y-103124000D03*
X149860000Y-109728000D03*
X140716000Y-86106000D03*
X140716000Y-87376000D03*
X140716000Y-88646000D03*
X139446000Y-89916000D03*
X142494000Y-92710000D03*
X148844000Y-87249000D03*
X145669000Y-92202000D03*
X154686000Y-94488000D03*
X141224000Y-97282000D03*
X152654000Y-89408000D03*
X162306000Y-110490000D03*
X152335979Y-93218000D03*
X154686000Y-95758000D03*
X149860000Y-97028000D03*
X140716000Y-101346000D03*
D20*
X151892000Y-81534000D02*
X152146000Y-81280000D01*
X151892000Y-84328000D02*
X151892000Y-81534000D01*
D21*
X159766000Y-89540000D02*
X159766000Y-88392000D01*
D22*
X156145000Y-87441000D02*
X156464000Y-87122000D01*
X156145000Y-88138000D02*
X156145000Y-87441000D01*
D20*
X156145000Y-88138000D02*
X154686000Y-88138000D01*
D22*
X153482000Y-101854000D02*
X151892000Y-101854000D01*
X150368000Y-101854000D02*
X151892000Y-101854000D01*
X150368000Y-102870000D02*
X150114000Y-103124000D01*
X150368000Y-101854000D02*
X150368000Y-102870000D01*
X149860000Y-104609500D02*
X149644500Y-104609500D01*
X150114000Y-104140000D02*
X150114000Y-103124000D01*
X149644500Y-104609500D02*
X150114000Y-104140000D01*
X149860000Y-104609500D02*
X149860000Y-109728000D01*
D21*
X150192500Y-110665500D02*
X149860000Y-110998000D01*
D22*
X149860000Y-110998000D02*
X149860000Y-109728000D01*
D21*
X154940000Y-110665500D02*
X150192500Y-110665500D01*
D22*
X149860000Y-113284000D02*
X149860000Y-110998000D01*
D21*
X155018500Y-110587000D02*
X154940000Y-110665500D01*
X157988000Y-110587000D02*
X155018500Y-110587000D01*
D22*
X140584000Y-85974000D02*
X140716000Y-86106000D01*
X139414000Y-85974000D02*
X140584000Y-85974000D01*
X140594000Y-87254000D02*
X140716000Y-87376000D01*
X139414000Y-87254000D02*
X140594000Y-87254000D01*
X140594000Y-88524000D02*
X140716000Y-88646000D01*
X139414000Y-88524000D02*
X140594000Y-88524000D01*
X139414000Y-85974000D02*
X139414000Y-87254000D01*
X139414000Y-87254000D02*
X139414000Y-88524000D01*
X139414000Y-89884000D02*
X139446000Y-89916000D01*
X139414000Y-88524000D02*
X139414000Y-89884000D01*
D21*
X140970000Y-87122000D02*
X140716000Y-87376000D01*
X142597500Y-87122000D02*
X140970000Y-87122000D01*
X142560000Y-92644000D02*
X142494000Y-92710000D01*
X142560000Y-91170000D02*
X142560000Y-92644000D01*
X142372000Y-92832000D02*
X142494000Y-92710000D01*
X142372000Y-94488000D02*
X142372000Y-92832000D01*
X157988000Y-93218000D02*
X159766000Y-91440000D01*
X156145000Y-93218000D02*
X157988000Y-93218000D01*
X162941000Y-88265000D02*
X159766000Y-91440000D01*
X165735000Y-88265000D02*
X162941000Y-88265000D01*
D22*
X149865000Y-86228000D02*
X148844000Y-87249000D01*
X151892000Y-86228000D02*
X149865000Y-86228000D01*
X145492000Y-92202000D02*
X144460000Y-91170000D01*
X145669000Y-92202000D02*
X145492000Y-92202000D01*
D21*
X141478000Y-102870000D02*
X141732000Y-103124000D01*
X139446000Y-103124000D02*
X141732000Y-103124000D01*
X141920000Y-102936000D02*
X141732000Y-103124000D01*
X144288000Y-102936000D02*
X141920000Y-102936000D01*
X143322000Y-97684000D02*
X144206000Y-98568000D01*
X143322000Y-96488000D02*
X143322000Y-97684000D01*
X144288000Y-98650000D02*
X144206000Y-98568000D01*
X144288000Y-102936000D02*
X144288000Y-98650000D01*
D22*
X141845000Y-104836000D02*
X141732000Y-104949000D01*
X144288000Y-104836000D02*
X141845000Y-104836000D01*
X137264000Y-105024000D02*
X135618000Y-103378000D01*
X139446000Y-105024000D02*
X137264000Y-105024000D01*
X139521000Y-104949000D02*
X139446000Y-105024000D01*
X141732000Y-104949000D02*
X139521000Y-104949000D01*
X139446000Y-112776000D02*
X139954000Y-113284000D01*
X139446000Y-105024000D02*
X139446000Y-112776000D01*
X146924000Y-104522000D02*
X146288000Y-103886000D01*
X148360000Y-104522000D02*
X146924000Y-104522000D01*
X148360000Y-101962000D02*
X148468000Y-101854000D01*
X148360000Y-104522000D02*
X148360000Y-101962000D01*
X142494000Y-110388000D02*
X148360000Y-104522000D01*
X142494000Y-113284000D02*
X142494000Y-110388000D01*
D21*
X158091500Y-108815500D02*
X157988000Y-108712000D01*
X160528000Y-108815500D02*
X158091500Y-108815500D01*
X156868500Y-106862000D02*
X154940000Y-108790500D01*
X156868500Y-104648000D02*
X156868500Y-106862000D01*
D20*
X156145000Y-94488000D02*
X154686000Y-94488000D01*
D21*
X142306000Y-98568000D02*
X142306000Y-98364000D01*
X142306000Y-98364000D02*
X141224000Y-97282000D01*
X165608000Y-102362000D02*
X166116000Y-102362000D01*
X165608000Y-102362000D02*
X165354000Y-102616000D01*
X152170000Y-90678000D02*
X151195000Y-90678000D01*
X153060979Y-91568979D02*
X152170000Y-90678000D01*
X153060979Y-96478801D02*
X153060979Y-91568979D01*
X159579178Y-102997000D02*
X153060979Y-96478801D01*
X165735000Y-102997000D02*
X159579178Y-102997000D01*
X157226000Y-85090000D02*
X157226000Y-81280000D01*
X157988000Y-85852000D02*
X157226000Y-85090000D01*
X157988000Y-89916000D02*
X157988000Y-85852000D01*
X157226000Y-90678000D02*
X157988000Y-89916000D01*
X156145000Y-90678000D02*
X157226000Y-90678000D01*
X156145000Y-89408000D02*
X154178000Y-89408000D01*
X154178000Y-89408000D02*
X153670000Y-88900000D01*
X153670000Y-82296000D02*
X154686000Y-81280000D01*
X153670000Y-88900000D02*
X153670000Y-82296000D01*
X147066000Y-84121000D02*
X147273000Y-84328000D01*
X147066000Y-81280000D02*
X147066000Y-84121000D01*
X147273000Y-89001000D02*
X147273000Y-84328000D01*
X150220000Y-91948000D02*
X147273000Y-89001000D01*
X151195000Y-91948000D02*
X150220000Y-91948000D01*
X165608000Y-97282000D02*
X165608000Y-97536000D01*
X154686000Y-91948000D02*
X156145000Y-91948000D01*
X153960999Y-92673001D02*
X154686000Y-91948000D01*
X153960999Y-96106001D02*
X153960999Y-92673001D01*
X155771998Y-97917000D02*
X153960999Y-96106001D01*
X165735000Y-97917000D02*
X155771998Y-97917000D01*
X151195000Y-89408000D02*
X152654000Y-89408000D01*
X165608000Y-99822000D02*
X165608000Y-100076000D01*
X153162000Y-89408000D02*
X152654000Y-89408000D01*
X153510989Y-89756989D02*
X153162000Y-89408000D01*
X157675588Y-100457000D02*
X153510989Y-96292401D01*
X153510989Y-96292401D02*
X153510989Y-89756989D01*
X165735000Y-100457000D02*
X157675588Y-100457000D01*
X152400000Y-95758000D02*
X151195000Y-95758000D01*
X152610970Y-95968970D02*
X152400000Y-95758000D01*
X152610970Y-96665202D02*
X152610970Y-95968970D01*
X161482768Y-105537000D02*
X152610970Y-96665202D01*
X165735000Y-105537000D02*
X161482768Y-105537000D01*
X140308000Y-84836000D02*
X140176000Y-84704000D01*
D20*
X142465500Y-84704000D02*
X142597500Y-84836000D01*
X140176000Y-84704000D02*
X142465500Y-84704000D01*
X140176000Y-84704000D02*
X139414000Y-84704000D01*
D21*
X144733000Y-94488000D02*
X146765000Y-96520000D01*
X144272000Y-94488000D02*
X144733000Y-94488000D01*
X162155500Y-110640500D02*
X162306000Y-110490000D01*
X160528000Y-110640500D02*
X162155500Y-110640500D01*
X152335979Y-93218000D02*
X151195000Y-93218000D01*
X156145000Y-95758000D02*
X154686000Y-95758000D01*
X149098000Y-97028000D02*
X148590000Y-96520000D01*
X149860000Y-97028000D02*
X149098000Y-97028000D01*
D20*
X151195000Y-94488000D02*
X150114000Y-94488000D01*
X150114000Y-94488000D02*
X144422500Y-88796500D01*
X143748000Y-89170000D02*
X144422500Y-88495500D01*
X143510000Y-89170000D02*
X143748000Y-89170000D01*
X144422500Y-88495500D02*
X144422500Y-87122000D01*
X144422500Y-88796500D02*
X144422500Y-88495500D01*
X144422500Y-87122000D02*
X144422500Y-84836000D01*
D21*
X143256000Y-100568000D02*
X141494000Y-100568000D01*
X141494000Y-100568000D02*
X140716000Y-101346000D01*
D23*
X169711001Y-116277000D02*
X144399000Y-116277000D01*
X144399000Y-109911355D01*
X148355428Y-105954928D01*
X148355428Y-108472000D01*
X148367688Y-108596482D01*
X148403998Y-108716180D01*
X148462963Y-108826494D01*
X148542315Y-108923185D01*
X148639006Y-109002537D01*
X148749320Y-109061502D01*
X148850001Y-109092043D01*
X148850001Y-109500372D01*
X148825000Y-109626061D01*
X148825000Y-109829939D01*
X148850001Y-109955628D01*
X148850000Y-111047607D01*
X148850001Y-111047617D01*
X148850001Y-111818962D01*
X148765820Y-111844498D01*
X148655506Y-111903463D01*
X148558815Y-111982815D01*
X148479463Y-112079506D01*
X148420498Y-112189820D01*
X148398487Y-112262380D01*
X148266632Y-112130525D01*
X148023411Y-111968010D01*
X147753158Y-111856068D01*
X147466260Y-111799000D01*
X147173740Y-111799000D01*
X146886842Y-111856068D01*
X146616589Y-111968010D01*
X146373368Y-112130525D01*
X146166525Y-112337368D01*
X146004010Y-112580589D01*
X145892068Y-112850842D01*
X145835000Y-113137740D01*
X145835000Y-113430260D01*
X145892068Y-113717158D01*
X146004010Y-113987411D01*
X146166525Y-114230632D01*
X146373368Y-114437475D01*
X146616589Y-114599990D01*
X146886842Y-114711932D01*
X147173740Y-114769000D01*
X147466260Y-114769000D01*
X147753158Y-114711932D01*
X148023411Y-114599990D01*
X148266632Y-114437475D01*
X148398487Y-114305620D01*
X148420498Y-114378180D01*
X148479463Y-114488494D01*
X148558815Y-114585185D01*
X148655506Y-114664537D01*
X148765820Y-114723502D01*
X148885518Y-114759812D01*
X149010000Y-114772072D01*
X150710000Y-114772072D01*
X150834482Y-114759812D01*
X150954180Y-114723502D01*
X151064494Y-114664537D01*
X151161185Y-114585185D01*
X151240537Y-114488494D01*
X151299502Y-114378180D01*
X151335812Y-114258482D01*
X151348072Y-114134000D01*
X151348072Y-113317872D01*
X164643000Y-113317872D01*
X164643000Y-113758128D01*
X164728890Y-114189925D01*
X164897369Y-114596669D01*
X165141962Y-114962729D01*
X165453271Y-115274038D01*
X165819331Y-115518631D01*
X166226075Y-115687110D01*
X166657872Y-115773000D01*
X167098128Y-115773000D01*
X167529925Y-115687110D01*
X167936669Y-115518631D01*
X168302729Y-115274038D01*
X168614038Y-114962729D01*
X168858631Y-114596669D01*
X169027110Y-114189925D01*
X169113000Y-113758128D01*
X169113000Y-113317872D01*
X169027110Y-112886075D01*
X168858631Y-112479331D01*
X168614038Y-112113271D01*
X168302729Y-111801962D01*
X167936669Y-111557369D01*
X167529925Y-111388890D01*
X167098128Y-111303000D01*
X166657872Y-111303000D01*
X166226075Y-111388890D01*
X165819331Y-111557369D01*
X165453271Y-111801962D01*
X165141962Y-112113271D01*
X164897369Y-112479331D01*
X164728890Y-112886075D01*
X164643000Y-113317872D01*
X151348072Y-113317872D01*
X151348072Y-112434000D01*
X151335812Y-112309518D01*
X151299502Y-112189820D01*
X151240537Y-112079506D01*
X151161185Y-111982815D01*
X151064494Y-111903463D01*
X150954180Y-111844498D01*
X150870000Y-111818962D01*
X150870000Y-111425500D01*
X153772155Y-111425500D01*
X153860208Y-111532792D01*
X153993836Y-111642458D01*
X154146291Y-111723947D01*
X154311715Y-111774128D01*
X154483750Y-111791072D01*
X155396250Y-111791072D01*
X155568285Y-111774128D01*
X155733709Y-111723947D01*
X155886164Y-111642458D01*
X156019792Y-111532792D01*
X156129458Y-111399164D01*
X156157340Y-111347000D01*
X156820155Y-111347000D01*
X156908208Y-111454292D01*
X157041836Y-111563958D01*
X157194291Y-111645447D01*
X157359715Y-111695628D01*
X157531750Y-111712572D01*
X158444250Y-111712572D01*
X158616285Y-111695628D01*
X158781709Y-111645447D01*
X158934164Y-111563958D01*
X159067792Y-111454292D01*
X159177458Y-111320664D01*
X159243597Y-111196927D01*
X159257528Y-111242851D01*
X159339595Y-111396387D01*
X159450038Y-111530962D01*
X159584613Y-111641405D01*
X159738149Y-111723472D01*
X159904745Y-111774008D01*
X160077999Y-111791072D01*
X160978001Y-111791072D01*
X161151255Y-111774008D01*
X161317851Y-111723472D01*
X161471387Y-111641405D01*
X161605962Y-111530962D01*
X161713030Y-111400500D01*
X161805709Y-111400500D01*
X161815744Y-111407205D01*
X162004102Y-111485226D01*
X162204061Y-111525000D01*
X162407939Y-111525000D01*
X162607898Y-111485226D01*
X162796256Y-111407205D01*
X162965774Y-111293937D01*
X163109937Y-111149774D01*
X163223205Y-110980256D01*
X163301226Y-110791898D01*
X163341000Y-110591939D01*
X163341000Y-110388061D01*
X163301226Y-110188102D01*
X163223205Y-109999744D01*
X163109937Y-109830226D01*
X162965774Y-109686063D01*
X162796256Y-109572795D01*
X162607898Y-109494774D01*
X162407939Y-109455000D01*
X162204061Y-109455000D01*
X162004102Y-109494774D01*
X161815744Y-109572795D01*
X161646226Y-109686063D01*
X161592939Y-109739350D01*
X161579109Y-109728000D01*
X161605962Y-109705962D01*
X161716405Y-109571387D01*
X161798472Y-109417851D01*
X161849008Y-109251255D01*
X161866072Y-109078001D01*
X161866072Y-108552999D01*
X161854341Y-108433890D01*
X164293524Y-108433890D01*
X164338175Y-108581099D01*
X164463359Y-108843920D01*
X164637412Y-109077269D01*
X164853645Y-109272178D01*
X165103748Y-109421157D01*
X165378109Y-109518481D01*
X165608000Y-109397814D01*
X165608000Y-108204000D01*
X165862000Y-108204000D01*
X165862000Y-109397814D01*
X166091891Y-109518481D01*
X166366252Y-109421157D01*
X166616355Y-109272178D01*
X166832588Y-109077269D01*
X167006641Y-108843920D01*
X167131825Y-108581099D01*
X167176476Y-108433890D01*
X167055155Y-108204000D01*
X165862000Y-108204000D01*
X165608000Y-108204000D01*
X164414845Y-108204000D01*
X164293524Y-108433890D01*
X161854341Y-108433890D01*
X161849008Y-108379745D01*
X161798472Y-108213149D01*
X161716405Y-108059613D01*
X161605962Y-107925038D01*
X161471387Y-107814595D01*
X161317851Y-107732528D01*
X161151255Y-107681992D01*
X160978001Y-107664928D01*
X160077999Y-107664928D01*
X159904745Y-107681992D01*
X159738149Y-107732528D01*
X159584613Y-107814595D01*
X159450038Y-107925038D01*
X159342970Y-108055500D01*
X159218703Y-108055500D01*
X159177458Y-107978336D01*
X159067792Y-107844708D01*
X158934164Y-107735042D01*
X158781709Y-107653553D01*
X158616285Y-107603372D01*
X158444250Y-107586428D01*
X157531750Y-107586428D01*
X157359715Y-107603372D01*
X157194291Y-107653553D01*
X157102898Y-107702403D01*
X157379503Y-107425799D01*
X157408501Y-107402001D01*
X157503474Y-107286276D01*
X157574046Y-107154247D01*
X157617503Y-107010986D01*
X157628500Y-106899333D01*
X157628500Y-106899323D01*
X157632176Y-106862000D01*
X157628500Y-106824677D01*
X157628500Y-105833030D01*
X157758962Y-105725962D01*
X157869405Y-105591387D01*
X157951472Y-105437851D01*
X158002008Y-105271255D01*
X158019072Y-105098001D01*
X158019072Y-104197999D01*
X158002008Y-104024745D01*
X157951472Y-103858149D01*
X157869405Y-103704613D01*
X157758962Y-103570038D01*
X157624387Y-103459595D01*
X157470851Y-103377528D01*
X157304255Y-103326992D01*
X157131001Y-103309928D01*
X156605999Y-103309928D01*
X156432745Y-103326992D01*
X156266149Y-103377528D01*
X156112613Y-103459595D01*
X156031363Y-103526276D01*
X156007185Y-103496815D01*
X155910494Y-103417463D01*
X155800180Y-103358498D01*
X155680482Y-103322188D01*
X155556000Y-103309928D01*
X155329250Y-103313000D01*
X155170500Y-103471750D01*
X155170500Y-104521000D01*
X155190500Y-104521000D01*
X155190500Y-104775000D01*
X155170500Y-104775000D01*
X155170500Y-105824250D01*
X155329250Y-105983000D01*
X155556000Y-105986072D01*
X155680482Y-105973812D01*
X155800180Y-105937502D01*
X155910494Y-105878537D01*
X156007185Y-105799185D01*
X156031363Y-105769724D01*
X156108501Y-105833030D01*
X156108501Y-106547197D01*
X154990771Y-107664928D01*
X154483750Y-107664928D01*
X154311715Y-107681872D01*
X154146291Y-107732053D01*
X153993836Y-107813542D01*
X153860208Y-107923208D01*
X153750542Y-108056836D01*
X153669053Y-108209291D01*
X153618872Y-108374715D01*
X153601928Y-108546750D01*
X153601928Y-109034250D01*
X153618872Y-109206285D01*
X153669053Y-109371709D01*
X153750542Y-109524164D01*
X153860208Y-109657792D01*
X153945756Y-109728000D01*
X153860208Y-109798208D01*
X153772155Y-109905500D01*
X150879970Y-109905500D01*
X150895000Y-109829939D01*
X150895000Y-109626061D01*
X150870000Y-109500377D01*
X150870000Y-109092043D01*
X150970680Y-109061502D01*
X151080994Y-109002537D01*
X151177685Y-108923185D01*
X151257037Y-108826494D01*
X151316002Y-108716180D01*
X151352312Y-108596482D01*
X151364572Y-108472000D01*
X151364572Y-105807000D01*
X151487002Y-105807000D01*
X151487002Y-105648252D01*
X151645750Y-105807000D01*
X151810000Y-105810072D01*
X151934482Y-105797812D01*
X152054180Y-105761502D01*
X152164494Y-105702537D01*
X152261185Y-105623185D01*
X152340537Y-105526494D01*
X152399502Y-105416180D01*
X152420184Y-105348000D01*
X153892928Y-105348000D01*
X153905188Y-105472482D01*
X153941498Y-105592180D01*
X154000463Y-105702494D01*
X154079815Y-105799185D01*
X154176506Y-105878537D01*
X154286820Y-105937502D01*
X154406518Y-105973812D01*
X154531000Y-105986072D01*
X154757750Y-105983000D01*
X154916500Y-105824250D01*
X154916500Y-104775000D01*
X154054750Y-104775000D01*
X153896000Y-104933750D01*
X153892928Y-105348000D01*
X152420184Y-105348000D01*
X152435812Y-105296482D01*
X152448072Y-105172000D01*
X152445000Y-104807750D01*
X152286250Y-104649000D01*
X151487000Y-104649000D01*
X151487000Y-104669000D01*
X151233000Y-104669000D01*
X151233000Y-104649000D01*
X151213000Y-104649000D01*
X151213000Y-104395000D01*
X151233000Y-104395000D01*
X151233000Y-103395750D01*
X151487000Y-103395750D01*
X151487000Y-104395000D01*
X152286250Y-104395000D01*
X152445000Y-104236250D01*
X152447431Y-103948000D01*
X153892928Y-103948000D01*
X153896000Y-104362250D01*
X154054750Y-104521000D01*
X154916500Y-104521000D01*
X154916500Y-103471750D01*
X154757750Y-103313000D01*
X154531000Y-103309928D01*
X154406518Y-103322188D01*
X154286820Y-103358498D01*
X154176506Y-103417463D01*
X154079815Y-103496815D01*
X154000463Y-103593506D01*
X153941498Y-103703820D01*
X153905188Y-103823518D01*
X153892928Y-103948000D01*
X152447431Y-103948000D01*
X152448072Y-103872000D01*
X152435812Y-103747518D01*
X152399502Y-103627820D01*
X152340537Y-103517506D01*
X152261185Y-103420815D01*
X152164494Y-103341463D01*
X152054180Y-103282498D01*
X151934482Y-103246188D01*
X151810000Y-103233928D01*
X151645750Y-103237000D01*
X151487000Y-103395750D01*
X151233000Y-103395750D01*
X151232483Y-103395233D01*
X151305632Y-103258380D01*
X151363385Y-103067994D01*
X151378000Y-102919608D01*
X151378000Y-102919606D01*
X151382886Y-102870001D01*
X151382295Y-102864000D01*
X151664377Y-102864000D01*
X151790061Y-102889000D01*
X151993939Y-102889000D01*
X152119623Y-102864000D01*
X152527747Y-102864000D01*
X152604038Y-102956962D01*
X152738614Y-103067405D01*
X152892150Y-103149472D01*
X153058746Y-103200008D01*
X153232000Y-103217072D01*
X153732000Y-103217072D01*
X153905254Y-103200008D01*
X154071850Y-103149472D01*
X154225386Y-103067405D01*
X154359962Y-102956962D01*
X154365342Y-102950406D01*
X154430815Y-103030185D01*
X154527506Y-103109537D01*
X154637820Y-103168502D01*
X154757518Y-103204812D01*
X154882000Y-103217072D01*
X155096250Y-103214000D01*
X155255000Y-103055250D01*
X155255000Y-101981000D01*
X155509000Y-101981000D01*
X155509000Y-103055250D01*
X155667750Y-103214000D01*
X155882000Y-103217072D01*
X156006482Y-103204812D01*
X156126180Y-103168502D01*
X156236494Y-103109537D01*
X156333185Y-103030185D01*
X156412537Y-102933494D01*
X156471502Y-102823180D01*
X156507812Y-102703482D01*
X156520072Y-102579000D01*
X156517000Y-102139750D01*
X156358250Y-101981000D01*
X155509000Y-101981000D01*
X155255000Y-101981000D01*
X155235000Y-101981000D01*
X155235000Y-101727000D01*
X155255000Y-101727000D01*
X155255000Y-101707000D01*
X155509000Y-101707000D01*
X155509000Y-101727000D01*
X156358250Y-101727000D01*
X156478108Y-101607142D01*
X160918969Y-106048003D01*
X160942767Y-106077001D01*
X160971765Y-106100799D01*
X161058491Y-106171974D01*
X161186527Y-106240411D01*
X161190521Y-106242546D01*
X161333782Y-106286003D01*
X161445435Y-106297000D01*
X161445444Y-106297000D01*
X161482767Y-106300676D01*
X161520090Y-106297000D01*
X164456822Y-106297000D01*
X164581525Y-106483632D01*
X164788368Y-106690475D01*
X164970534Y-106812195D01*
X164853645Y-106881822D01*
X164637412Y-107076731D01*
X164463359Y-107310080D01*
X164338175Y-107572901D01*
X164293524Y-107720110D01*
X164414845Y-107950000D01*
X165608000Y-107950000D01*
X165608000Y-107930000D01*
X165862000Y-107930000D01*
X165862000Y-107950000D01*
X167055155Y-107950000D01*
X167176476Y-107720110D01*
X167131825Y-107572901D01*
X167006641Y-107310080D01*
X166832588Y-107076731D01*
X166616355Y-106881822D01*
X166499466Y-106812195D01*
X166681632Y-106690475D01*
X166888475Y-106483632D01*
X167050990Y-106240411D01*
X167162932Y-105970158D01*
X167220000Y-105683260D01*
X167220000Y-105390740D01*
X167162932Y-105103842D01*
X167050990Y-104833589D01*
X166888475Y-104590368D01*
X166681632Y-104383525D01*
X166507240Y-104267000D01*
X166681632Y-104150475D01*
X166888475Y-103943632D01*
X167050990Y-103700411D01*
X167162932Y-103430158D01*
X167220000Y-103143260D01*
X167220000Y-102850740D01*
X167162932Y-102563842D01*
X167050990Y-102293589D01*
X166888475Y-102050368D01*
X166681632Y-101843525D01*
X166663996Y-101831741D01*
X166656001Y-101821999D01*
X166540276Y-101727026D01*
X166521901Y-101717204D01*
X166681632Y-101610475D01*
X166888475Y-101403632D01*
X167050990Y-101160411D01*
X167162932Y-100890158D01*
X167220000Y-100603260D01*
X167220000Y-100310740D01*
X167162932Y-100023842D01*
X167050990Y-99753589D01*
X166888475Y-99510368D01*
X166681632Y-99303525D01*
X166507240Y-99187000D01*
X166681632Y-99070475D01*
X166888475Y-98863632D01*
X167050990Y-98620411D01*
X167162932Y-98350158D01*
X167220000Y-98063260D01*
X167220000Y-97770740D01*
X167162932Y-97483842D01*
X167050990Y-97213589D01*
X166888475Y-96970368D01*
X166756620Y-96838513D01*
X166829180Y-96816502D01*
X166939494Y-96757537D01*
X167036185Y-96678185D01*
X167115537Y-96581494D01*
X167174502Y-96471180D01*
X167210812Y-96351482D01*
X167223072Y-96227000D01*
X167223072Y-94527000D01*
X167210812Y-94402518D01*
X167174502Y-94282820D01*
X167115537Y-94172506D01*
X167036185Y-94075815D01*
X166939494Y-93996463D01*
X166829180Y-93937498D01*
X166709482Y-93901188D01*
X166585000Y-93888928D01*
X164885000Y-93888928D01*
X164760518Y-93901188D01*
X164640820Y-93937498D01*
X164530506Y-93996463D01*
X164433815Y-94075815D01*
X164354463Y-94172506D01*
X164295498Y-94282820D01*
X164259188Y-94402518D01*
X164246928Y-94527000D01*
X164246928Y-96227000D01*
X164259188Y-96351482D01*
X164295498Y-96471180D01*
X164354463Y-96581494D01*
X164433815Y-96678185D01*
X164530506Y-96757537D01*
X164640820Y-96816502D01*
X164713380Y-96838513D01*
X164581525Y-96970368D01*
X164456822Y-97157000D01*
X156086800Y-97157000D01*
X155625872Y-96696072D01*
X156970000Y-96696072D01*
X157123745Y-96680929D01*
X157271582Y-96636084D01*
X157407829Y-96563258D01*
X157527251Y-96465251D01*
X157625258Y-96345829D01*
X157698084Y-96209582D01*
X157742929Y-96061745D01*
X157758072Y-95908000D01*
X157758072Y-95608000D01*
X157742929Y-95454255D01*
X157698084Y-95306418D01*
X157625258Y-95170171D01*
X157586546Y-95123000D01*
X157625258Y-95075829D01*
X157698084Y-94939582D01*
X157742929Y-94791745D01*
X157758072Y-94638000D01*
X157758072Y-94338000D01*
X157742929Y-94184255D01*
X157698084Y-94036418D01*
X157666859Y-93978000D01*
X157950678Y-93978000D01*
X157988000Y-93981676D01*
X158025322Y-93978000D01*
X158025333Y-93978000D01*
X158136986Y-93967003D01*
X158280247Y-93923546D01*
X158412276Y-93852974D01*
X158528001Y-93758001D01*
X158551804Y-93728997D01*
X159702730Y-92578072D01*
X160241000Y-92578072D01*
X160414254Y-92561008D01*
X160580850Y-92510472D01*
X160734386Y-92428405D01*
X160868962Y-92317962D01*
X160979405Y-92183386D01*
X161061472Y-92029850D01*
X161112008Y-91863254D01*
X161129072Y-91690000D01*
X161129072Y-91190000D01*
X161125641Y-91155161D01*
X163255802Y-89025000D01*
X164456822Y-89025000D01*
X164581525Y-89211632D01*
X164713380Y-89343487D01*
X164640820Y-89365498D01*
X164530506Y-89424463D01*
X164433815Y-89503815D01*
X164354463Y-89600506D01*
X164295498Y-89710820D01*
X164259188Y-89830518D01*
X164246928Y-89955000D01*
X164246928Y-91655000D01*
X164259188Y-91779482D01*
X164295498Y-91899180D01*
X164354463Y-92009494D01*
X164433815Y-92106185D01*
X164530506Y-92185537D01*
X164640820Y-92244502D01*
X164760518Y-92280812D01*
X164885000Y-92293072D01*
X166585000Y-92293072D01*
X166709482Y-92280812D01*
X166829180Y-92244502D01*
X166939494Y-92185537D01*
X167036185Y-92106185D01*
X167115537Y-92009494D01*
X167174502Y-91899180D01*
X167210812Y-91779482D01*
X167223072Y-91655000D01*
X167223072Y-89955000D01*
X167210812Y-89830518D01*
X167174502Y-89710820D01*
X167115537Y-89600506D01*
X167036185Y-89503815D01*
X166939494Y-89424463D01*
X166829180Y-89365498D01*
X166756620Y-89343487D01*
X166888475Y-89211632D01*
X167050990Y-88968411D01*
X167162932Y-88698158D01*
X167220000Y-88411260D01*
X167220000Y-88118740D01*
X167162932Y-87831842D01*
X167050990Y-87561589D01*
X166888475Y-87318368D01*
X166681632Y-87111525D01*
X166499466Y-86989805D01*
X166616355Y-86920178D01*
X166832588Y-86725269D01*
X167006641Y-86491920D01*
X167131825Y-86229099D01*
X167176476Y-86081890D01*
X167055155Y-85852000D01*
X165862000Y-85852000D01*
X165862000Y-85872000D01*
X165608000Y-85872000D01*
X165608000Y-85852000D01*
X164414845Y-85852000D01*
X164293524Y-86081890D01*
X164338175Y-86229099D01*
X164463359Y-86491920D01*
X164637412Y-86725269D01*
X164853645Y-86920178D01*
X164970534Y-86989805D01*
X164788368Y-87111525D01*
X164581525Y-87318368D01*
X164456822Y-87505000D01*
X162978322Y-87505000D01*
X162940999Y-87501324D01*
X162903676Y-87505000D01*
X162903667Y-87505000D01*
X162792014Y-87515997D01*
X162648753Y-87559454D01*
X162516723Y-87630026D01*
X162448714Y-87685840D01*
X162400999Y-87724999D01*
X162377201Y-87753997D01*
X161089303Y-89041896D01*
X161061472Y-88950150D01*
X160979405Y-88796614D01*
X160868962Y-88662038D01*
X160781793Y-88590501D01*
X160801000Y-88493939D01*
X160801000Y-88290061D01*
X160761226Y-88090102D01*
X160683205Y-87901744D01*
X160569937Y-87732226D01*
X160425774Y-87588063D01*
X160256256Y-87474795D01*
X160067898Y-87396774D01*
X159867939Y-87357000D01*
X159664061Y-87357000D01*
X159464102Y-87396774D01*
X159275744Y-87474795D01*
X159106226Y-87588063D01*
X158962063Y-87732226D01*
X158848795Y-87901744D01*
X158770774Y-88090102D01*
X158748000Y-88204596D01*
X158748000Y-85889325D01*
X158751676Y-85852000D01*
X158748000Y-85814675D01*
X158748000Y-85814667D01*
X158737003Y-85703014D01*
X158693546Y-85559753D01*
X158622974Y-85427724D01*
X158574051Y-85368110D01*
X164293524Y-85368110D01*
X164414845Y-85598000D01*
X165608000Y-85598000D01*
X165608000Y-84404186D01*
X165862000Y-84404186D01*
X165862000Y-85598000D01*
X167055155Y-85598000D01*
X167176476Y-85368110D01*
X167131825Y-85220901D01*
X167006641Y-84958080D01*
X166832588Y-84724731D01*
X166616355Y-84529822D01*
X166366252Y-84380843D01*
X166091891Y-84283519D01*
X165862000Y-84404186D01*
X165608000Y-84404186D01*
X165378109Y-84283519D01*
X165103748Y-84380843D01*
X164853645Y-84529822D01*
X164637412Y-84724731D01*
X164463359Y-84958080D01*
X164338175Y-85220901D01*
X164293524Y-85368110D01*
X158574051Y-85368110D01*
X158528001Y-85311999D01*
X158499002Y-85288201D01*
X157986000Y-84775199D01*
X157986000Y-82558178D01*
X158172632Y-82433475D01*
X158379475Y-82226632D01*
X158496000Y-82052240D01*
X158612525Y-82226632D01*
X158819368Y-82433475D01*
X159062589Y-82595990D01*
X159332842Y-82707932D01*
X159619740Y-82765000D01*
X159912260Y-82765000D01*
X160199158Y-82707932D01*
X160469411Y-82595990D01*
X160712632Y-82433475D01*
X160919475Y-82226632D01*
X161081990Y-81983411D01*
X161193932Y-81713158D01*
X161251000Y-81426260D01*
X161251000Y-81133740D01*
X161193932Y-80846842D01*
X161081990Y-80576589D01*
X160919475Y-80333368D01*
X160756979Y-80170872D01*
X164643000Y-80170872D01*
X164643000Y-80611128D01*
X164728890Y-81042925D01*
X164897369Y-81449669D01*
X165141962Y-81815729D01*
X165453271Y-82127038D01*
X165819331Y-82371631D01*
X166226075Y-82540110D01*
X166657872Y-82626000D01*
X167098128Y-82626000D01*
X167529925Y-82540110D01*
X167936669Y-82371631D01*
X168302729Y-82127038D01*
X168614038Y-81815729D01*
X168858631Y-81449669D01*
X169027110Y-81042925D01*
X169113000Y-80611128D01*
X169113000Y-80170872D01*
X169027110Y-79739075D01*
X168858631Y-79332331D01*
X168614038Y-78966271D01*
X168302729Y-78654962D01*
X167936669Y-78410369D01*
X167529925Y-78241890D01*
X167098128Y-78156000D01*
X166657872Y-78156000D01*
X166226075Y-78241890D01*
X165819331Y-78410369D01*
X165453271Y-78654962D01*
X165141962Y-78966271D01*
X164897369Y-79332331D01*
X164728890Y-79739075D01*
X164643000Y-80170872D01*
X160756979Y-80170872D01*
X160712632Y-80126525D01*
X160469411Y-79964010D01*
X160199158Y-79852068D01*
X159912260Y-79795000D01*
X159619740Y-79795000D01*
X159332842Y-79852068D01*
X159062589Y-79964010D01*
X158819368Y-80126525D01*
X158612525Y-80333368D01*
X158496000Y-80507760D01*
X158379475Y-80333368D01*
X158172632Y-80126525D01*
X157929411Y-79964010D01*
X157659158Y-79852068D01*
X157372260Y-79795000D01*
X157079740Y-79795000D01*
X156792842Y-79852068D01*
X156522589Y-79964010D01*
X156279368Y-80126525D01*
X156072525Y-80333368D01*
X155956000Y-80507760D01*
X155839475Y-80333368D01*
X155632632Y-80126525D01*
X155389411Y-79964010D01*
X155119158Y-79852068D01*
X154832260Y-79795000D01*
X154539740Y-79795000D01*
X154252842Y-79852068D01*
X153982589Y-79964010D01*
X153739368Y-80126525D01*
X153532525Y-80333368D01*
X153416000Y-80507760D01*
X153299475Y-80333368D01*
X153092632Y-80126525D01*
X152849411Y-79964010D01*
X152579158Y-79852068D01*
X152292260Y-79795000D01*
X151999740Y-79795000D01*
X151712842Y-79852068D01*
X151442589Y-79964010D01*
X151199368Y-80126525D01*
X150992525Y-80333368D01*
X150870805Y-80515534D01*
X150801178Y-80398645D01*
X150606269Y-80182412D01*
X150372920Y-80008359D01*
X150110099Y-79883175D01*
X149962890Y-79838524D01*
X149733000Y-79959845D01*
X149733000Y-81153000D01*
X149753000Y-81153000D01*
X149753000Y-81407000D01*
X149733000Y-81407000D01*
X149733000Y-82600155D01*
X149962890Y-82721476D01*
X150110099Y-82676825D01*
X150372920Y-82551641D01*
X150606269Y-82377588D01*
X150801178Y-82161355D01*
X150870805Y-82044466D01*
X150992525Y-82226632D01*
X151007001Y-82241108D01*
X151007000Y-83295024D01*
X150923614Y-83339595D01*
X150789038Y-83450038D01*
X150678595Y-83584614D01*
X150596528Y-83738150D01*
X150545992Y-83904746D01*
X150528928Y-84078000D01*
X150528928Y-84578000D01*
X150545992Y-84751254D01*
X150596528Y-84917850D01*
X150678595Y-85071386D01*
X150789038Y-85205962D01*
X150795594Y-85211342D01*
X150715815Y-85276815D01*
X150636463Y-85373506D01*
X150577498Y-85483820D01*
X150541188Y-85603518D01*
X150528928Y-85728000D01*
X150532000Y-85942250D01*
X150690750Y-86101000D01*
X151765000Y-86101000D01*
X151765000Y-86081000D01*
X152019000Y-86081000D01*
X152019000Y-86101000D01*
X152039000Y-86101000D01*
X152039000Y-86355000D01*
X152019000Y-86355000D01*
X152019000Y-86375000D01*
X151765000Y-86375000D01*
X151765000Y-86355000D01*
X150690750Y-86355000D01*
X150532000Y-86513750D01*
X150528928Y-86728000D01*
X150541188Y-86852482D01*
X150577498Y-86972180D01*
X150636463Y-87082494D01*
X150715815Y-87179185D01*
X150743936Y-87202263D01*
X150220000Y-87199928D01*
X150095518Y-87212188D01*
X149975820Y-87248498D01*
X149865506Y-87307463D01*
X149768815Y-87386815D01*
X149689463Y-87483506D01*
X149630498Y-87593820D01*
X149594188Y-87713518D01*
X149581928Y-87838000D01*
X149585000Y-87852250D01*
X149743750Y-88011000D01*
X151068000Y-88011000D01*
X151068000Y-87991000D01*
X151322000Y-87991000D01*
X151322000Y-88011000D01*
X152646250Y-88011000D01*
X152805000Y-87852250D01*
X152808072Y-87838000D01*
X152795812Y-87713518D01*
X152759502Y-87593820D01*
X152700537Y-87483506D01*
X152621185Y-87386815D01*
X152595728Y-87365923D01*
X152617000Y-87366072D01*
X152741482Y-87353812D01*
X152861180Y-87317502D01*
X152910000Y-87291407D01*
X152910000Y-88403644D01*
X152755939Y-88373000D01*
X152754250Y-88373000D01*
X152646250Y-88265000D01*
X151322000Y-88265000D01*
X151322000Y-88285000D01*
X151068000Y-88285000D01*
X151068000Y-88265000D01*
X149743750Y-88265000D01*
X149585000Y-88423750D01*
X149581928Y-88438000D01*
X149594188Y-88562482D01*
X149630498Y-88682180D01*
X149689463Y-88792494D01*
X149713730Y-88822064D01*
X149641916Y-88956418D01*
X149597071Y-89104255D01*
X149581928Y-89258000D01*
X149581928Y-89558000D01*
X149597071Y-89711745D01*
X149641916Y-89859582D01*
X149714742Y-89995829D01*
X149753454Y-90043000D01*
X149714742Y-90090171D01*
X149641916Y-90226418D01*
X149625928Y-90279126D01*
X148033000Y-88686199D01*
X148033000Y-85513030D01*
X148110137Y-85449724D01*
X148134315Y-85479185D01*
X148231006Y-85558537D01*
X148341320Y-85617502D01*
X148461018Y-85653812D01*
X148585500Y-85666072D01*
X148812250Y-85663000D01*
X148971000Y-85504250D01*
X148971000Y-84455000D01*
X149225000Y-84455000D01*
X149225000Y-85504250D01*
X149383750Y-85663000D01*
X149610500Y-85666072D01*
X149734982Y-85653812D01*
X149854680Y-85617502D01*
X149964994Y-85558537D01*
X150061685Y-85479185D01*
X150141037Y-85382494D01*
X150200002Y-85272180D01*
X150236312Y-85152482D01*
X150248572Y-85028000D01*
X150245500Y-84613750D01*
X150086750Y-84455000D01*
X149225000Y-84455000D01*
X148971000Y-84455000D01*
X148951000Y-84455000D01*
X148951000Y-84201000D01*
X148971000Y-84201000D01*
X148971000Y-83151750D01*
X149225000Y-83151750D01*
X149225000Y-84201000D01*
X150086750Y-84201000D01*
X150245500Y-84042250D01*
X150248572Y-83628000D01*
X150236312Y-83503518D01*
X150200002Y-83383820D01*
X150141037Y-83273506D01*
X150061685Y-83176815D01*
X149964994Y-83097463D01*
X149854680Y-83038498D01*
X149734982Y-83002188D01*
X149610500Y-82989928D01*
X149383750Y-82993000D01*
X149225000Y-83151750D01*
X148971000Y-83151750D01*
X148812250Y-82993000D01*
X148585500Y-82989928D01*
X148461018Y-83002188D01*
X148341320Y-83038498D01*
X148231006Y-83097463D01*
X148134315Y-83176815D01*
X148110137Y-83206276D01*
X148028887Y-83139595D01*
X147875351Y-83057528D01*
X147826000Y-83042558D01*
X147826000Y-82768072D01*
X147916000Y-82768072D01*
X148040482Y-82755812D01*
X148160180Y-82719502D01*
X148270494Y-82660537D01*
X148367185Y-82581185D01*
X148446537Y-82484494D01*
X148505502Y-82374180D01*
X148529966Y-82293534D01*
X148605731Y-82377588D01*
X148839080Y-82551641D01*
X149101901Y-82676825D01*
X149249110Y-82721476D01*
X149479000Y-82600155D01*
X149479000Y-81407000D01*
X149459000Y-81407000D01*
X149459000Y-81153000D01*
X149479000Y-81153000D01*
X149479000Y-79959845D01*
X149249110Y-79838524D01*
X149101901Y-79883175D01*
X148839080Y-80008359D01*
X148605731Y-80182412D01*
X148529966Y-80266466D01*
X148505502Y-80185820D01*
X148446537Y-80075506D01*
X148367185Y-79978815D01*
X148270494Y-79899463D01*
X148160180Y-79840498D01*
X148040482Y-79804188D01*
X147916000Y-79791928D01*
X146216000Y-79791928D01*
X146091518Y-79804188D01*
X145971820Y-79840498D01*
X145861506Y-79899463D01*
X145764815Y-79978815D01*
X145685463Y-80075506D01*
X145626498Y-80185820D01*
X145590188Y-80305518D01*
X145577928Y-80430000D01*
X145577928Y-82130000D01*
X145590188Y-82254482D01*
X145626498Y-82374180D01*
X145685463Y-82484494D01*
X145764815Y-82581185D01*
X145861506Y-82660537D01*
X145971820Y-82719502D01*
X146091518Y-82755812D01*
X146216000Y-82768072D01*
X146306001Y-82768072D01*
X146306001Y-83343299D01*
X146272095Y-83384613D01*
X146190028Y-83538149D01*
X146139492Y-83704745D01*
X146122428Y-83877999D01*
X146122428Y-84778001D01*
X146139492Y-84951255D01*
X146190028Y-85117851D01*
X146272095Y-85271387D01*
X146382538Y-85405962D01*
X146513001Y-85513030D01*
X146513000Y-88963677D01*
X146509324Y-89001000D01*
X146513000Y-89038322D01*
X146513000Y-89038332D01*
X146523997Y-89149985D01*
X146563747Y-89281026D01*
X146567454Y-89293246D01*
X146638026Y-89425276D01*
X146650111Y-89440001D01*
X146732999Y-89541001D01*
X146762003Y-89564804D01*
X149656201Y-92459003D01*
X149679999Y-92488001D01*
X149696350Y-92501420D01*
X149714742Y-92535829D01*
X149753454Y-92583000D01*
X149714742Y-92630171D01*
X149642641Y-92765062D01*
X145307500Y-88429922D01*
X145307500Y-88204445D01*
X145312962Y-88199962D01*
X145423405Y-88065387D01*
X145505472Y-87911851D01*
X145556008Y-87745255D01*
X145573072Y-87572001D01*
X145573072Y-86671999D01*
X145556008Y-86498745D01*
X145505472Y-86332149D01*
X145423405Y-86178613D01*
X145312962Y-86044038D01*
X145307500Y-86039555D01*
X145307500Y-85918445D01*
X145312962Y-85913962D01*
X145423405Y-85779387D01*
X145505472Y-85625851D01*
X145556008Y-85459255D01*
X145573072Y-85286001D01*
X145573072Y-84385999D01*
X145556008Y-84212745D01*
X145505472Y-84046149D01*
X145423405Y-83892613D01*
X145312962Y-83758038D01*
X145178387Y-83647595D01*
X145024851Y-83565528D01*
X144858255Y-83514992D01*
X144685001Y-83497928D01*
X144399000Y-83497928D01*
X144399000Y-77647000D01*
X169711000Y-77647000D01*
X169711001Y-116277000D01*
G04 #@! TA.AperFunction,Conductor*
D24*
G36*
X169711001Y-116277000D02*
G01*
X144399000Y-116277000D01*
X144399000Y-109911355D01*
X148355428Y-105954928D01*
X148355428Y-108472000D01*
X148367688Y-108596482D01*
X148403998Y-108716180D01*
X148462963Y-108826494D01*
X148542315Y-108923185D01*
X148639006Y-109002537D01*
X148749320Y-109061502D01*
X148850001Y-109092043D01*
X148850001Y-109500372D01*
X148825000Y-109626061D01*
X148825000Y-109829939D01*
X148850001Y-109955628D01*
X148850000Y-111047607D01*
X148850001Y-111047617D01*
X148850001Y-111818962D01*
X148765820Y-111844498D01*
X148655506Y-111903463D01*
X148558815Y-111982815D01*
X148479463Y-112079506D01*
X148420498Y-112189820D01*
X148398487Y-112262380D01*
X148266632Y-112130525D01*
X148023411Y-111968010D01*
X147753158Y-111856068D01*
X147466260Y-111799000D01*
X147173740Y-111799000D01*
X146886842Y-111856068D01*
X146616589Y-111968010D01*
X146373368Y-112130525D01*
X146166525Y-112337368D01*
X146004010Y-112580589D01*
X145892068Y-112850842D01*
X145835000Y-113137740D01*
X145835000Y-113430260D01*
X145892068Y-113717158D01*
X146004010Y-113987411D01*
X146166525Y-114230632D01*
X146373368Y-114437475D01*
X146616589Y-114599990D01*
X146886842Y-114711932D01*
X147173740Y-114769000D01*
X147466260Y-114769000D01*
X147753158Y-114711932D01*
X148023411Y-114599990D01*
X148266632Y-114437475D01*
X148398487Y-114305620D01*
X148420498Y-114378180D01*
X148479463Y-114488494D01*
X148558815Y-114585185D01*
X148655506Y-114664537D01*
X148765820Y-114723502D01*
X148885518Y-114759812D01*
X149010000Y-114772072D01*
X150710000Y-114772072D01*
X150834482Y-114759812D01*
X150954180Y-114723502D01*
X151064494Y-114664537D01*
X151161185Y-114585185D01*
X151240537Y-114488494D01*
X151299502Y-114378180D01*
X151335812Y-114258482D01*
X151348072Y-114134000D01*
X151348072Y-113317872D01*
X164643000Y-113317872D01*
X164643000Y-113758128D01*
X164728890Y-114189925D01*
X164897369Y-114596669D01*
X165141962Y-114962729D01*
X165453271Y-115274038D01*
X165819331Y-115518631D01*
X166226075Y-115687110D01*
X166657872Y-115773000D01*
X167098128Y-115773000D01*
X167529925Y-115687110D01*
X167936669Y-115518631D01*
X168302729Y-115274038D01*
X168614038Y-114962729D01*
X168858631Y-114596669D01*
X169027110Y-114189925D01*
X169113000Y-113758128D01*
X169113000Y-113317872D01*
X169027110Y-112886075D01*
X168858631Y-112479331D01*
X168614038Y-112113271D01*
X168302729Y-111801962D01*
X167936669Y-111557369D01*
X167529925Y-111388890D01*
X167098128Y-111303000D01*
X166657872Y-111303000D01*
X166226075Y-111388890D01*
X165819331Y-111557369D01*
X165453271Y-111801962D01*
X165141962Y-112113271D01*
X164897369Y-112479331D01*
X164728890Y-112886075D01*
X164643000Y-113317872D01*
X151348072Y-113317872D01*
X151348072Y-112434000D01*
X151335812Y-112309518D01*
X151299502Y-112189820D01*
X151240537Y-112079506D01*
X151161185Y-111982815D01*
X151064494Y-111903463D01*
X150954180Y-111844498D01*
X150870000Y-111818962D01*
X150870000Y-111425500D01*
X153772155Y-111425500D01*
X153860208Y-111532792D01*
X153993836Y-111642458D01*
X154146291Y-111723947D01*
X154311715Y-111774128D01*
X154483750Y-111791072D01*
X155396250Y-111791072D01*
X155568285Y-111774128D01*
X155733709Y-111723947D01*
X155886164Y-111642458D01*
X156019792Y-111532792D01*
X156129458Y-111399164D01*
X156157340Y-111347000D01*
X156820155Y-111347000D01*
X156908208Y-111454292D01*
X157041836Y-111563958D01*
X157194291Y-111645447D01*
X157359715Y-111695628D01*
X157531750Y-111712572D01*
X158444250Y-111712572D01*
X158616285Y-111695628D01*
X158781709Y-111645447D01*
X158934164Y-111563958D01*
X159067792Y-111454292D01*
X159177458Y-111320664D01*
X159243597Y-111196927D01*
X159257528Y-111242851D01*
X159339595Y-111396387D01*
X159450038Y-111530962D01*
X159584613Y-111641405D01*
X159738149Y-111723472D01*
X159904745Y-111774008D01*
X160077999Y-111791072D01*
X160978001Y-111791072D01*
X161151255Y-111774008D01*
X161317851Y-111723472D01*
X161471387Y-111641405D01*
X161605962Y-111530962D01*
X161713030Y-111400500D01*
X161805709Y-111400500D01*
X161815744Y-111407205D01*
X162004102Y-111485226D01*
X162204061Y-111525000D01*
X162407939Y-111525000D01*
X162607898Y-111485226D01*
X162796256Y-111407205D01*
X162965774Y-111293937D01*
X163109937Y-111149774D01*
X163223205Y-110980256D01*
X163301226Y-110791898D01*
X163341000Y-110591939D01*
X163341000Y-110388061D01*
X163301226Y-110188102D01*
X163223205Y-109999744D01*
X163109937Y-109830226D01*
X162965774Y-109686063D01*
X162796256Y-109572795D01*
X162607898Y-109494774D01*
X162407939Y-109455000D01*
X162204061Y-109455000D01*
X162004102Y-109494774D01*
X161815744Y-109572795D01*
X161646226Y-109686063D01*
X161592939Y-109739350D01*
X161579109Y-109728000D01*
X161605962Y-109705962D01*
X161716405Y-109571387D01*
X161798472Y-109417851D01*
X161849008Y-109251255D01*
X161866072Y-109078001D01*
X161866072Y-108552999D01*
X161854341Y-108433890D01*
X164293524Y-108433890D01*
X164338175Y-108581099D01*
X164463359Y-108843920D01*
X164637412Y-109077269D01*
X164853645Y-109272178D01*
X165103748Y-109421157D01*
X165378109Y-109518481D01*
X165608000Y-109397814D01*
X165608000Y-108204000D01*
X165862000Y-108204000D01*
X165862000Y-109397814D01*
X166091891Y-109518481D01*
X166366252Y-109421157D01*
X166616355Y-109272178D01*
X166832588Y-109077269D01*
X167006641Y-108843920D01*
X167131825Y-108581099D01*
X167176476Y-108433890D01*
X167055155Y-108204000D01*
X165862000Y-108204000D01*
X165608000Y-108204000D01*
X164414845Y-108204000D01*
X164293524Y-108433890D01*
X161854341Y-108433890D01*
X161849008Y-108379745D01*
X161798472Y-108213149D01*
X161716405Y-108059613D01*
X161605962Y-107925038D01*
X161471387Y-107814595D01*
X161317851Y-107732528D01*
X161151255Y-107681992D01*
X160978001Y-107664928D01*
X160077999Y-107664928D01*
X159904745Y-107681992D01*
X159738149Y-107732528D01*
X159584613Y-107814595D01*
X159450038Y-107925038D01*
X159342970Y-108055500D01*
X159218703Y-108055500D01*
X159177458Y-107978336D01*
X159067792Y-107844708D01*
X158934164Y-107735042D01*
X158781709Y-107653553D01*
X158616285Y-107603372D01*
X158444250Y-107586428D01*
X157531750Y-107586428D01*
X157359715Y-107603372D01*
X157194291Y-107653553D01*
X157102898Y-107702403D01*
X157379503Y-107425799D01*
X157408501Y-107402001D01*
X157503474Y-107286276D01*
X157574046Y-107154247D01*
X157617503Y-107010986D01*
X157628500Y-106899333D01*
X157628500Y-106899323D01*
X157632176Y-106862000D01*
X157628500Y-106824677D01*
X157628500Y-105833030D01*
X157758962Y-105725962D01*
X157869405Y-105591387D01*
X157951472Y-105437851D01*
X158002008Y-105271255D01*
X158019072Y-105098001D01*
X158019072Y-104197999D01*
X158002008Y-104024745D01*
X157951472Y-103858149D01*
X157869405Y-103704613D01*
X157758962Y-103570038D01*
X157624387Y-103459595D01*
X157470851Y-103377528D01*
X157304255Y-103326992D01*
X157131001Y-103309928D01*
X156605999Y-103309928D01*
X156432745Y-103326992D01*
X156266149Y-103377528D01*
X156112613Y-103459595D01*
X156031363Y-103526276D01*
X156007185Y-103496815D01*
X155910494Y-103417463D01*
X155800180Y-103358498D01*
X155680482Y-103322188D01*
X155556000Y-103309928D01*
X155329250Y-103313000D01*
X155170500Y-103471750D01*
X155170500Y-104521000D01*
X155190500Y-104521000D01*
X155190500Y-104775000D01*
X155170500Y-104775000D01*
X155170500Y-105824250D01*
X155329250Y-105983000D01*
X155556000Y-105986072D01*
X155680482Y-105973812D01*
X155800180Y-105937502D01*
X155910494Y-105878537D01*
X156007185Y-105799185D01*
X156031363Y-105769724D01*
X156108501Y-105833030D01*
X156108501Y-106547197D01*
X154990771Y-107664928D01*
X154483750Y-107664928D01*
X154311715Y-107681872D01*
X154146291Y-107732053D01*
X153993836Y-107813542D01*
X153860208Y-107923208D01*
X153750542Y-108056836D01*
X153669053Y-108209291D01*
X153618872Y-108374715D01*
X153601928Y-108546750D01*
X153601928Y-109034250D01*
X153618872Y-109206285D01*
X153669053Y-109371709D01*
X153750542Y-109524164D01*
X153860208Y-109657792D01*
X153945756Y-109728000D01*
X153860208Y-109798208D01*
X153772155Y-109905500D01*
X150879970Y-109905500D01*
X150895000Y-109829939D01*
X150895000Y-109626061D01*
X150870000Y-109500377D01*
X150870000Y-109092043D01*
X150970680Y-109061502D01*
X151080994Y-109002537D01*
X151177685Y-108923185D01*
X151257037Y-108826494D01*
X151316002Y-108716180D01*
X151352312Y-108596482D01*
X151364572Y-108472000D01*
X151364572Y-105807000D01*
X151487002Y-105807000D01*
X151487002Y-105648252D01*
X151645750Y-105807000D01*
X151810000Y-105810072D01*
X151934482Y-105797812D01*
X152054180Y-105761502D01*
X152164494Y-105702537D01*
X152261185Y-105623185D01*
X152340537Y-105526494D01*
X152399502Y-105416180D01*
X152420184Y-105348000D01*
X153892928Y-105348000D01*
X153905188Y-105472482D01*
X153941498Y-105592180D01*
X154000463Y-105702494D01*
X154079815Y-105799185D01*
X154176506Y-105878537D01*
X154286820Y-105937502D01*
X154406518Y-105973812D01*
X154531000Y-105986072D01*
X154757750Y-105983000D01*
X154916500Y-105824250D01*
X154916500Y-104775000D01*
X154054750Y-104775000D01*
X153896000Y-104933750D01*
X153892928Y-105348000D01*
X152420184Y-105348000D01*
X152435812Y-105296482D01*
X152448072Y-105172000D01*
X152445000Y-104807750D01*
X152286250Y-104649000D01*
X151487000Y-104649000D01*
X151487000Y-104669000D01*
X151233000Y-104669000D01*
X151233000Y-104649000D01*
X151213000Y-104649000D01*
X151213000Y-104395000D01*
X151233000Y-104395000D01*
X151233000Y-103395750D01*
X151487000Y-103395750D01*
X151487000Y-104395000D01*
X152286250Y-104395000D01*
X152445000Y-104236250D01*
X152447431Y-103948000D01*
X153892928Y-103948000D01*
X153896000Y-104362250D01*
X154054750Y-104521000D01*
X154916500Y-104521000D01*
X154916500Y-103471750D01*
X154757750Y-103313000D01*
X154531000Y-103309928D01*
X154406518Y-103322188D01*
X154286820Y-103358498D01*
X154176506Y-103417463D01*
X154079815Y-103496815D01*
X154000463Y-103593506D01*
X153941498Y-103703820D01*
X153905188Y-103823518D01*
X153892928Y-103948000D01*
X152447431Y-103948000D01*
X152448072Y-103872000D01*
X152435812Y-103747518D01*
X152399502Y-103627820D01*
X152340537Y-103517506D01*
X152261185Y-103420815D01*
X152164494Y-103341463D01*
X152054180Y-103282498D01*
X151934482Y-103246188D01*
X151810000Y-103233928D01*
X151645750Y-103237000D01*
X151487000Y-103395750D01*
X151233000Y-103395750D01*
X151232483Y-103395233D01*
X151305632Y-103258380D01*
X151363385Y-103067994D01*
X151378000Y-102919608D01*
X151378000Y-102919606D01*
X151382886Y-102870001D01*
X151382295Y-102864000D01*
X151664377Y-102864000D01*
X151790061Y-102889000D01*
X151993939Y-102889000D01*
X152119623Y-102864000D01*
X152527747Y-102864000D01*
X152604038Y-102956962D01*
X152738614Y-103067405D01*
X152892150Y-103149472D01*
X153058746Y-103200008D01*
X153232000Y-103217072D01*
X153732000Y-103217072D01*
X153905254Y-103200008D01*
X154071850Y-103149472D01*
X154225386Y-103067405D01*
X154359962Y-102956962D01*
X154365342Y-102950406D01*
X154430815Y-103030185D01*
X154527506Y-103109537D01*
X154637820Y-103168502D01*
X154757518Y-103204812D01*
X154882000Y-103217072D01*
X155096250Y-103214000D01*
X155255000Y-103055250D01*
X155255000Y-101981000D01*
X155509000Y-101981000D01*
X155509000Y-103055250D01*
X155667750Y-103214000D01*
X155882000Y-103217072D01*
X156006482Y-103204812D01*
X156126180Y-103168502D01*
X156236494Y-103109537D01*
X156333185Y-103030185D01*
X156412537Y-102933494D01*
X156471502Y-102823180D01*
X156507812Y-102703482D01*
X156520072Y-102579000D01*
X156517000Y-102139750D01*
X156358250Y-101981000D01*
X155509000Y-101981000D01*
X155255000Y-101981000D01*
X155235000Y-101981000D01*
X155235000Y-101727000D01*
X155255000Y-101727000D01*
X155255000Y-101707000D01*
X155509000Y-101707000D01*
X155509000Y-101727000D01*
X156358250Y-101727000D01*
X156478108Y-101607142D01*
X160918969Y-106048003D01*
X160942767Y-106077001D01*
X160971765Y-106100799D01*
X161058491Y-106171974D01*
X161186527Y-106240411D01*
X161190521Y-106242546D01*
X161333782Y-106286003D01*
X161445435Y-106297000D01*
X161445444Y-106297000D01*
X161482767Y-106300676D01*
X161520090Y-106297000D01*
X164456822Y-106297000D01*
X164581525Y-106483632D01*
X164788368Y-106690475D01*
X164970534Y-106812195D01*
X164853645Y-106881822D01*
X164637412Y-107076731D01*
X164463359Y-107310080D01*
X164338175Y-107572901D01*
X164293524Y-107720110D01*
X164414845Y-107950000D01*
X165608000Y-107950000D01*
X165608000Y-107930000D01*
X165862000Y-107930000D01*
X165862000Y-107950000D01*
X167055155Y-107950000D01*
X167176476Y-107720110D01*
X167131825Y-107572901D01*
X167006641Y-107310080D01*
X166832588Y-107076731D01*
X166616355Y-106881822D01*
X166499466Y-106812195D01*
X166681632Y-106690475D01*
X166888475Y-106483632D01*
X167050990Y-106240411D01*
X167162932Y-105970158D01*
X167220000Y-105683260D01*
X167220000Y-105390740D01*
X167162932Y-105103842D01*
X167050990Y-104833589D01*
X166888475Y-104590368D01*
X166681632Y-104383525D01*
X166507240Y-104267000D01*
X166681632Y-104150475D01*
X166888475Y-103943632D01*
X167050990Y-103700411D01*
X167162932Y-103430158D01*
X167220000Y-103143260D01*
X167220000Y-102850740D01*
X167162932Y-102563842D01*
X167050990Y-102293589D01*
X166888475Y-102050368D01*
X166681632Y-101843525D01*
X166663996Y-101831741D01*
X166656001Y-101821999D01*
X166540276Y-101727026D01*
X166521901Y-101717204D01*
X166681632Y-101610475D01*
X166888475Y-101403632D01*
X167050990Y-101160411D01*
X167162932Y-100890158D01*
X167220000Y-100603260D01*
X167220000Y-100310740D01*
X167162932Y-100023842D01*
X167050990Y-99753589D01*
X166888475Y-99510368D01*
X166681632Y-99303525D01*
X166507240Y-99187000D01*
X166681632Y-99070475D01*
X166888475Y-98863632D01*
X167050990Y-98620411D01*
X167162932Y-98350158D01*
X167220000Y-98063260D01*
X167220000Y-97770740D01*
X167162932Y-97483842D01*
X167050990Y-97213589D01*
X166888475Y-96970368D01*
X166756620Y-96838513D01*
X166829180Y-96816502D01*
X166939494Y-96757537D01*
X167036185Y-96678185D01*
X167115537Y-96581494D01*
X167174502Y-96471180D01*
X167210812Y-96351482D01*
X167223072Y-96227000D01*
X167223072Y-94527000D01*
X167210812Y-94402518D01*
X167174502Y-94282820D01*
X167115537Y-94172506D01*
X167036185Y-94075815D01*
X166939494Y-93996463D01*
X166829180Y-93937498D01*
X166709482Y-93901188D01*
X166585000Y-93888928D01*
X164885000Y-93888928D01*
X164760518Y-93901188D01*
X164640820Y-93937498D01*
X164530506Y-93996463D01*
X164433815Y-94075815D01*
X164354463Y-94172506D01*
X164295498Y-94282820D01*
X164259188Y-94402518D01*
X164246928Y-94527000D01*
X164246928Y-96227000D01*
X164259188Y-96351482D01*
X164295498Y-96471180D01*
X164354463Y-96581494D01*
X164433815Y-96678185D01*
X164530506Y-96757537D01*
X164640820Y-96816502D01*
X164713380Y-96838513D01*
X164581525Y-96970368D01*
X164456822Y-97157000D01*
X156086800Y-97157000D01*
X155625872Y-96696072D01*
X156970000Y-96696072D01*
X157123745Y-96680929D01*
X157271582Y-96636084D01*
X157407829Y-96563258D01*
X157527251Y-96465251D01*
X157625258Y-96345829D01*
X157698084Y-96209582D01*
X157742929Y-96061745D01*
X157758072Y-95908000D01*
X157758072Y-95608000D01*
X157742929Y-95454255D01*
X157698084Y-95306418D01*
X157625258Y-95170171D01*
X157586546Y-95123000D01*
X157625258Y-95075829D01*
X157698084Y-94939582D01*
X157742929Y-94791745D01*
X157758072Y-94638000D01*
X157758072Y-94338000D01*
X157742929Y-94184255D01*
X157698084Y-94036418D01*
X157666859Y-93978000D01*
X157950678Y-93978000D01*
X157988000Y-93981676D01*
X158025322Y-93978000D01*
X158025333Y-93978000D01*
X158136986Y-93967003D01*
X158280247Y-93923546D01*
X158412276Y-93852974D01*
X158528001Y-93758001D01*
X158551804Y-93728997D01*
X159702730Y-92578072D01*
X160241000Y-92578072D01*
X160414254Y-92561008D01*
X160580850Y-92510472D01*
X160734386Y-92428405D01*
X160868962Y-92317962D01*
X160979405Y-92183386D01*
X161061472Y-92029850D01*
X161112008Y-91863254D01*
X161129072Y-91690000D01*
X161129072Y-91190000D01*
X161125641Y-91155161D01*
X163255802Y-89025000D01*
X164456822Y-89025000D01*
X164581525Y-89211632D01*
X164713380Y-89343487D01*
X164640820Y-89365498D01*
X164530506Y-89424463D01*
X164433815Y-89503815D01*
X164354463Y-89600506D01*
X164295498Y-89710820D01*
X164259188Y-89830518D01*
X164246928Y-89955000D01*
X164246928Y-91655000D01*
X164259188Y-91779482D01*
X164295498Y-91899180D01*
X164354463Y-92009494D01*
X164433815Y-92106185D01*
X164530506Y-92185537D01*
X164640820Y-92244502D01*
X164760518Y-92280812D01*
X164885000Y-92293072D01*
X166585000Y-92293072D01*
X166709482Y-92280812D01*
X166829180Y-92244502D01*
X166939494Y-92185537D01*
X167036185Y-92106185D01*
X167115537Y-92009494D01*
X167174502Y-91899180D01*
X167210812Y-91779482D01*
X167223072Y-91655000D01*
X167223072Y-89955000D01*
X167210812Y-89830518D01*
X167174502Y-89710820D01*
X167115537Y-89600506D01*
X167036185Y-89503815D01*
X166939494Y-89424463D01*
X166829180Y-89365498D01*
X166756620Y-89343487D01*
X166888475Y-89211632D01*
X167050990Y-88968411D01*
X167162932Y-88698158D01*
X167220000Y-88411260D01*
X167220000Y-88118740D01*
X167162932Y-87831842D01*
X167050990Y-87561589D01*
X166888475Y-87318368D01*
X166681632Y-87111525D01*
X166499466Y-86989805D01*
X166616355Y-86920178D01*
X166832588Y-86725269D01*
X167006641Y-86491920D01*
X167131825Y-86229099D01*
X167176476Y-86081890D01*
X167055155Y-85852000D01*
X165862000Y-85852000D01*
X165862000Y-85872000D01*
X165608000Y-85872000D01*
X165608000Y-85852000D01*
X164414845Y-85852000D01*
X164293524Y-86081890D01*
X164338175Y-86229099D01*
X164463359Y-86491920D01*
X164637412Y-86725269D01*
X164853645Y-86920178D01*
X164970534Y-86989805D01*
X164788368Y-87111525D01*
X164581525Y-87318368D01*
X164456822Y-87505000D01*
X162978322Y-87505000D01*
X162940999Y-87501324D01*
X162903676Y-87505000D01*
X162903667Y-87505000D01*
X162792014Y-87515997D01*
X162648753Y-87559454D01*
X162516723Y-87630026D01*
X162448714Y-87685840D01*
X162400999Y-87724999D01*
X162377201Y-87753997D01*
X161089303Y-89041896D01*
X161061472Y-88950150D01*
X160979405Y-88796614D01*
X160868962Y-88662038D01*
X160781793Y-88590501D01*
X160801000Y-88493939D01*
X160801000Y-88290061D01*
X160761226Y-88090102D01*
X160683205Y-87901744D01*
X160569937Y-87732226D01*
X160425774Y-87588063D01*
X160256256Y-87474795D01*
X160067898Y-87396774D01*
X159867939Y-87357000D01*
X159664061Y-87357000D01*
X159464102Y-87396774D01*
X159275744Y-87474795D01*
X159106226Y-87588063D01*
X158962063Y-87732226D01*
X158848795Y-87901744D01*
X158770774Y-88090102D01*
X158748000Y-88204596D01*
X158748000Y-85889325D01*
X158751676Y-85852000D01*
X158748000Y-85814675D01*
X158748000Y-85814667D01*
X158737003Y-85703014D01*
X158693546Y-85559753D01*
X158622974Y-85427724D01*
X158574051Y-85368110D01*
X164293524Y-85368110D01*
X164414845Y-85598000D01*
X165608000Y-85598000D01*
X165608000Y-84404186D01*
X165862000Y-84404186D01*
X165862000Y-85598000D01*
X167055155Y-85598000D01*
X167176476Y-85368110D01*
X167131825Y-85220901D01*
X167006641Y-84958080D01*
X166832588Y-84724731D01*
X166616355Y-84529822D01*
X166366252Y-84380843D01*
X166091891Y-84283519D01*
X165862000Y-84404186D01*
X165608000Y-84404186D01*
X165378109Y-84283519D01*
X165103748Y-84380843D01*
X164853645Y-84529822D01*
X164637412Y-84724731D01*
X164463359Y-84958080D01*
X164338175Y-85220901D01*
X164293524Y-85368110D01*
X158574051Y-85368110D01*
X158528001Y-85311999D01*
X158499002Y-85288201D01*
X157986000Y-84775199D01*
X157986000Y-82558178D01*
X158172632Y-82433475D01*
X158379475Y-82226632D01*
X158496000Y-82052240D01*
X158612525Y-82226632D01*
X158819368Y-82433475D01*
X159062589Y-82595990D01*
X159332842Y-82707932D01*
X159619740Y-82765000D01*
X159912260Y-82765000D01*
X160199158Y-82707932D01*
X160469411Y-82595990D01*
X160712632Y-82433475D01*
X160919475Y-82226632D01*
X161081990Y-81983411D01*
X161193932Y-81713158D01*
X161251000Y-81426260D01*
X161251000Y-81133740D01*
X161193932Y-80846842D01*
X161081990Y-80576589D01*
X160919475Y-80333368D01*
X160756979Y-80170872D01*
X164643000Y-80170872D01*
X164643000Y-80611128D01*
X164728890Y-81042925D01*
X164897369Y-81449669D01*
X165141962Y-81815729D01*
X165453271Y-82127038D01*
X165819331Y-82371631D01*
X166226075Y-82540110D01*
X166657872Y-82626000D01*
X167098128Y-82626000D01*
X167529925Y-82540110D01*
X167936669Y-82371631D01*
X168302729Y-82127038D01*
X168614038Y-81815729D01*
X168858631Y-81449669D01*
X169027110Y-81042925D01*
X169113000Y-80611128D01*
X169113000Y-80170872D01*
X169027110Y-79739075D01*
X168858631Y-79332331D01*
X168614038Y-78966271D01*
X168302729Y-78654962D01*
X167936669Y-78410369D01*
X167529925Y-78241890D01*
X167098128Y-78156000D01*
X166657872Y-78156000D01*
X166226075Y-78241890D01*
X165819331Y-78410369D01*
X165453271Y-78654962D01*
X165141962Y-78966271D01*
X164897369Y-79332331D01*
X164728890Y-79739075D01*
X164643000Y-80170872D01*
X160756979Y-80170872D01*
X160712632Y-80126525D01*
X160469411Y-79964010D01*
X160199158Y-79852068D01*
X159912260Y-79795000D01*
X159619740Y-79795000D01*
X159332842Y-79852068D01*
X159062589Y-79964010D01*
X158819368Y-80126525D01*
X158612525Y-80333368D01*
X158496000Y-80507760D01*
X158379475Y-80333368D01*
X158172632Y-80126525D01*
X157929411Y-79964010D01*
X157659158Y-79852068D01*
X157372260Y-79795000D01*
X157079740Y-79795000D01*
X156792842Y-79852068D01*
X156522589Y-79964010D01*
X156279368Y-80126525D01*
X156072525Y-80333368D01*
X155956000Y-80507760D01*
X155839475Y-80333368D01*
X155632632Y-80126525D01*
X155389411Y-79964010D01*
X155119158Y-79852068D01*
X154832260Y-79795000D01*
X154539740Y-79795000D01*
X154252842Y-79852068D01*
X153982589Y-79964010D01*
X153739368Y-80126525D01*
X153532525Y-80333368D01*
X153416000Y-80507760D01*
X153299475Y-80333368D01*
X153092632Y-80126525D01*
X152849411Y-79964010D01*
X152579158Y-79852068D01*
X152292260Y-79795000D01*
X151999740Y-79795000D01*
X151712842Y-79852068D01*
X151442589Y-79964010D01*
X151199368Y-80126525D01*
X150992525Y-80333368D01*
X150870805Y-80515534D01*
X150801178Y-80398645D01*
X150606269Y-80182412D01*
X150372920Y-80008359D01*
X150110099Y-79883175D01*
X149962890Y-79838524D01*
X149733000Y-79959845D01*
X149733000Y-81153000D01*
X149753000Y-81153000D01*
X149753000Y-81407000D01*
X149733000Y-81407000D01*
X149733000Y-82600155D01*
X149962890Y-82721476D01*
X150110099Y-82676825D01*
X150372920Y-82551641D01*
X150606269Y-82377588D01*
X150801178Y-82161355D01*
X150870805Y-82044466D01*
X150992525Y-82226632D01*
X151007001Y-82241108D01*
X151007000Y-83295024D01*
X150923614Y-83339595D01*
X150789038Y-83450038D01*
X150678595Y-83584614D01*
X150596528Y-83738150D01*
X150545992Y-83904746D01*
X150528928Y-84078000D01*
X150528928Y-84578000D01*
X150545992Y-84751254D01*
X150596528Y-84917850D01*
X150678595Y-85071386D01*
X150789038Y-85205962D01*
X150795594Y-85211342D01*
X150715815Y-85276815D01*
X150636463Y-85373506D01*
X150577498Y-85483820D01*
X150541188Y-85603518D01*
X150528928Y-85728000D01*
X150532000Y-85942250D01*
X150690750Y-86101000D01*
X151765000Y-86101000D01*
X151765000Y-86081000D01*
X152019000Y-86081000D01*
X152019000Y-86101000D01*
X152039000Y-86101000D01*
X152039000Y-86355000D01*
X152019000Y-86355000D01*
X152019000Y-86375000D01*
X151765000Y-86375000D01*
X151765000Y-86355000D01*
X150690750Y-86355000D01*
X150532000Y-86513750D01*
X150528928Y-86728000D01*
X150541188Y-86852482D01*
X150577498Y-86972180D01*
X150636463Y-87082494D01*
X150715815Y-87179185D01*
X150743936Y-87202263D01*
X150220000Y-87199928D01*
X150095518Y-87212188D01*
X149975820Y-87248498D01*
X149865506Y-87307463D01*
X149768815Y-87386815D01*
X149689463Y-87483506D01*
X149630498Y-87593820D01*
X149594188Y-87713518D01*
X149581928Y-87838000D01*
X149585000Y-87852250D01*
X149743750Y-88011000D01*
X151068000Y-88011000D01*
X151068000Y-87991000D01*
X151322000Y-87991000D01*
X151322000Y-88011000D01*
X152646250Y-88011000D01*
X152805000Y-87852250D01*
X152808072Y-87838000D01*
X152795812Y-87713518D01*
X152759502Y-87593820D01*
X152700537Y-87483506D01*
X152621185Y-87386815D01*
X152595728Y-87365923D01*
X152617000Y-87366072D01*
X152741482Y-87353812D01*
X152861180Y-87317502D01*
X152910000Y-87291407D01*
X152910000Y-88403644D01*
X152755939Y-88373000D01*
X152754250Y-88373000D01*
X152646250Y-88265000D01*
X151322000Y-88265000D01*
X151322000Y-88285000D01*
X151068000Y-88285000D01*
X151068000Y-88265000D01*
X149743750Y-88265000D01*
X149585000Y-88423750D01*
X149581928Y-88438000D01*
X149594188Y-88562482D01*
X149630498Y-88682180D01*
X149689463Y-88792494D01*
X149713730Y-88822064D01*
X149641916Y-88956418D01*
X149597071Y-89104255D01*
X149581928Y-89258000D01*
X149581928Y-89558000D01*
X149597071Y-89711745D01*
X149641916Y-89859582D01*
X149714742Y-89995829D01*
X149753454Y-90043000D01*
X149714742Y-90090171D01*
X149641916Y-90226418D01*
X149625928Y-90279126D01*
X148033000Y-88686199D01*
X148033000Y-85513030D01*
X148110137Y-85449724D01*
X148134315Y-85479185D01*
X148231006Y-85558537D01*
X148341320Y-85617502D01*
X148461018Y-85653812D01*
X148585500Y-85666072D01*
X148812250Y-85663000D01*
X148971000Y-85504250D01*
X148971000Y-84455000D01*
X149225000Y-84455000D01*
X149225000Y-85504250D01*
X149383750Y-85663000D01*
X149610500Y-85666072D01*
X149734982Y-85653812D01*
X149854680Y-85617502D01*
X149964994Y-85558537D01*
X150061685Y-85479185D01*
X150141037Y-85382494D01*
X150200002Y-85272180D01*
X150236312Y-85152482D01*
X150248572Y-85028000D01*
X150245500Y-84613750D01*
X150086750Y-84455000D01*
X149225000Y-84455000D01*
X148971000Y-84455000D01*
X148951000Y-84455000D01*
X148951000Y-84201000D01*
X148971000Y-84201000D01*
X148971000Y-83151750D01*
X149225000Y-83151750D01*
X149225000Y-84201000D01*
X150086750Y-84201000D01*
X150245500Y-84042250D01*
X150248572Y-83628000D01*
X150236312Y-83503518D01*
X150200002Y-83383820D01*
X150141037Y-83273506D01*
X150061685Y-83176815D01*
X149964994Y-83097463D01*
X149854680Y-83038498D01*
X149734982Y-83002188D01*
X149610500Y-82989928D01*
X149383750Y-82993000D01*
X149225000Y-83151750D01*
X148971000Y-83151750D01*
X148812250Y-82993000D01*
X148585500Y-82989928D01*
X148461018Y-83002188D01*
X148341320Y-83038498D01*
X148231006Y-83097463D01*
X148134315Y-83176815D01*
X148110137Y-83206276D01*
X148028887Y-83139595D01*
X147875351Y-83057528D01*
X147826000Y-83042558D01*
X147826000Y-82768072D01*
X147916000Y-82768072D01*
X148040482Y-82755812D01*
X148160180Y-82719502D01*
X148270494Y-82660537D01*
X148367185Y-82581185D01*
X148446537Y-82484494D01*
X148505502Y-82374180D01*
X148529966Y-82293534D01*
X148605731Y-82377588D01*
X148839080Y-82551641D01*
X149101901Y-82676825D01*
X149249110Y-82721476D01*
X149479000Y-82600155D01*
X149479000Y-81407000D01*
X149459000Y-81407000D01*
X149459000Y-81153000D01*
X149479000Y-81153000D01*
X149479000Y-79959845D01*
X149249110Y-79838524D01*
X149101901Y-79883175D01*
X148839080Y-80008359D01*
X148605731Y-80182412D01*
X148529966Y-80266466D01*
X148505502Y-80185820D01*
X148446537Y-80075506D01*
X148367185Y-79978815D01*
X148270494Y-79899463D01*
X148160180Y-79840498D01*
X148040482Y-79804188D01*
X147916000Y-79791928D01*
X146216000Y-79791928D01*
X146091518Y-79804188D01*
X145971820Y-79840498D01*
X145861506Y-79899463D01*
X145764815Y-79978815D01*
X145685463Y-80075506D01*
X145626498Y-80185820D01*
X145590188Y-80305518D01*
X145577928Y-80430000D01*
X145577928Y-82130000D01*
X145590188Y-82254482D01*
X145626498Y-82374180D01*
X145685463Y-82484494D01*
X145764815Y-82581185D01*
X145861506Y-82660537D01*
X145971820Y-82719502D01*
X146091518Y-82755812D01*
X146216000Y-82768072D01*
X146306001Y-82768072D01*
X146306001Y-83343299D01*
X146272095Y-83384613D01*
X146190028Y-83538149D01*
X146139492Y-83704745D01*
X146122428Y-83877999D01*
X146122428Y-84778001D01*
X146139492Y-84951255D01*
X146190028Y-85117851D01*
X146272095Y-85271387D01*
X146382538Y-85405962D01*
X146513001Y-85513030D01*
X146513000Y-88963677D01*
X146509324Y-89001000D01*
X146513000Y-89038322D01*
X146513000Y-89038332D01*
X146523997Y-89149985D01*
X146563747Y-89281026D01*
X146567454Y-89293246D01*
X146638026Y-89425276D01*
X146650111Y-89440001D01*
X146732999Y-89541001D01*
X146762003Y-89564804D01*
X149656201Y-92459003D01*
X149679999Y-92488001D01*
X149696350Y-92501420D01*
X149714742Y-92535829D01*
X149753454Y-92583000D01*
X149714742Y-92630171D01*
X149642641Y-92765062D01*
X145307500Y-88429922D01*
X145307500Y-88204445D01*
X145312962Y-88199962D01*
X145423405Y-88065387D01*
X145505472Y-87911851D01*
X145556008Y-87745255D01*
X145573072Y-87572001D01*
X145573072Y-86671999D01*
X145556008Y-86498745D01*
X145505472Y-86332149D01*
X145423405Y-86178613D01*
X145312962Y-86044038D01*
X145307500Y-86039555D01*
X145307500Y-85918445D01*
X145312962Y-85913962D01*
X145423405Y-85779387D01*
X145505472Y-85625851D01*
X145556008Y-85459255D01*
X145573072Y-85286001D01*
X145573072Y-84385999D01*
X145556008Y-84212745D01*
X145505472Y-84046149D01*
X145423405Y-83892613D01*
X145312962Y-83758038D01*
X145178387Y-83647595D01*
X145024851Y-83565528D01*
X144858255Y-83514992D01*
X144685001Y-83497928D01*
X144399000Y-83497928D01*
X144399000Y-77647000D01*
X169711000Y-77647000D01*
X169711001Y-116277000D01*
G37*
G04 #@! TD.AperFunction*
D23*
X149457470Y-95083049D02*
X149485183Y-95116817D01*
X149518951Y-95144530D01*
X149518953Y-95144532D01*
X149550194Y-95170171D01*
X149619941Y-95227411D01*
X149669879Y-95254103D01*
X149641916Y-95306418D01*
X149597071Y-95454255D01*
X149585650Y-95570210D01*
X149480462Y-95442038D01*
X149345887Y-95331595D01*
X149192351Y-95249528D01*
X149025755Y-95198992D01*
X148852501Y-95181928D01*
X148327499Y-95181928D01*
X148154245Y-95198992D01*
X147987649Y-95249528D01*
X147834113Y-95331595D01*
X147699538Y-95442038D01*
X147677500Y-95468891D01*
X147655462Y-95442038D01*
X147520887Y-95331595D01*
X147367351Y-95249528D01*
X147200755Y-95198992D01*
X147027501Y-95181928D01*
X146502499Y-95181928D01*
X146501799Y-95181997D01*
X145304858Y-93985057D01*
X145297812Y-93913518D01*
X145261502Y-93793820D01*
X145202537Y-93683506D01*
X145123185Y-93586815D01*
X145026494Y-93507463D01*
X144916180Y-93448498D01*
X144796482Y-93412188D01*
X144672000Y-93399928D01*
X144399000Y-93399928D01*
X144399000Y-91297000D01*
X144587000Y-91297000D01*
X144587000Y-92096250D01*
X144745750Y-92255000D01*
X144860000Y-92258072D01*
X144984482Y-92245812D01*
X145104180Y-92209502D01*
X145214494Y-92150537D01*
X145311185Y-92071185D01*
X145390537Y-91974494D01*
X145449502Y-91864180D01*
X145485812Y-91744482D01*
X145498072Y-91620000D01*
X145495000Y-91455750D01*
X145336250Y-91297000D01*
X144587000Y-91297000D01*
X144399000Y-91297000D01*
X144399000Y-91023000D01*
X144587000Y-91023000D01*
X144587000Y-91043000D01*
X145336250Y-91043000D01*
X145376836Y-91002414D01*
X149457470Y-95083049D01*
G04 #@! TA.AperFunction,Conductor*
D24*
G36*
X149457470Y-95083049D02*
G01*
X149485183Y-95116817D01*
X149518951Y-95144530D01*
X149518953Y-95144532D01*
X149550194Y-95170171D01*
X149619941Y-95227411D01*
X149669879Y-95254103D01*
X149641916Y-95306418D01*
X149597071Y-95454255D01*
X149585650Y-95570210D01*
X149480462Y-95442038D01*
X149345887Y-95331595D01*
X149192351Y-95249528D01*
X149025755Y-95198992D01*
X148852501Y-95181928D01*
X148327499Y-95181928D01*
X148154245Y-95198992D01*
X147987649Y-95249528D01*
X147834113Y-95331595D01*
X147699538Y-95442038D01*
X147677500Y-95468891D01*
X147655462Y-95442038D01*
X147520887Y-95331595D01*
X147367351Y-95249528D01*
X147200755Y-95198992D01*
X147027501Y-95181928D01*
X146502499Y-95181928D01*
X146501799Y-95181997D01*
X145304858Y-93985057D01*
X145297812Y-93913518D01*
X145261502Y-93793820D01*
X145202537Y-93683506D01*
X145123185Y-93586815D01*
X145026494Y-93507463D01*
X144916180Y-93448498D01*
X144796482Y-93412188D01*
X144672000Y-93399928D01*
X144399000Y-93399928D01*
X144399000Y-91297000D01*
X144587000Y-91297000D01*
X144587000Y-92096250D01*
X144745750Y-92255000D01*
X144860000Y-92258072D01*
X144984482Y-92245812D01*
X145104180Y-92209502D01*
X145214494Y-92150537D01*
X145311185Y-92071185D01*
X145390537Y-91974494D01*
X145449502Y-91864180D01*
X145485812Y-91744482D01*
X145498072Y-91620000D01*
X145495000Y-91455750D01*
X145336250Y-91297000D01*
X144587000Y-91297000D01*
X144399000Y-91297000D01*
X144399000Y-91023000D01*
X144587000Y-91023000D01*
X144587000Y-91043000D01*
X145336250Y-91043000D01*
X145376836Y-91002414D01*
X149457470Y-95083049D01*
G37*
G04 #@! TD.AperFunction*
D23*
X129687000Y-90165000D02*
X129667000Y-90165000D01*
X129667000Y-91014250D01*
X129825750Y-91173000D01*
X130265000Y-91176072D01*
X130389482Y-91163812D01*
X130509180Y-91127502D01*
X130556000Y-91102476D01*
X130602820Y-91127502D01*
X130722518Y-91163812D01*
X130847000Y-91176072D01*
X131286250Y-91173000D01*
X131445000Y-91014250D01*
X131445000Y-90165000D01*
X131425000Y-90165000D01*
X131425000Y-90043000D01*
X131719000Y-90043000D01*
X131719000Y-90165000D01*
X131699000Y-90165000D01*
X131699000Y-91014250D01*
X131857750Y-91173000D01*
X132297000Y-91176072D01*
X132421482Y-91163812D01*
X132541180Y-91127502D01*
X132651494Y-91068537D01*
X132748185Y-90989185D01*
X132827537Y-90892494D01*
X132886502Y-90782180D01*
X132922812Y-90662482D01*
X132935072Y-90538000D01*
X132932000Y-90323750D01*
X132773252Y-90165002D01*
X132932000Y-90165002D01*
X132932000Y-90067107D01*
X134406159Y-90407298D01*
X135001000Y-91596980D01*
X135001000Y-100023394D01*
X133514197Y-101510197D01*
X133498403Y-101529443D01*
X133486667Y-101551399D01*
X133479440Y-101575224D01*
X133477000Y-101600000D01*
X133477000Y-104521000D01*
X133206047Y-104521000D01*
X133203000Y-103663750D01*
X133044250Y-103505000D01*
X131445000Y-103505000D01*
X131445000Y-103525000D01*
X131191000Y-103525000D01*
X131191000Y-103505000D01*
X129591750Y-103505000D01*
X129433000Y-103663750D01*
X129429953Y-104521000D01*
X127926583Y-104521000D01*
X128017641Y-104398920D01*
X128142825Y-104136099D01*
X128187476Y-103988890D01*
X128066155Y-103759000D01*
X126873000Y-103759000D01*
X126873000Y-103779000D01*
X126619000Y-103779000D01*
X126619000Y-103759000D01*
X125425845Y-103759000D01*
X125304524Y-103988890D01*
X125349175Y-104136099D01*
X125474359Y-104398920D01*
X125565417Y-104521000D01*
X124079000Y-104521000D01*
X124079000Y-103275110D01*
X125304524Y-103275110D01*
X125425845Y-103505000D01*
X126619000Y-103505000D01*
X126619000Y-102311186D01*
X126873000Y-102311186D01*
X126873000Y-103505000D01*
X128066155Y-103505000D01*
X128187476Y-103275110D01*
X128142825Y-103127901D01*
X128017641Y-102865080D01*
X127843588Y-102631731D01*
X127627355Y-102436822D01*
X127377252Y-102287843D01*
X127208552Y-102228000D01*
X129429928Y-102228000D01*
X129433000Y-103092250D01*
X129591750Y-103251000D01*
X131191000Y-103251000D01*
X131191000Y-101751750D01*
X131445000Y-101751750D01*
X131445000Y-103251000D01*
X133044250Y-103251000D01*
X133203000Y-103092250D01*
X133206072Y-102228000D01*
X133193812Y-102103518D01*
X133157502Y-101983820D01*
X133098537Y-101873506D01*
X133019185Y-101776815D01*
X132922494Y-101697463D01*
X132812180Y-101638498D01*
X132692482Y-101602188D01*
X132568000Y-101589928D01*
X131603750Y-101593000D01*
X131445000Y-101751750D01*
X131191000Y-101751750D01*
X131032250Y-101593000D01*
X130068000Y-101589928D01*
X129943518Y-101602188D01*
X129823820Y-101638498D01*
X129713506Y-101697463D01*
X129616815Y-101776815D01*
X129537463Y-101873506D01*
X129478498Y-101983820D01*
X129442188Y-102103518D01*
X129429928Y-102228000D01*
X127208552Y-102228000D01*
X127102891Y-102190519D01*
X126873000Y-102311186D01*
X126619000Y-102311186D01*
X126389109Y-102190519D01*
X126114748Y-102287843D01*
X125864645Y-102436822D01*
X125648412Y-102631731D01*
X125474359Y-102865080D01*
X125349175Y-103127901D01*
X125304524Y-103275110D01*
X124079000Y-103275110D01*
X124079000Y-96646000D01*
X130249928Y-96646000D01*
X130262188Y-96770482D01*
X130298498Y-96890180D01*
X130357463Y-97000494D01*
X130436815Y-97097185D01*
X130533506Y-97176537D01*
X130643820Y-97235502D01*
X130763518Y-97271812D01*
X130888000Y-97284072D01*
X131852250Y-97281000D01*
X132011000Y-97122250D01*
X132011000Y-95123000D01*
X132265000Y-95123000D01*
X132265000Y-97122250D01*
X132423750Y-97281000D01*
X133388000Y-97284072D01*
X133512482Y-97271812D01*
X133632180Y-97235502D01*
X133742494Y-97176537D01*
X133839185Y-97097185D01*
X133918537Y-97000494D01*
X133977502Y-96890180D01*
X134013812Y-96770482D01*
X134026072Y-96646000D01*
X134023000Y-95281750D01*
X133864250Y-95123000D01*
X132265000Y-95123000D01*
X132011000Y-95123000D01*
X130411750Y-95123000D01*
X130253000Y-95281750D01*
X130249928Y-96646000D01*
X124079000Y-96646000D01*
X124079000Y-93346000D01*
X130249928Y-93346000D01*
X130253000Y-94710250D01*
X130411750Y-94869000D01*
X132011000Y-94869000D01*
X132011000Y-92869750D01*
X132265000Y-92869750D01*
X132265000Y-94869000D01*
X133864250Y-94869000D01*
X134023000Y-94710250D01*
X134026072Y-93346000D01*
X134013812Y-93221518D01*
X133977502Y-93101820D01*
X133918537Y-92991506D01*
X133839185Y-92894815D01*
X133742494Y-92815463D01*
X133632180Y-92756498D01*
X133512482Y-92720188D01*
X133388000Y-92707928D01*
X132423750Y-92711000D01*
X132265000Y-92869750D01*
X132011000Y-92869750D01*
X131852250Y-92711000D01*
X130888000Y-92707928D01*
X130763518Y-92720188D01*
X130643820Y-92756498D01*
X130533506Y-92815463D01*
X130436815Y-92894815D01*
X130357463Y-92991506D01*
X130298498Y-93101820D01*
X130262188Y-93221518D01*
X130249928Y-93346000D01*
X124079000Y-93346000D01*
X124079000Y-91542890D01*
X124542524Y-91542890D01*
X124587175Y-91690099D01*
X124712359Y-91952920D01*
X124886412Y-92186269D01*
X125102645Y-92381178D01*
X125352748Y-92530157D01*
X125627109Y-92627481D01*
X125857000Y-92506814D01*
X125857000Y-91313000D01*
X126111000Y-91313000D01*
X126111000Y-92506814D01*
X126340891Y-92627481D01*
X126615252Y-92530157D01*
X126865355Y-92381178D01*
X127081588Y-92186269D01*
X127255641Y-91952920D01*
X127380825Y-91690099D01*
X127425476Y-91542890D01*
X127304155Y-91313000D01*
X126111000Y-91313000D01*
X125857000Y-91313000D01*
X124663845Y-91313000D01*
X124542524Y-91542890D01*
X124079000Y-91542890D01*
X124079000Y-90551000D01*
X124649524Y-90551000D01*
X124587175Y-90681901D01*
X124542524Y-90829110D01*
X124663845Y-91059000D01*
X125857000Y-91059000D01*
X125857000Y-91039000D01*
X126111000Y-91039000D01*
X126111000Y-91059000D01*
X127304155Y-91059000D01*
X127425476Y-90829110D01*
X127380825Y-90681901D01*
X127318476Y-90551000D01*
X128178208Y-90551000D01*
X128189188Y-90662482D01*
X128225498Y-90782180D01*
X128284463Y-90892494D01*
X128363815Y-90989185D01*
X128460506Y-91068537D01*
X128570820Y-91127502D01*
X128690518Y-91163812D01*
X128815000Y-91176072D01*
X129254250Y-91173000D01*
X129413000Y-91014250D01*
X129413000Y-90165000D01*
X129393000Y-90165000D01*
X129393000Y-90043000D01*
X129687000Y-90043000D01*
X129687000Y-90165000D01*
G04 #@! TA.AperFunction,Conductor*
D24*
G36*
X129687000Y-90165000D02*
G01*
X129667000Y-90165000D01*
X129667000Y-91014250D01*
X129825750Y-91173000D01*
X130265000Y-91176072D01*
X130389482Y-91163812D01*
X130509180Y-91127502D01*
X130556000Y-91102476D01*
X130602820Y-91127502D01*
X130722518Y-91163812D01*
X130847000Y-91176072D01*
X131286250Y-91173000D01*
X131445000Y-91014250D01*
X131445000Y-90165000D01*
X131425000Y-90165000D01*
X131425000Y-90043000D01*
X131719000Y-90043000D01*
X131719000Y-90165000D01*
X131699000Y-90165000D01*
X131699000Y-91014250D01*
X131857750Y-91173000D01*
X132297000Y-91176072D01*
X132421482Y-91163812D01*
X132541180Y-91127502D01*
X132651494Y-91068537D01*
X132748185Y-90989185D01*
X132827537Y-90892494D01*
X132886502Y-90782180D01*
X132922812Y-90662482D01*
X132935072Y-90538000D01*
X132932000Y-90323750D01*
X132773252Y-90165002D01*
X132932000Y-90165002D01*
X132932000Y-90067107D01*
X134406159Y-90407298D01*
X135001000Y-91596980D01*
X135001000Y-100023394D01*
X133514197Y-101510197D01*
X133498403Y-101529443D01*
X133486667Y-101551399D01*
X133479440Y-101575224D01*
X133477000Y-101600000D01*
X133477000Y-104521000D01*
X133206047Y-104521000D01*
X133203000Y-103663750D01*
X133044250Y-103505000D01*
X131445000Y-103505000D01*
X131445000Y-103525000D01*
X131191000Y-103525000D01*
X131191000Y-103505000D01*
X129591750Y-103505000D01*
X129433000Y-103663750D01*
X129429953Y-104521000D01*
X127926583Y-104521000D01*
X128017641Y-104398920D01*
X128142825Y-104136099D01*
X128187476Y-103988890D01*
X128066155Y-103759000D01*
X126873000Y-103759000D01*
X126873000Y-103779000D01*
X126619000Y-103779000D01*
X126619000Y-103759000D01*
X125425845Y-103759000D01*
X125304524Y-103988890D01*
X125349175Y-104136099D01*
X125474359Y-104398920D01*
X125565417Y-104521000D01*
X124079000Y-104521000D01*
X124079000Y-103275110D01*
X125304524Y-103275110D01*
X125425845Y-103505000D01*
X126619000Y-103505000D01*
X126619000Y-102311186D01*
X126873000Y-102311186D01*
X126873000Y-103505000D01*
X128066155Y-103505000D01*
X128187476Y-103275110D01*
X128142825Y-103127901D01*
X128017641Y-102865080D01*
X127843588Y-102631731D01*
X127627355Y-102436822D01*
X127377252Y-102287843D01*
X127208552Y-102228000D01*
X129429928Y-102228000D01*
X129433000Y-103092250D01*
X129591750Y-103251000D01*
X131191000Y-103251000D01*
X131191000Y-101751750D01*
X131445000Y-101751750D01*
X131445000Y-103251000D01*
X133044250Y-103251000D01*
X133203000Y-103092250D01*
X133206072Y-102228000D01*
X133193812Y-102103518D01*
X133157502Y-101983820D01*
X133098537Y-101873506D01*
X133019185Y-101776815D01*
X132922494Y-101697463D01*
X132812180Y-101638498D01*
X132692482Y-101602188D01*
X132568000Y-101589928D01*
X131603750Y-101593000D01*
X131445000Y-101751750D01*
X131191000Y-101751750D01*
X131032250Y-101593000D01*
X130068000Y-101589928D01*
X129943518Y-101602188D01*
X129823820Y-101638498D01*
X129713506Y-101697463D01*
X129616815Y-101776815D01*
X129537463Y-101873506D01*
X129478498Y-101983820D01*
X129442188Y-102103518D01*
X129429928Y-102228000D01*
X127208552Y-102228000D01*
X127102891Y-102190519D01*
X126873000Y-102311186D01*
X126619000Y-102311186D01*
X126389109Y-102190519D01*
X126114748Y-102287843D01*
X125864645Y-102436822D01*
X125648412Y-102631731D01*
X125474359Y-102865080D01*
X125349175Y-103127901D01*
X125304524Y-103275110D01*
X124079000Y-103275110D01*
X124079000Y-96646000D01*
X130249928Y-96646000D01*
X130262188Y-96770482D01*
X130298498Y-96890180D01*
X130357463Y-97000494D01*
X130436815Y-97097185D01*
X130533506Y-97176537D01*
X130643820Y-97235502D01*
X130763518Y-97271812D01*
X130888000Y-97284072D01*
X131852250Y-97281000D01*
X132011000Y-97122250D01*
X132011000Y-95123000D01*
X132265000Y-95123000D01*
X132265000Y-97122250D01*
X132423750Y-97281000D01*
X133388000Y-97284072D01*
X133512482Y-97271812D01*
X133632180Y-97235502D01*
X133742494Y-97176537D01*
X133839185Y-97097185D01*
X133918537Y-97000494D01*
X133977502Y-96890180D01*
X134013812Y-96770482D01*
X134026072Y-96646000D01*
X134023000Y-95281750D01*
X133864250Y-95123000D01*
X132265000Y-95123000D01*
X132011000Y-95123000D01*
X130411750Y-95123000D01*
X130253000Y-95281750D01*
X130249928Y-96646000D01*
X124079000Y-96646000D01*
X124079000Y-93346000D01*
X130249928Y-93346000D01*
X130253000Y-94710250D01*
X130411750Y-94869000D01*
X132011000Y-94869000D01*
X132011000Y-92869750D01*
X132265000Y-92869750D01*
X132265000Y-94869000D01*
X133864250Y-94869000D01*
X134023000Y-94710250D01*
X134026072Y-93346000D01*
X134013812Y-93221518D01*
X133977502Y-93101820D01*
X133918537Y-92991506D01*
X133839185Y-92894815D01*
X133742494Y-92815463D01*
X133632180Y-92756498D01*
X133512482Y-92720188D01*
X133388000Y-92707928D01*
X132423750Y-92711000D01*
X132265000Y-92869750D01*
X132011000Y-92869750D01*
X131852250Y-92711000D01*
X130888000Y-92707928D01*
X130763518Y-92720188D01*
X130643820Y-92756498D01*
X130533506Y-92815463D01*
X130436815Y-92894815D01*
X130357463Y-92991506D01*
X130298498Y-93101820D01*
X130262188Y-93221518D01*
X130249928Y-93346000D01*
X124079000Y-93346000D01*
X124079000Y-91542890D01*
X124542524Y-91542890D01*
X124587175Y-91690099D01*
X124712359Y-91952920D01*
X124886412Y-92186269D01*
X125102645Y-92381178D01*
X125352748Y-92530157D01*
X125627109Y-92627481D01*
X125857000Y-92506814D01*
X125857000Y-91313000D01*
X126111000Y-91313000D01*
X126111000Y-92506814D01*
X126340891Y-92627481D01*
X126615252Y-92530157D01*
X126865355Y-92381178D01*
X127081588Y-92186269D01*
X127255641Y-91952920D01*
X127380825Y-91690099D01*
X127425476Y-91542890D01*
X127304155Y-91313000D01*
X126111000Y-91313000D01*
X125857000Y-91313000D01*
X124663845Y-91313000D01*
X124542524Y-91542890D01*
X124079000Y-91542890D01*
X124079000Y-90551000D01*
X124649524Y-90551000D01*
X124587175Y-90681901D01*
X124542524Y-90829110D01*
X124663845Y-91059000D01*
X125857000Y-91059000D01*
X125857000Y-91039000D01*
X126111000Y-91039000D01*
X126111000Y-91059000D01*
X127304155Y-91059000D01*
X127425476Y-90829110D01*
X127380825Y-90681901D01*
X127318476Y-90551000D01*
X128178208Y-90551000D01*
X128189188Y-90662482D01*
X128225498Y-90782180D01*
X128284463Y-90892494D01*
X128363815Y-90989185D01*
X128460506Y-91068537D01*
X128570820Y-91127502D01*
X128690518Y-91163812D01*
X128815000Y-91176072D01*
X129254250Y-91173000D01*
X129413000Y-91014250D01*
X129413000Y-90165000D01*
X129393000Y-90165000D01*
X129393000Y-90043000D01*
X129687000Y-90043000D01*
X129687000Y-90165000D01*
G37*
G04 #@! TD.AperFunction*
D23*
X138303000Y-84009726D02*
X138249498Y-84109820D01*
X138213188Y-84229518D01*
X138200928Y-84354000D01*
X138200928Y-85054000D01*
X138213188Y-85178482D01*
X138249498Y-85298180D01*
X138271317Y-85339000D01*
X138249498Y-85379820D01*
X138213188Y-85499518D01*
X138200928Y-85624000D01*
X138200928Y-86324000D01*
X138213188Y-86448482D01*
X138249498Y-86568180D01*
X138273990Y-86614000D01*
X138249498Y-86659820D01*
X138213188Y-86779518D01*
X138200928Y-86904000D01*
X138200928Y-87604000D01*
X138213188Y-87728482D01*
X138249498Y-87848180D01*
X138271317Y-87889000D01*
X138249498Y-87929820D01*
X138213188Y-88049518D01*
X138200928Y-88174000D01*
X138200928Y-88874000D01*
X138213188Y-88998482D01*
X138249498Y-89118180D01*
X138303000Y-89218274D01*
X138303000Y-90678000D01*
X138305440Y-90702776D01*
X138312667Y-90726601D01*
X138326656Y-90751817D01*
X139573000Y-92496699D01*
X139573000Y-92709887D01*
X139223750Y-92711000D01*
X139065000Y-92869750D01*
X139065000Y-94869000D01*
X139085000Y-94869000D01*
X139085000Y-95123000D01*
X139065000Y-95123000D01*
X139065000Y-97122250D01*
X139223750Y-97281000D01*
X139573000Y-97282113D01*
X139573000Y-99949000D01*
X136017000Y-99949000D01*
X136017000Y-96646000D01*
X137049928Y-96646000D01*
X137062188Y-96770482D01*
X137098498Y-96890180D01*
X137157463Y-97000494D01*
X137236815Y-97097185D01*
X137333506Y-97176537D01*
X137443820Y-97235502D01*
X137563518Y-97271812D01*
X137688000Y-97284072D01*
X138652250Y-97281000D01*
X138811000Y-97122250D01*
X138811000Y-95123000D01*
X137211750Y-95123000D01*
X137053000Y-95281750D01*
X137049928Y-96646000D01*
X136017000Y-96646000D01*
X136017000Y-93346000D01*
X137049928Y-93346000D01*
X137053000Y-94710250D01*
X137211750Y-94869000D01*
X138811000Y-94869000D01*
X138811000Y-92869750D01*
X138652250Y-92711000D01*
X137688000Y-92707928D01*
X137563518Y-92720188D01*
X137443820Y-92756498D01*
X137333506Y-92815463D01*
X137236815Y-92894815D01*
X137157463Y-92991506D01*
X137098498Y-93101820D01*
X137062188Y-93221518D01*
X137049928Y-93346000D01*
X136017000Y-93346000D01*
X136017000Y-91313000D01*
X136014560Y-91288224D01*
X136007333Y-91264399D01*
X136001493Y-91252186D01*
X135239493Y-89855186D01*
X135225486Y-89834603D01*
X135207733Y-89817149D01*
X135186916Y-89803493D01*
X135164493Y-89794356D01*
X132761172Y-89073360D01*
X132827537Y-88992494D01*
X132886502Y-88882180D01*
X132922812Y-88762482D01*
X132935072Y-88638000D01*
X132932000Y-88423750D01*
X132773250Y-88265000D01*
X131699000Y-88265000D01*
X131699000Y-88285000D01*
X131445000Y-88285000D01*
X131445000Y-88265000D01*
X129667000Y-88265000D01*
X129667000Y-88285000D01*
X129413000Y-88285000D01*
X129413000Y-88265000D01*
X128338750Y-88265000D01*
X128180000Y-88423750D01*
X128176928Y-88638000D01*
X128189188Y-88762482D01*
X128192379Y-88773000D01*
X124079000Y-88773000D01*
X124079000Y-87796000D01*
X124495928Y-87796000D01*
X124499000Y-88360250D01*
X124657750Y-88519000D01*
X125857000Y-88519000D01*
X125857000Y-87319750D01*
X126111000Y-87319750D01*
X126111000Y-88519000D01*
X127310250Y-88519000D01*
X127469000Y-88360250D01*
X127472072Y-87796000D01*
X127459812Y-87671518D01*
X127449645Y-87638000D01*
X128176928Y-87638000D01*
X128180000Y-87852250D01*
X128338750Y-88011000D01*
X129413000Y-88011000D01*
X129413000Y-87161750D01*
X129667000Y-87161750D01*
X129667000Y-88011000D01*
X131445000Y-88011000D01*
X131445000Y-87161750D01*
X131699000Y-87161750D01*
X131699000Y-88011000D01*
X132773250Y-88011000D01*
X132932000Y-87852250D01*
X132935072Y-87638000D01*
X132922812Y-87513518D01*
X132886502Y-87393820D01*
X132827537Y-87283506D01*
X132748185Y-87186815D01*
X132651494Y-87107463D01*
X132541180Y-87048498D01*
X132421482Y-87012188D01*
X132297000Y-86999928D01*
X131857750Y-87003000D01*
X131699000Y-87161750D01*
X131445000Y-87161750D01*
X131286250Y-87003000D01*
X130847000Y-86999928D01*
X130722518Y-87012188D01*
X130602820Y-87048498D01*
X130556000Y-87073524D01*
X130509180Y-87048498D01*
X130389482Y-87012188D01*
X130265000Y-86999928D01*
X129825750Y-87003000D01*
X129667000Y-87161750D01*
X129413000Y-87161750D01*
X129254250Y-87003000D01*
X128815000Y-86999928D01*
X128690518Y-87012188D01*
X128570820Y-87048498D01*
X128460506Y-87107463D01*
X128363815Y-87186815D01*
X128284463Y-87283506D01*
X128225498Y-87393820D01*
X128189188Y-87513518D01*
X128176928Y-87638000D01*
X127449645Y-87638000D01*
X127423502Y-87551820D01*
X127364537Y-87441506D01*
X127285185Y-87344815D01*
X127188494Y-87265463D01*
X127078180Y-87206498D01*
X126958482Y-87170188D01*
X126834000Y-87157928D01*
X126269750Y-87161000D01*
X126111000Y-87319750D01*
X125857000Y-87319750D01*
X125698250Y-87161000D01*
X125134000Y-87157928D01*
X125009518Y-87170188D01*
X124889820Y-87206498D01*
X124779506Y-87265463D01*
X124682815Y-87344815D01*
X124603463Y-87441506D01*
X124544498Y-87551820D01*
X124508188Y-87671518D01*
X124495928Y-87796000D01*
X124079000Y-87796000D01*
X124079000Y-82677000D01*
X138303000Y-82677000D01*
X138303000Y-84009726D01*
G04 #@! TA.AperFunction,Conductor*
D24*
G36*
X138303000Y-84009726D02*
G01*
X138249498Y-84109820D01*
X138213188Y-84229518D01*
X138200928Y-84354000D01*
X138200928Y-85054000D01*
X138213188Y-85178482D01*
X138249498Y-85298180D01*
X138271317Y-85339000D01*
X138249498Y-85379820D01*
X138213188Y-85499518D01*
X138200928Y-85624000D01*
X138200928Y-86324000D01*
X138213188Y-86448482D01*
X138249498Y-86568180D01*
X138273990Y-86614000D01*
X138249498Y-86659820D01*
X138213188Y-86779518D01*
X138200928Y-86904000D01*
X138200928Y-87604000D01*
X138213188Y-87728482D01*
X138249498Y-87848180D01*
X138271317Y-87889000D01*
X138249498Y-87929820D01*
X138213188Y-88049518D01*
X138200928Y-88174000D01*
X138200928Y-88874000D01*
X138213188Y-88998482D01*
X138249498Y-89118180D01*
X138303000Y-89218274D01*
X138303000Y-90678000D01*
X138305440Y-90702776D01*
X138312667Y-90726601D01*
X138326656Y-90751817D01*
X139573000Y-92496699D01*
X139573000Y-92709887D01*
X139223750Y-92711000D01*
X139065000Y-92869750D01*
X139065000Y-94869000D01*
X139085000Y-94869000D01*
X139085000Y-95123000D01*
X139065000Y-95123000D01*
X139065000Y-97122250D01*
X139223750Y-97281000D01*
X139573000Y-97282113D01*
X139573000Y-99949000D01*
X136017000Y-99949000D01*
X136017000Y-96646000D01*
X137049928Y-96646000D01*
X137062188Y-96770482D01*
X137098498Y-96890180D01*
X137157463Y-97000494D01*
X137236815Y-97097185D01*
X137333506Y-97176537D01*
X137443820Y-97235502D01*
X137563518Y-97271812D01*
X137688000Y-97284072D01*
X138652250Y-97281000D01*
X138811000Y-97122250D01*
X138811000Y-95123000D01*
X137211750Y-95123000D01*
X137053000Y-95281750D01*
X137049928Y-96646000D01*
X136017000Y-96646000D01*
X136017000Y-93346000D01*
X137049928Y-93346000D01*
X137053000Y-94710250D01*
X137211750Y-94869000D01*
X138811000Y-94869000D01*
X138811000Y-92869750D01*
X138652250Y-92711000D01*
X137688000Y-92707928D01*
X137563518Y-92720188D01*
X137443820Y-92756498D01*
X137333506Y-92815463D01*
X137236815Y-92894815D01*
X137157463Y-92991506D01*
X137098498Y-93101820D01*
X137062188Y-93221518D01*
X137049928Y-93346000D01*
X136017000Y-93346000D01*
X136017000Y-91313000D01*
X136014560Y-91288224D01*
X136007333Y-91264399D01*
X136001493Y-91252186D01*
X135239493Y-89855186D01*
X135225486Y-89834603D01*
X135207733Y-89817149D01*
X135186916Y-89803493D01*
X135164493Y-89794356D01*
X132761172Y-89073360D01*
X132827537Y-88992494D01*
X132886502Y-88882180D01*
X132922812Y-88762482D01*
X132935072Y-88638000D01*
X132932000Y-88423750D01*
X132773250Y-88265000D01*
X131699000Y-88265000D01*
X131699000Y-88285000D01*
X131445000Y-88285000D01*
X131445000Y-88265000D01*
X129667000Y-88265000D01*
X129667000Y-88285000D01*
X129413000Y-88285000D01*
X129413000Y-88265000D01*
X128338750Y-88265000D01*
X128180000Y-88423750D01*
X128176928Y-88638000D01*
X128189188Y-88762482D01*
X128192379Y-88773000D01*
X124079000Y-88773000D01*
X124079000Y-87796000D01*
X124495928Y-87796000D01*
X124499000Y-88360250D01*
X124657750Y-88519000D01*
X125857000Y-88519000D01*
X125857000Y-87319750D01*
X126111000Y-87319750D01*
X126111000Y-88519000D01*
X127310250Y-88519000D01*
X127469000Y-88360250D01*
X127472072Y-87796000D01*
X127459812Y-87671518D01*
X127449645Y-87638000D01*
X128176928Y-87638000D01*
X128180000Y-87852250D01*
X128338750Y-88011000D01*
X129413000Y-88011000D01*
X129413000Y-87161750D01*
X129667000Y-87161750D01*
X129667000Y-88011000D01*
X131445000Y-88011000D01*
X131445000Y-87161750D01*
X131699000Y-87161750D01*
X131699000Y-88011000D01*
X132773250Y-88011000D01*
X132932000Y-87852250D01*
X132935072Y-87638000D01*
X132922812Y-87513518D01*
X132886502Y-87393820D01*
X132827537Y-87283506D01*
X132748185Y-87186815D01*
X132651494Y-87107463D01*
X132541180Y-87048498D01*
X132421482Y-87012188D01*
X132297000Y-86999928D01*
X131857750Y-87003000D01*
X131699000Y-87161750D01*
X131445000Y-87161750D01*
X131286250Y-87003000D01*
X130847000Y-86999928D01*
X130722518Y-87012188D01*
X130602820Y-87048498D01*
X130556000Y-87073524D01*
X130509180Y-87048498D01*
X130389482Y-87012188D01*
X130265000Y-86999928D01*
X129825750Y-87003000D01*
X129667000Y-87161750D01*
X129413000Y-87161750D01*
X129254250Y-87003000D01*
X128815000Y-86999928D01*
X128690518Y-87012188D01*
X128570820Y-87048498D01*
X128460506Y-87107463D01*
X128363815Y-87186815D01*
X128284463Y-87283506D01*
X128225498Y-87393820D01*
X128189188Y-87513518D01*
X128176928Y-87638000D01*
X127449645Y-87638000D01*
X127423502Y-87551820D01*
X127364537Y-87441506D01*
X127285185Y-87344815D01*
X127188494Y-87265463D01*
X127078180Y-87206498D01*
X126958482Y-87170188D01*
X126834000Y-87157928D01*
X126269750Y-87161000D01*
X126111000Y-87319750D01*
X125857000Y-87319750D01*
X125698250Y-87161000D01*
X125134000Y-87157928D01*
X125009518Y-87170188D01*
X124889820Y-87206498D01*
X124779506Y-87265463D01*
X124682815Y-87344815D01*
X124603463Y-87441506D01*
X124544498Y-87551820D01*
X124508188Y-87671518D01*
X124495928Y-87796000D01*
X124079000Y-87796000D01*
X124079000Y-82677000D01*
X138303000Y-82677000D01*
X138303000Y-84009726D01*
G37*
G04 #@! TD.AperFunction*
M02*
