%FSLAX45Y45*%
G04 Gerber Fmt 4.5, Leading zero omitted, Abs format (unit mm)*
G04 Created by KiCad (PCBNEW 5.1.9+dfsg1-1) date 2022-01-28 20:30:31*
%MOMM*%
%LPD*%
G01*
G04 APERTURE LIST*
%TA.AperFunction,Profile*%
%ADD10C,0.100000*%
%TD*%
%ADD11C,0.200000*%
%ADD12C,0.300000*%
G04 APERTURE END LIST*
D10*
X12039600Y-7696200D02*
X17039600Y-7696200D01*
X12039600Y-7696200D02*
X12039600Y-11696200D01*
X12039600Y-11696200D02*
X17039600Y-11696200D01*
X17039600Y-7696200D02*
X17039600Y-11696200D01*
D11*
X13924600Y-8971600D02*
X13964600Y-9011600D01*
X13964600Y-8971600D02*
X13924600Y-9011600D01*
X14051600Y-8590600D02*
X14091600Y-8630600D01*
X14091600Y-8590600D02*
X14051600Y-8630600D01*
X14051600Y-8717600D02*
X14091600Y-8757600D01*
X14091600Y-8717600D02*
X14051600Y-8757600D01*
X14051600Y-8844600D02*
X14091600Y-8884600D01*
X14091600Y-8844600D02*
X14051600Y-8884600D01*
X14051600Y-10114600D02*
X14091600Y-10154600D01*
X14091600Y-10114600D02*
X14051600Y-10154600D01*
X14102400Y-9708200D02*
X14142400Y-9748200D01*
X14142400Y-9708200D02*
X14102400Y-9748200D01*
X14229400Y-9251000D02*
X14269400Y-9291000D01*
X14269400Y-9251000D02*
X14229400Y-9291000D01*
X14546900Y-9200200D02*
X14586900Y-9240200D01*
X14586900Y-9200200D02*
X14546900Y-9240200D01*
X14864400Y-8704900D02*
X14904400Y-8744900D01*
X14904400Y-8704900D02*
X14864400Y-8744900D01*
X14966000Y-9682800D02*
X15006000Y-9722800D01*
X15006000Y-9682800D02*
X14966000Y-9722800D01*
X14966000Y-10952800D02*
X15006000Y-10992800D01*
X15006000Y-10952800D02*
X14966000Y-10992800D01*
X14991400Y-10292400D02*
X15031400Y-10332400D01*
X15031400Y-10292400D02*
X14991400Y-10332400D01*
X15169200Y-10165400D02*
X15209200Y-10205400D01*
X15209200Y-10165400D02*
X15169200Y-10205400D01*
X15213598Y-9301800D02*
X15253598Y-9341800D01*
X15253598Y-9301800D02*
X15213598Y-9341800D01*
X15245400Y-8920800D02*
X15285400Y-8960800D01*
X15285400Y-8920800D02*
X15245400Y-8960800D01*
X15448600Y-8793800D02*
X15488600Y-8833800D01*
X15488600Y-8793800D02*
X15448600Y-8833800D01*
X15448600Y-9428800D02*
X15488600Y-9468800D01*
X15488600Y-9428800D02*
X15448600Y-9468800D01*
X15448600Y-9555800D02*
X15488600Y-9595800D01*
X15488600Y-9555800D02*
X15448600Y-9595800D01*
X15626400Y-8692200D02*
X15666400Y-8732200D01*
X15666400Y-8692200D02*
X15626400Y-8732200D01*
X15956600Y-8819200D02*
X15996600Y-8859200D01*
X15996600Y-8819200D02*
X15956600Y-8859200D01*
X16210600Y-11029000D02*
X16250600Y-11069000D01*
X16250600Y-11029000D02*
X16210600Y-11069000D01*
X12648400Y-8864600D02*
G75*
G03*
X12648400Y-8864600I-50000J0D01*
G01*
X12648400Y-9118600D02*
G75*
G03*
X12648400Y-9118600I-50000J0D01*
G01*
X12724600Y-10363200D02*
G75*
G03*
X12724600Y-10363200I-50000J0D01*
G01*
X12724600Y-10617200D02*
G75*
G03*
X12724600Y-10617200I-50000J0D01*
G01*
X14045400Y-11328400D02*
G75*
G03*
X14045400Y-11328400I-50000J0D01*
G01*
X14299400Y-11328400D02*
G75*
G03*
X14299400Y-11328400I-50000J0D01*
G01*
X14756600Y-8128000D02*
G75*
G03*
X14756600Y-8128000I-50000J0D01*
G01*
X14782000Y-11328400D02*
G75*
G03*
X14782000Y-11328400I-50000J0D01*
G01*
X15010600Y-8128000D02*
G75*
G03*
X15010600Y-8128000I-50000J0D01*
G01*
X15036000Y-11328400D02*
G75*
G03*
X15036000Y-11328400I-50000J0D01*
G01*
X15264600Y-8128000D02*
G75*
G03*
X15264600Y-8128000I-50000J0D01*
G01*
X15518600Y-8128000D02*
G75*
G03*
X15518600Y-8128000I-50000J0D01*
G01*
X15772600Y-8128000D02*
G75*
G03*
X15772600Y-8128000I-50000J0D01*
G01*
X16026600Y-8128000D02*
G75*
G03*
X16026600Y-8128000I-50000J0D01*
G01*
X16623500Y-8572500D02*
G75*
G03*
X16623500Y-8572500I-50000J0D01*
G01*
X16623500Y-8826500D02*
G75*
G03*
X16623500Y-8826500I-50000J0D01*
G01*
X16623500Y-9080500D02*
G75*
G03*
X16623500Y-9080500I-50000J0D01*
G01*
X16623500Y-9537700D02*
G75*
G03*
X16623500Y-9537700I-50000J0D01*
G01*
X16623500Y-9791700D02*
G75*
G03*
X16623500Y-9791700I-50000J0D01*
G01*
X16623500Y-10045700D02*
G75*
G03*
X16623500Y-10045700I-50000J0D01*
G01*
X16623500Y-10299700D02*
G75*
G03*
X16623500Y-10299700I-50000J0D01*
G01*
X16623500Y-10553700D02*
G75*
G03*
X16623500Y-10553700I-50000J0D01*
G01*
X16623500Y-10807700D02*
G75*
G03*
X16623500Y-10807700I-50000J0D01*
G01*
D12*
X12321028Y-12166914D02*
X12321028Y-11866914D01*
X12392457Y-11866914D01*
X12435314Y-11881200D01*
X12463886Y-11909771D01*
X12478171Y-11938343D01*
X12492457Y-11995486D01*
X12492457Y-12038343D01*
X12478171Y-12095486D01*
X12463886Y-12124057D01*
X12435314Y-12152629D01*
X12392457Y-12166914D01*
X12321028Y-12166914D01*
X12621028Y-12166914D02*
X12621028Y-11966914D01*
X12621028Y-12024057D02*
X12635314Y-11995486D01*
X12649600Y-11981200D01*
X12678171Y-11966914D01*
X12706743Y-11966914D01*
X12806743Y-12166914D02*
X12806743Y-11966914D01*
X12806743Y-11866914D02*
X12792457Y-11881200D01*
X12806743Y-11895486D01*
X12821028Y-11881200D01*
X12806743Y-11866914D01*
X12806743Y-11895486D01*
X12992457Y-12166914D02*
X12963886Y-12152629D01*
X12949600Y-12124057D01*
X12949600Y-11866914D01*
X13149600Y-12166914D02*
X13121028Y-12152629D01*
X13106743Y-12124057D01*
X13106743Y-11866914D01*
X13492457Y-12166914D02*
X13492457Y-11866914D01*
X13592457Y-12081200D01*
X13692457Y-11866914D01*
X13692457Y-12166914D01*
X13963886Y-12166914D02*
X13963886Y-12009771D01*
X13949600Y-11981200D01*
X13921028Y-11966914D01*
X13863886Y-11966914D01*
X13835314Y-11981200D01*
X13963886Y-12152629D02*
X13935314Y-12166914D01*
X13863886Y-12166914D01*
X13835314Y-12152629D01*
X13821028Y-12124057D01*
X13821028Y-12095486D01*
X13835314Y-12066914D01*
X13863886Y-12052629D01*
X13935314Y-12052629D01*
X13963886Y-12038343D01*
X14106743Y-11966914D02*
X14106743Y-12266914D01*
X14106743Y-11981200D02*
X14135314Y-11966914D01*
X14192457Y-11966914D01*
X14221028Y-11981200D01*
X14235314Y-11995486D01*
X14249600Y-12024057D01*
X14249600Y-12109771D01*
X14235314Y-12138343D01*
X14221028Y-12152629D01*
X14192457Y-12166914D01*
X14135314Y-12166914D01*
X14106743Y-12152629D01*
X14378171Y-12138343D02*
X14392457Y-12152629D01*
X14378171Y-12166914D01*
X14363886Y-12152629D01*
X14378171Y-12138343D01*
X14378171Y-12166914D01*
X14378171Y-11981200D02*
X14392457Y-11995486D01*
X14378171Y-12009771D01*
X14363886Y-11995486D01*
X14378171Y-11981200D01*
X14378171Y-12009771D01*
X11994600Y-12641200D02*
X12034600Y-12681200D01*
X12034600Y-12641200D02*
X11994600Y-12681200D01*
X12378171Y-12496914D02*
X12406743Y-12496914D01*
X12435314Y-12511200D01*
X12449600Y-12525486D01*
X12463886Y-12554057D01*
X12478171Y-12611200D01*
X12478171Y-12682629D01*
X12463886Y-12739771D01*
X12449600Y-12768343D01*
X12435314Y-12782629D01*
X12406743Y-12796914D01*
X12378171Y-12796914D01*
X12349600Y-12782629D01*
X12335314Y-12768343D01*
X12321028Y-12739771D01*
X12306743Y-12682629D01*
X12306743Y-12611200D01*
X12321028Y-12554057D01*
X12335314Y-12525486D01*
X12349600Y-12511200D01*
X12378171Y-12496914D01*
X12606743Y-12768343D02*
X12621028Y-12782629D01*
X12606743Y-12796914D01*
X12592457Y-12782629D01*
X12606743Y-12768343D01*
X12606743Y-12796914D01*
X12878171Y-12596914D02*
X12878171Y-12796914D01*
X12806743Y-12482629D02*
X12735314Y-12696914D01*
X12921028Y-12696914D01*
X13092457Y-12496914D02*
X13121028Y-12496914D01*
X13149600Y-12511200D01*
X13163886Y-12525486D01*
X13178171Y-12554057D01*
X13192457Y-12611200D01*
X13192457Y-12682629D01*
X13178171Y-12739771D01*
X13163886Y-12768343D01*
X13149600Y-12782629D01*
X13121028Y-12796914D01*
X13092457Y-12796914D01*
X13063886Y-12782629D01*
X13049600Y-12768343D01*
X13035314Y-12739771D01*
X13021028Y-12682629D01*
X13021028Y-12611200D01*
X13035314Y-12554057D01*
X13049600Y-12525486D01*
X13063886Y-12511200D01*
X13092457Y-12496914D01*
X13321028Y-12796914D02*
X13321028Y-12596914D01*
X13321028Y-12625486D02*
X13335314Y-12611200D01*
X13363886Y-12596914D01*
X13406743Y-12596914D01*
X13435314Y-12611200D01*
X13449600Y-12639771D01*
X13449600Y-12796914D01*
X13449600Y-12639771D02*
X13463886Y-12611200D01*
X13492457Y-12596914D01*
X13535314Y-12596914D01*
X13563886Y-12611200D01*
X13578171Y-12639771D01*
X13578171Y-12796914D01*
X13721028Y-12796914D02*
X13721028Y-12596914D01*
X13721028Y-12625486D02*
X13735314Y-12611200D01*
X13763886Y-12596914D01*
X13806743Y-12596914D01*
X13835314Y-12611200D01*
X13849600Y-12639771D01*
X13849600Y-12796914D01*
X13849600Y-12639771D02*
X13863886Y-12611200D01*
X13892457Y-12596914D01*
X13935314Y-12596914D01*
X13963886Y-12611200D01*
X13978171Y-12639771D01*
X13978171Y-12796914D01*
X14563886Y-12482629D02*
X14306743Y-12868343D01*
X14949600Y-12496914D02*
X14978171Y-12496914D01*
X15006743Y-12511200D01*
X15021028Y-12525486D01*
X15035314Y-12554057D01*
X15049600Y-12611200D01*
X15049600Y-12682629D01*
X15035314Y-12739771D01*
X15021028Y-12768343D01*
X15006743Y-12782629D01*
X14978171Y-12796914D01*
X14949600Y-12796914D01*
X14921028Y-12782629D01*
X14906743Y-12768343D01*
X14892457Y-12739771D01*
X14878171Y-12682629D01*
X14878171Y-12611200D01*
X14892457Y-12554057D01*
X14906743Y-12525486D01*
X14921028Y-12511200D01*
X14949600Y-12496914D01*
X15178171Y-12768343D02*
X15192457Y-12782629D01*
X15178171Y-12796914D01*
X15163886Y-12782629D01*
X15178171Y-12768343D01*
X15178171Y-12796914D01*
X15378171Y-12496914D02*
X15406743Y-12496914D01*
X15435314Y-12511200D01*
X15449600Y-12525486D01*
X15463886Y-12554057D01*
X15478171Y-12611200D01*
X15478171Y-12682629D01*
X15463886Y-12739771D01*
X15449600Y-12768343D01*
X15435314Y-12782629D01*
X15406743Y-12796914D01*
X15378171Y-12796914D01*
X15349600Y-12782629D01*
X15335314Y-12768343D01*
X15321028Y-12739771D01*
X15306743Y-12682629D01*
X15306743Y-12611200D01*
X15321028Y-12554057D01*
X15335314Y-12525486D01*
X15349600Y-12511200D01*
X15378171Y-12496914D01*
X15763886Y-12796914D02*
X15592457Y-12796914D01*
X15678171Y-12796914D02*
X15678171Y-12496914D01*
X15649600Y-12539771D01*
X15621028Y-12568343D01*
X15592457Y-12582629D01*
X16021028Y-12496914D02*
X15963886Y-12496914D01*
X15935314Y-12511200D01*
X15921028Y-12525486D01*
X15892457Y-12568343D01*
X15878171Y-12625486D01*
X15878171Y-12739771D01*
X15892457Y-12768343D01*
X15906743Y-12782629D01*
X15935314Y-12796914D01*
X15992457Y-12796914D01*
X16021028Y-12782629D01*
X16035314Y-12768343D01*
X16049600Y-12739771D01*
X16049600Y-12668343D01*
X16035314Y-12639771D01*
X16021028Y-12625486D01*
X15992457Y-12611200D01*
X15935314Y-12611200D01*
X15906743Y-12625486D01*
X15892457Y-12639771D01*
X15878171Y-12668343D01*
X16163886Y-12496914D02*
X16163886Y-12554057D01*
X16278171Y-12496914D02*
X16278171Y-12554057D01*
X16721028Y-12911200D02*
X16706743Y-12896914D01*
X16678171Y-12854057D01*
X16663886Y-12825486D01*
X16649600Y-12782629D01*
X16635314Y-12711200D01*
X16635314Y-12654057D01*
X16649600Y-12582629D01*
X16663886Y-12539771D01*
X16678171Y-12511200D01*
X16706743Y-12468343D01*
X16721028Y-12454057D01*
X16821028Y-12525486D02*
X16835314Y-12511200D01*
X16863886Y-12496914D01*
X16935314Y-12496914D01*
X16963886Y-12511200D01*
X16978171Y-12525486D01*
X16992457Y-12554057D01*
X16992457Y-12582629D01*
X16978171Y-12625486D01*
X16806743Y-12796914D01*
X16992457Y-12796914D01*
X17278171Y-12796914D02*
X17106743Y-12796914D01*
X17192457Y-12796914D02*
X17192457Y-12496914D01*
X17163886Y-12539771D01*
X17135314Y-12568343D01*
X17106743Y-12582629D01*
X17635314Y-12796914D02*
X17635314Y-12496914D01*
X17763886Y-12796914D02*
X17763886Y-12639771D01*
X17749600Y-12611200D01*
X17721028Y-12596914D01*
X17678171Y-12596914D01*
X17649600Y-12611200D01*
X17635314Y-12625486D01*
X17949600Y-12796914D02*
X17921028Y-12782629D01*
X17906743Y-12768343D01*
X17892457Y-12739771D01*
X17892457Y-12654057D01*
X17906743Y-12625486D01*
X17921028Y-12611200D01*
X17949600Y-12596914D01*
X17992457Y-12596914D01*
X18021028Y-12611200D01*
X18035314Y-12625486D01*
X18049600Y-12654057D01*
X18049600Y-12739771D01*
X18035314Y-12768343D01*
X18021028Y-12782629D01*
X17992457Y-12796914D01*
X17949600Y-12796914D01*
X18221028Y-12796914D02*
X18192457Y-12782629D01*
X18178171Y-12754057D01*
X18178171Y-12496914D01*
X18449600Y-12782629D02*
X18421028Y-12796914D01*
X18363886Y-12796914D01*
X18335314Y-12782629D01*
X18321028Y-12754057D01*
X18321028Y-12639771D01*
X18335314Y-12611200D01*
X18363886Y-12596914D01*
X18421028Y-12596914D01*
X18449600Y-12611200D01*
X18463886Y-12639771D01*
X18463886Y-12668343D01*
X18321028Y-12696914D01*
X18578171Y-12782629D02*
X18606743Y-12796914D01*
X18663886Y-12796914D01*
X18692457Y-12782629D01*
X18706743Y-12754057D01*
X18706743Y-12739771D01*
X18692457Y-12711200D01*
X18663886Y-12696914D01*
X18621028Y-12696914D01*
X18592457Y-12682629D01*
X18578171Y-12654057D01*
X18578171Y-12639771D01*
X18592457Y-12611200D01*
X18621028Y-12596914D01*
X18663886Y-12596914D01*
X18692457Y-12611200D01*
X18806743Y-12911200D02*
X18821028Y-12896914D01*
X18849600Y-12854057D01*
X18863886Y-12825486D01*
X18878171Y-12782629D01*
X18892457Y-12711200D01*
X18892457Y-12654057D01*
X18878171Y-12582629D01*
X18863886Y-12539771D01*
X18849600Y-12511200D01*
X18821028Y-12468343D01*
X18806743Y-12454057D01*
X12034600Y-13057200D02*
G75*
G03*
X12034600Y-13057200I-50000J0D01*
G01*
X12478171Y-13192914D02*
X12306743Y-13192914D01*
X12392457Y-13192914D02*
X12392457Y-12892914D01*
X12363886Y-12935771D01*
X12335314Y-12964343D01*
X12306743Y-12978629D01*
X12606743Y-13164343D02*
X12621028Y-13178629D01*
X12606743Y-13192914D01*
X12592457Y-13178629D01*
X12606743Y-13164343D01*
X12606743Y-13192914D01*
X12806743Y-12892914D02*
X12835314Y-12892914D01*
X12863886Y-12907200D01*
X12878171Y-12921486D01*
X12892457Y-12950057D01*
X12906743Y-13007200D01*
X12906743Y-13078629D01*
X12892457Y-13135771D01*
X12878171Y-13164343D01*
X12863886Y-13178629D01*
X12835314Y-13192914D01*
X12806743Y-13192914D01*
X12778171Y-13178629D01*
X12763886Y-13164343D01*
X12749600Y-13135771D01*
X12735314Y-13078629D01*
X12735314Y-13007200D01*
X12749600Y-12950057D01*
X12763886Y-12921486D01*
X12778171Y-12907200D01*
X12806743Y-12892914D01*
X13092457Y-12892914D02*
X13121028Y-12892914D01*
X13149600Y-12907200D01*
X13163886Y-12921486D01*
X13178171Y-12950057D01*
X13192457Y-13007200D01*
X13192457Y-13078629D01*
X13178171Y-13135771D01*
X13163886Y-13164343D01*
X13149600Y-13178629D01*
X13121028Y-13192914D01*
X13092457Y-13192914D01*
X13063886Y-13178629D01*
X13049600Y-13164343D01*
X13035314Y-13135771D01*
X13021028Y-13078629D01*
X13021028Y-13007200D01*
X13035314Y-12950057D01*
X13049600Y-12921486D01*
X13063886Y-12907200D01*
X13092457Y-12892914D01*
X13321028Y-13192914D02*
X13321028Y-12992914D01*
X13321028Y-13021486D02*
X13335314Y-13007200D01*
X13363886Y-12992914D01*
X13406743Y-12992914D01*
X13435314Y-13007200D01*
X13449600Y-13035771D01*
X13449600Y-13192914D01*
X13449600Y-13035771D02*
X13463886Y-13007200D01*
X13492457Y-12992914D01*
X13535314Y-12992914D01*
X13563886Y-13007200D01*
X13578171Y-13035771D01*
X13578171Y-13192914D01*
X13721028Y-13192914D02*
X13721028Y-12992914D01*
X13721028Y-13021486D02*
X13735314Y-13007200D01*
X13763886Y-12992914D01*
X13806743Y-12992914D01*
X13835314Y-13007200D01*
X13849600Y-13035771D01*
X13849600Y-13192914D01*
X13849600Y-13035771D02*
X13863886Y-13007200D01*
X13892457Y-12992914D01*
X13935314Y-12992914D01*
X13963886Y-13007200D01*
X13978171Y-13035771D01*
X13978171Y-13192914D01*
X14563886Y-12878629D02*
X14306743Y-13264343D01*
X14949600Y-12892914D02*
X14978171Y-12892914D01*
X15006743Y-12907200D01*
X15021028Y-12921486D01*
X15035314Y-12950057D01*
X15049600Y-13007200D01*
X15049600Y-13078629D01*
X15035314Y-13135771D01*
X15021028Y-13164343D01*
X15006743Y-13178629D01*
X14978171Y-13192914D01*
X14949600Y-13192914D01*
X14921028Y-13178629D01*
X14906743Y-13164343D01*
X14892457Y-13135771D01*
X14878171Y-13078629D01*
X14878171Y-13007200D01*
X14892457Y-12950057D01*
X14906743Y-12921486D01*
X14921028Y-12907200D01*
X14949600Y-12892914D01*
X15178171Y-13164343D02*
X15192457Y-13178629D01*
X15178171Y-13192914D01*
X15163886Y-13178629D01*
X15178171Y-13164343D01*
X15178171Y-13192914D01*
X15378171Y-12892914D02*
X15406743Y-12892914D01*
X15435314Y-12907200D01*
X15449600Y-12921486D01*
X15463886Y-12950057D01*
X15478171Y-13007200D01*
X15478171Y-13078629D01*
X15463886Y-13135771D01*
X15449600Y-13164343D01*
X15435314Y-13178629D01*
X15406743Y-13192914D01*
X15378171Y-13192914D01*
X15349600Y-13178629D01*
X15335314Y-13164343D01*
X15321028Y-13135771D01*
X15306743Y-13078629D01*
X15306743Y-13007200D01*
X15321028Y-12950057D01*
X15335314Y-12921486D01*
X15349600Y-12907200D01*
X15378171Y-12892914D01*
X15578171Y-12892914D02*
X15763886Y-12892914D01*
X15663886Y-13007200D01*
X15706743Y-13007200D01*
X15735314Y-13021486D01*
X15749600Y-13035771D01*
X15763886Y-13064343D01*
X15763886Y-13135771D01*
X15749600Y-13164343D01*
X15735314Y-13178629D01*
X15706743Y-13192914D01*
X15621028Y-13192914D01*
X15592457Y-13178629D01*
X15578171Y-13164343D01*
X15906743Y-13192914D02*
X15963886Y-13192914D01*
X15992457Y-13178629D01*
X16006743Y-13164343D01*
X16035314Y-13121486D01*
X16049600Y-13064343D01*
X16049600Y-12950057D01*
X16035314Y-12921486D01*
X16021028Y-12907200D01*
X15992457Y-12892914D01*
X15935314Y-12892914D01*
X15906743Y-12907200D01*
X15892457Y-12921486D01*
X15878171Y-12950057D01*
X15878171Y-13021486D01*
X15892457Y-13050057D01*
X15906743Y-13064343D01*
X15935314Y-13078629D01*
X15992457Y-13078629D01*
X16021028Y-13064343D01*
X16035314Y-13050057D01*
X16049600Y-13021486D01*
X16163886Y-12892914D02*
X16163886Y-12950057D01*
X16278171Y-12892914D02*
X16278171Y-12950057D01*
X16721028Y-13307200D02*
X16706743Y-13292914D01*
X16678171Y-13250057D01*
X16663886Y-13221486D01*
X16649600Y-13178629D01*
X16635314Y-13107200D01*
X16635314Y-13050057D01*
X16649600Y-12978629D01*
X16663886Y-12935771D01*
X16678171Y-12907200D01*
X16706743Y-12864343D01*
X16721028Y-12850057D01*
X16821028Y-12921486D02*
X16835314Y-12907200D01*
X16863886Y-12892914D01*
X16935314Y-12892914D01*
X16963886Y-12907200D01*
X16978171Y-12921486D01*
X16992457Y-12950057D01*
X16992457Y-12978629D01*
X16978171Y-13021486D01*
X16806743Y-13192914D01*
X16992457Y-13192914D01*
X17092457Y-12892914D02*
X17278171Y-12892914D01*
X17178171Y-13007200D01*
X17221028Y-13007200D01*
X17249600Y-13021486D01*
X17263886Y-13035771D01*
X17278171Y-13064343D01*
X17278171Y-13135771D01*
X17263886Y-13164343D01*
X17249600Y-13178629D01*
X17221028Y-13192914D01*
X17135314Y-13192914D01*
X17106743Y-13178629D01*
X17092457Y-13164343D01*
X17635314Y-13192914D02*
X17635314Y-12892914D01*
X17763886Y-13192914D02*
X17763886Y-13035771D01*
X17749600Y-13007200D01*
X17721028Y-12992914D01*
X17678171Y-12992914D01*
X17649600Y-13007200D01*
X17635314Y-13021486D01*
X17949600Y-13192914D02*
X17921028Y-13178629D01*
X17906743Y-13164343D01*
X17892457Y-13135771D01*
X17892457Y-13050057D01*
X17906743Y-13021486D01*
X17921028Y-13007200D01*
X17949600Y-12992914D01*
X17992457Y-12992914D01*
X18021028Y-13007200D01*
X18035314Y-13021486D01*
X18049600Y-13050057D01*
X18049600Y-13135771D01*
X18035314Y-13164343D01*
X18021028Y-13178629D01*
X17992457Y-13192914D01*
X17949600Y-13192914D01*
X18221028Y-13192914D02*
X18192457Y-13178629D01*
X18178171Y-13150057D01*
X18178171Y-12892914D01*
X18449600Y-13178629D02*
X18421028Y-13192914D01*
X18363886Y-13192914D01*
X18335314Y-13178629D01*
X18321028Y-13150057D01*
X18321028Y-13035771D01*
X18335314Y-13007200D01*
X18363886Y-12992914D01*
X18421028Y-12992914D01*
X18449600Y-13007200D01*
X18463886Y-13035771D01*
X18463886Y-13064343D01*
X18321028Y-13092914D01*
X18578171Y-13178629D02*
X18606743Y-13192914D01*
X18663886Y-13192914D01*
X18692457Y-13178629D01*
X18706743Y-13150057D01*
X18706743Y-13135771D01*
X18692457Y-13107200D01*
X18663886Y-13092914D01*
X18621028Y-13092914D01*
X18592457Y-13078629D01*
X18578171Y-13050057D01*
X18578171Y-13035771D01*
X18592457Y-13007200D01*
X18621028Y-12992914D01*
X18663886Y-12992914D01*
X18692457Y-13007200D01*
X18806743Y-13307200D02*
X18821028Y-13292914D01*
X18849600Y-13250057D01*
X18863886Y-13221486D01*
X18878171Y-13178629D01*
X18892457Y-13107200D01*
X18892457Y-13050057D01*
X18878171Y-12978629D01*
X18863886Y-12935771D01*
X18849600Y-12907200D01*
X18821028Y-12864343D01*
X18806743Y-12850057D01*
M02*
