G04 #@! TF.GenerationSoftware,KiCad,Pcbnew,5.1.9+dfsg1-1*
G04 #@! TF.CreationDate,2022-01-28T20:29:42-05:00*
G04 #@! TF.ProjectId,simplePWM,73696d70-6c65-4505-974d-2e6b69636164,rev?*
G04 #@! TF.SameCoordinates,Original*
G04 #@! TF.FileFunction,Soldermask,Top*
G04 #@! TF.FilePolarity,Negative*
%FSLAX46Y46*%
G04 Gerber Fmt 4.6, Leading zero omitted, Abs format (unit mm)*
G04 Created by KiCad (PCBNEW 5.1.9+dfsg1-1) date 2022-01-28 20:29:42*
%MOMM*%
%LPD*%
G01*
G04 APERTURE LIST*
%ADD10C,3.200000*%
%ADD11O,1.700000X1.700000*%
%ADD12R,1.700000X1.700000*%
%ADD13R,0.800000X0.900000*%
%ADD14C,0.100000*%
%ADD15R,0.900000X1.300000*%
%ADD16R,0.900000X0.800000*%
%ADD17R,2.500000X2.300000*%
%ADD18R,2.500000X3.300000*%
G04 APERTURE END LIST*
D10*
X166878000Y-80391000D03*
X123825000Y-113538000D03*
D11*
X126746000Y-103632000D03*
D12*
X126746000Y-106172000D03*
D10*
X166878000Y-113538000D03*
X123825000Y-80391000D03*
D13*
X143256000Y-100568000D03*
X142306000Y-98568000D03*
X144206000Y-98568000D03*
X143510000Y-89170000D03*
X144460000Y-91170000D03*
X142560000Y-91170000D03*
D14*
G36*
X148993500Y-108472000D02*
G01*
X148993500Y-105347000D01*
X149410000Y-105347000D01*
X149410000Y-103872000D01*
X150310000Y-103872000D01*
X150310000Y-105347000D01*
X150726500Y-105347000D01*
X150726500Y-108472000D01*
X148993500Y-108472000D01*
G37*
D15*
X148360000Y-104522000D03*
X151360000Y-104522000D03*
G36*
G01*
X155170000Y-88288000D02*
X155170000Y-87988000D01*
G75*
G02*
X155320000Y-87838000I150000J0D01*
G01*
X156970000Y-87838000D01*
G75*
G02*
X157120000Y-87988000I0J-150000D01*
G01*
X157120000Y-88288000D01*
G75*
G02*
X156970000Y-88438000I-150000J0D01*
G01*
X155320000Y-88438000D01*
G75*
G02*
X155170000Y-88288000I0J150000D01*
G01*
G37*
G36*
G01*
X155170000Y-89558000D02*
X155170000Y-89258000D01*
G75*
G02*
X155320000Y-89108000I150000J0D01*
G01*
X156970000Y-89108000D01*
G75*
G02*
X157120000Y-89258000I0J-150000D01*
G01*
X157120000Y-89558000D01*
G75*
G02*
X156970000Y-89708000I-150000J0D01*
G01*
X155320000Y-89708000D01*
G75*
G02*
X155170000Y-89558000I0J150000D01*
G01*
G37*
G36*
G01*
X155170000Y-90828000D02*
X155170000Y-90528000D01*
G75*
G02*
X155320000Y-90378000I150000J0D01*
G01*
X156970000Y-90378000D01*
G75*
G02*
X157120000Y-90528000I0J-150000D01*
G01*
X157120000Y-90828000D01*
G75*
G02*
X156970000Y-90978000I-150000J0D01*
G01*
X155320000Y-90978000D01*
G75*
G02*
X155170000Y-90828000I0J150000D01*
G01*
G37*
G36*
G01*
X155170000Y-92098000D02*
X155170000Y-91798000D01*
G75*
G02*
X155320000Y-91648000I150000J0D01*
G01*
X156970000Y-91648000D01*
G75*
G02*
X157120000Y-91798000I0J-150000D01*
G01*
X157120000Y-92098000D01*
G75*
G02*
X156970000Y-92248000I-150000J0D01*
G01*
X155320000Y-92248000D01*
G75*
G02*
X155170000Y-92098000I0J150000D01*
G01*
G37*
G36*
G01*
X155170000Y-93368000D02*
X155170000Y-93068000D01*
G75*
G02*
X155320000Y-92918000I150000J0D01*
G01*
X156970000Y-92918000D01*
G75*
G02*
X157120000Y-93068000I0J-150000D01*
G01*
X157120000Y-93368000D01*
G75*
G02*
X156970000Y-93518000I-150000J0D01*
G01*
X155320000Y-93518000D01*
G75*
G02*
X155170000Y-93368000I0J150000D01*
G01*
G37*
G36*
G01*
X155170000Y-94638000D02*
X155170000Y-94338000D01*
G75*
G02*
X155320000Y-94188000I150000J0D01*
G01*
X156970000Y-94188000D01*
G75*
G02*
X157120000Y-94338000I0J-150000D01*
G01*
X157120000Y-94638000D01*
G75*
G02*
X156970000Y-94788000I-150000J0D01*
G01*
X155320000Y-94788000D01*
G75*
G02*
X155170000Y-94638000I0J150000D01*
G01*
G37*
G36*
G01*
X155170000Y-95908000D02*
X155170000Y-95608000D01*
G75*
G02*
X155320000Y-95458000I150000J0D01*
G01*
X156970000Y-95458000D01*
G75*
G02*
X157120000Y-95608000I0J-150000D01*
G01*
X157120000Y-95908000D01*
G75*
G02*
X156970000Y-96058000I-150000J0D01*
G01*
X155320000Y-96058000D01*
G75*
G02*
X155170000Y-95908000I0J150000D01*
G01*
G37*
G36*
G01*
X150220000Y-95908000D02*
X150220000Y-95608000D01*
G75*
G02*
X150370000Y-95458000I150000J0D01*
G01*
X152020000Y-95458000D01*
G75*
G02*
X152170000Y-95608000I0J-150000D01*
G01*
X152170000Y-95908000D01*
G75*
G02*
X152020000Y-96058000I-150000J0D01*
G01*
X150370000Y-96058000D01*
G75*
G02*
X150220000Y-95908000I0J150000D01*
G01*
G37*
G36*
G01*
X150220000Y-94638000D02*
X150220000Y-94338000D01*
G75*
G02*
X150370000Y-94188000I150000J0D01*
G01*
X152020000Y-94188000D01*
G75*
G02*
X152170000Y-94338000I0J-150000D01*
G01*
X152170000Y-94638000D01*
G75*
G02*
X152020000Y-94788000I-150000J0D01*
G01*
X150370000Y-94788000D01*
G75*
G02*
X150220000Y-94638000I0J150000D01*
G01*
G37*
G36*
G01*
X150220000Y-93368000D02*
X150220000Y-93068000D01*
G75*
G02*
X150370000Y-92918000I150000J0D01*
G01*
X152020000Y-92918000D01*
G75*
G02*
X152170000Y-93068000I0J-150000D01*
G01*
X152170000Y-93368000D01*
G75*
G02*
X152020000Y-93518000I-150000J0D01*
G01*
X150370000Y-93518000D01*
G75*
G02*
X150220000Y-93368000I0J150000D01*
G01*
G37*
G36*
G01*
X150220000Y-92098000D02*
X150220000Y-91798000D01*
G75*
G02*
X150370000Y-91648000I150000J0D01*
G01*
X152020000Y-91648000D01*
G75*
G02*
X152170000Y-91798000I0J-150000D01*
G01*
X152170000Y-92098000D01*
G75*
G02*
X152020000Y-92248000I-150000J0D01*
G01*
X150370000Y-92248000D01*
G75*
G02*
X150220000Y-92098000I0J150000D01*
G01*
G37*
G36*
G01*
X150220000Y-90828000D02*
X150220000Y-90528000D01*
G75*
G02*
X150370000Y-90378000I150000J0D01*
G01*
X152020000Y-90378000D01*
G75*
G02*
X152170000Y-90528000I0J-150000D01*
G01*
X152170000Y-90828000D01*
G75*
G02*
X152020000Y-90978000I-150000J0D01*
G01*
X150370000Y-90978000D01*
G75*
G02*
X150220000Y-90828000I0J150000D01*
G01*
G37*
G36*
G01*
X150220000Y-89558000D02*
X150220000Y-89258000D01*
G75*
G02*
X150370000Y-89108000I150000J0D01*
G01*
X152020000Y-89108000D01*
G75*
G02*
X152170000Y-89258000I0J-150000D01*
G01*
X152170000Y-89558000D01*
G75*
G02*
X152020000Y-89708000I-150000J0D01*
G01*
X150370000Y-89708000D01*
G75*
G02*
X150220000Y-89558000I0J150000D01*
G01*
G37*
G36*
G01*
X150220000Y-88288000D02*
X150220000Y-87988000D01*
G75*
G02*
X150370000Y-87838000I150000J0D01*
G01*
X152020000Y-87838000D01*
G75*
G02*
X152170000Y-87988000I0J-150000D01*
G01*
X152170000Y-88288000D01*
G75*
G02*
X152020000Y-88438000I-150000J0D01*
G01*
X150370000Y-88438000D01*
G75*
G02*
X150220000Y-88288000I0J150000D01*
G01*
G37*
G36*
G01*
X147277500Y-96069999D02*
X147277500Y-96970001D01*
G75*
G02*
X147027501Y-97220000I-249999J0D01*
G01*
X146502499Y-97220000D01*
G75*
G02*
X146252500Y-96970001I0J249999D01*
G01*
X146252500Y-96069999D01*
G75*
G02*
X146502499Y-95820000I249999J0D01*
G01*
X147027501Y-95820000D01*
G75*
G02*
X147277500Y-96069999I0J-249999D01*
G01*
G37*
G36*
G01*
X149102500Y-96069999D02*
X149102500Y-96970001D01*
G75*
G02*
X148852501Y-97220000I-249999J0D01*
G01*
X148327499Y-97220000D01*
G75*
G02*
X148077500Y-96970001I0J249999D01*
G01*
X148077500Y-96069999D01*
G75*
G02*
X148327499Y-95820000I249999J0D01*
G01*
X148852501Y-95820000D01*
G75*
G02*
X149102500Y-96069999I0J-249999D01*
G01*
G37*
G36*
G01*
X156356000Y-105098001D02*
X156356000Y-104197999D01*
G75*
G02*
X156605999Y-103948000I249999J0D01*
G01*
X157131001Y-103948000D01*
G75*
G02*
X157381000Y-104197999I0J-249999D01*
G01*
X157381000Y-105098001D01*
G75*
G02*
X157131001Y-105348000I-249999J0D01*
G01*
X156605999Y-105348000D01*
G75*
G02*
X156356000Y-105098001I0J249999D01*
G01*
G37*
G36*
G01*
X154531000Y-105098001D02*
X154531000Y-104197999D01*
G75*
G02*
X154780999Y-103948000I249999J0D01*
G01*
X155306001Y-103948000D01*
G75*
G02*
X155556000Y-104197999I0J-249999D01*
G01*
X155556000Y-105098001D01*
G75*
G02*
X155306001Y-105348000I-249999J0D01*
G01*
X154780999Y-105348000D01*
G75*
G02*
X154531000Y-105098001I0J249999D01*
G01*
G37*
G36*
G01*
X142182001Y-103636500D02*
X141281999Y-103636500D01*
G75*
G02*
X141032000Y-103386501I0J249999D01*
G01*
X141032000Y-102861499D01*
G75*
G02*
X141281999Y-102611500I249999J0D01*
G01*
X142182001Y-102611500D01*
G75*
G02*
X142432000Y-102861499I0J-249999D01*
G01*
X142432000Y-103386501D01*
G75*
G02*
X142182001Y-103636500I-249999J0D01*
G01*
G37*
G36*
G01*
X142182001Y-105461500D02*
X141281999Y-105461500D01*
G75*
G02*
X141032000Y-105211501I0J249999D01*
G01*
X141032000Y-104686499D01*
G75*
G02*
X141281999Y-104436500I249999J0D01*
G01*
X142182001Y-104436500D01*
G75*
G02*
X142432000Y-104686499I0J-249999D01*
G01*
X142432000Y-105211501D01*
G75*
G02*
X142182001Y-105461500I-249999J0D01*
G01*
G37*
G36*
G01*
X160978001Y-109328000D02*
X160077999Y-109328000D01*
G75*
G02*
X159828000Y-109078001I0J249999D01*
G01*
X159828000Y-108552999D01*
G75*
G02*
X160077999Y-108303000I249999J0D01*
G01*
X160978001Y-108303000D01*
G75*
G02*
X161228000Y-108552999I0J-249999D01*
G01*
X161228000Y-109078001D01*
G75*
G02*
X160978001Y-109328000I-249999J0D01*
G01*
G37*
G36*
G01*
X160978001Y-111153000D02*
X160077999Y-111153000D01*
G75*
G02*
X159828000Y-110903001I0J249999D01*
G01*
X159828000Y-110377999D01*
G75*
G02*
X160077999Y-110128000I249999J0D01*
G01*
X160978001Y-110128000D01*
G75*
G02*
X161228000Y-110377999I0J-249999D01*
G01*
X161228000Y-110903001D01*
G75*
G02*
X160978001Y-111153000I-249999J0D01*
G01*
G37*
G36*
G01*
X143910000Y-87572001D02*
X143910000Y-86671999D01*
G75*
G02*
X144159999Y-86422000I249999J0D01*
G01*
X144685001Y-86422000D01*
G75*
G02*
X144935000Y-86671999I0J-249999D01*
G01*
X144935000Y-87572001D01*
G75*
G02*
X144685001Y-87822000I-249999J0D01*
G01*
X144159999Y-87822000D01*
G75*
G02*
X143910000Y-87572001I0J249999D01*
G01*
G37*
G36*
G01*
X142085000Y-87572001D02*
X142085000Y-86671999D01*
G75*
G02*
X142334999Y-86422000I249999J0D01*
G01*
X142860001Y-86422000D01*
G75*
G02*
X143110000Y-86671999I0J-249999D01*
G01*
X143110000Y-87572001D01*
G75*
G02*
X142860001Y-87822000I-249999J0D01*
G01*
X142334999Y-87822000D01*
G75*
G02*
X142085000Y-87572001I0J249999D01*
G01*
G37*
G36*
G01*
X143110000Y-84385999D02*
X143110000Y-85286001D01*
G75*
G02*
X142860001Y-85536000I-249999J0D01*
G01*
X142334999Y-85536000D01*
G75*
G02*
X142085000Y-85286001I0J249999D01*
G01*
X142085000Y-84385999D01*
G75*
G02*
X142334999Y-84136000I249999J0D01*
G01*
X142860001Y-84136000D01*
G75*
G02*
X143110000Y-84385999I0J-249999D01*
G01*
G37*
G36*
G01*
X144935000Y-84385999D02*
X144935000Y-85286001D01*
G75*
G02*
X144685001Y-85536000I-249999J0D01*
G01*
X144159999Y-85536000D01*
G75*
G02*
X143910000Y-85286001I0J249999D01*
G01*
X143910000Y-84385999D01*
G75*
G02*
X144159999Y-84136000I249999J0D01*
G01*
X144685001Y-84136000D01*
G75*
G02*
X144935000Y-84385999I0J-249999D01*
G01*
G37*
G36*
G01*
X147785500Y-83877999D02*
X147785500Y-84778001D01*
G75*
G02*
X147535501Y-85028000I-249999J0D01*
G01*
X147010499Y-85028000D01*
G75*
G02*
X146760500Y-84778001I0J249999D01*
G01*
X146760500Y-83877999D01*
G75*
G02*
X147010499Y-83628000I249999J0D01*
G01*
X147535501Y-83628000D01*
G75*
G02*
X147785500Y-83877999I0J-249999D01*
G01*
G37*
G36*
G01*
X149610500Y-83877999D02*
X149610500Y-84778001D01*
G75*
G02*
X149360501Y-85028000I-249999J0D01*
G01*
X148835499Y-85028000D01*
G75*
G02*
X148585500Y-84778001I0J249999D01*
G01*
X148585500Y-83877999D01*
G75*
G02*
X148835499Y-83628000I249999J0D01*
G01*
X149360501Y-83628000D01*
G75*
G02*
X149610500Y-83877999I0J-249999D01*
G01*
G37*
D13*
X143322000Y-96488000D03*
X142372000Y-94488000D03*
X144272000Y-94488000D03*
D16*
X146288000Y-103886000D03*
X144288000Y-104836000D03*
X144288000Y-102936000D03*
D14*
G36*
X133155344Y-89032655D02*
G01*
X133142212Y-89028672D01*
X133130110Y-89022203D01*
X133119503Y-89013497D01*
X133110797Y-89002890D01*
X133104328Y-88990788D01*
X133100345Y-88977656D01*
X133099000Y-88964000D01*
X133099000Y-84264000D01*
X133100345Y-84250344D01*
X133104328Y-84237212D01*
X133110797Y-84225110D01*
X133119503Y-84214503D01*
X133130110Y-84205797D01*
X133142212Y-84199328D01*
X133155344Y-84195345D01*
X133169000Y-84194000D01*
X134719000Y-84194000D01*
X134732656Y-84195345D01*
X134745788Y-84199328D01*
X134757890Y-84205797D01*
X134768497Y-84214503D01*
X134777203Y-84225110D01*
X134783672Y-84237212D01*
X134787655Y-84250344D01*
X134789000Y-84264000D01*
X134789000Y-84444000D01*
X137794000Y-84444000D01*
X137807656Y-84445345D01*
X137820788Y-84449328D01*
X137832890Y-84455797D01*
X137843497Y-84464503D01*
X137852203Y-84475110D01*
X137858672Y-84487212D01*
X137862655Y-84500344D01*
X137864000Y-84514000D01*
X137864000Y-88714000D01*
X137862655Y-88727656D01*
X137858672Y-88740788D01*
X137852203Y-88752890D01*
X137843497Y-88763497D01*
X137832890Y-88772203D01*
X137820788Y-88778672D01*
X137807656Y-88782655D01*
X137794000Y-88784000D01*
X134789000Y-88784000D01*
X134789000Y-88964000D01*
X134787655Y-88977656D01*
X134783672Y-88990788D01*
X134777203Y-89002890D01*
X134768497Y-89013497D01*
X134757890Y-89022203D01*
X134745788Y-89028672D01*
X134732656Y-89032655D01*
X134719000Y-89034000D01*
X133169000Y-89034000D01*
X133155344Y-89032655D01*
G37*
G36*
G01*
X139989000Y-85124000D02*
X138839000Y-85124000D01*
G75*
G02*
X138769000Y-85054000I0J70000D01*
G01*
X138769000Y-84354000D01*
G75*
G02*
X138839000Y-84284000I70000J0D01*
G01*
X139989000Y-84284000D01*
G75*
G02*
X140059000Y-84354000I0J-70000D01*
G01*
X140059000Y-85054000D01*
G75*
G02*
X139989000Y-85124000I-70000J0D01*
G01*
G37*
G36*
G01*
X139989000Y-86394000D02*
X138839000Y-86394000D01*
G75*
G02*
X138769000Y-86324000I0J70000D01*
G01*
X138769000Y-85624000D01*
G75*
G02*
X138839000Y-85554000I70000J0D01*
G01*
X139989000Y-85554000D01*
G75*
G02*
X140059000Y-85624000I0J-70000D01*
G01*
X140059000Y-86324000D01*
G75*
G02*
X139989000Y-86394000I-70000J0D01*
G01*
G37*
G36*
G01*
X139989000Y-88944000D02*
X138839000Y-88944000D01*
G75*
G02*
X138769000Y-88874000I0J70000D01*
G01*
X138769000Y-88174000D01*
G75*
G02*
X138839000Y-88104000I70000J0D01*
G01*
X139989000Y-88104000D01*
G75*
G02*
X140059000Y-88174000I0J-70000D01*
G01*
X140059000Y-88874000D01*
G75*
G02*
X139989000Y-88944000I-70000J0D01*
G01*
G37*
G36*
G01*
X139989000Y-87674000D02*
X138839000Y-87674000D01*
G75*
G02*
X138769000Y-87604000I0J70000D01*
G01*
X138769000Y-86904000D01*
G75*
G02*
X138839000Y-86834000I70000J0D01*
G01*
X139989000Y-86834000D01*
G75*
G02*
X140059000Y-86904000I0J-70000D01*
G01*
X140059000Y-87604000D01*
G75*
G02*
X139989000Y-87674000I-70000J0D01*
G01*
G37*
D11*
X147320000Y-113284000D03*
D12*
X149860000Y-113284000D03*
D11*
X139954000Y-113284000D03*
D12*
X142494000Y-113284000D03*
D11*
X165735000Y-108077000D03*
X165735000Y-105537000D03*
X165735000Y-102997000D03*
X165735000Y-100457000D03*
X165735000Y-97917000D03*
D12*
X165735000Y-95377000D03*
D11*
X159766000Y-81280000D03*
X157226000Y-81280000D03*
X154686000Y-81280000D03*
X152146000Y-81280000D03*
X149606000Y-81280000D03*
D12*
X147066000Y-81280000D03*
D11*
X125984000Y-91186000D03*
D12*
X125984000Y-88646000D03*
D11*
X165735000Y-85725000D03*
X165735000Y-88265000D03*
D12*
X165735000Y-90805000D03*
G36*
G01*
X155396250Y-109278000D02*
X154483750Y-109278000D01*
G75*
G02*
X154240000Y-109034250I0J243750D01*
G01*
X154240000Y-108546750D01*
G75*
G02*
X154483750Y-108303000I243750J0D01*
G01*
X155396250Y-108303000D01*
G75*
G02*
X155640000Y-108546750I0J-243750D01*
G01*
X155640000Y-109034250D01*
G75*
G02*
X155396250Y-109278000I-243750J0D01*
G01*
G37*
G36*
G01*
X155396250Y-111153000D02*
X154483750Y-111153000D01*
G75*
G02*
X154240000Y-110909250I0J243750D01*
G01*
X154240000Y-110421750D01*
G75*
G02*
X154483750Y-110178000I243750J0D01*
G01*
X155396250Y-110178000D01*
G75*
G02*
X155640000Y-110421750I0J-243750D01*
G01*
X155640000Y-110909250D01*
G75*
G02*
X155396250Y-111153000I-243750J0D01*
G01*
G37*
D17*
X131318000Y-103378000D03*
X135618000Y-103378000D03*
G36*
G01*
X158444250Y-109199500D02*
X157531750Y-109199500D01*
G75*
G02*
X157288000Y-108955750I0J243750D01*
G01*
X157288000Y-108468250D01*
G75*
G02*
X157531750Y-108224500I243750J0D01*
G01*
X158444250Y-108224500D01*
G75*
G02*
X158688000Y-108468250I0J-243750D01*
G01*
X158688000Y-108955750D01*
G75*
G02*
X158444250Y-109199500I-243750J0D01*
G01*
G37*
G36*
G01*
X158444250Y-111074500D02*
X157531750Y-111074500D01*
G75*
G02*
X157288000Y-110830750I0J243750D01*
G01*
X157288000Y-110343250D01*
G75*
G02*
X157531750Y-110099500I243750J0D01*
G01*
X158444250Y-110099500D01*
G75*
G02*
X158688000Y-110343250I0J-243750D01*
G01*
X158688000Y-110830750D01*
G75*
G02*
X158444250Y-111074500I-243750J0D01*
G01*
G37*
D18*
X138938000Y-94996000D03*
X132138000Y-94996000D03*
G36*
G01*
X153982000Y-101379000D02*
X153982000Y-102329000D01*
G75*
G02*
X153732000Y-102579000I-250000J0D01*
G01*
X153232000Y-102579000D01*
G75*
G02*
X152982000Y-102329000I0J250000D01*
G01*
X152982000Y-101379000D01*
G75*
G02*
X153232000Y-101129000I250000J0D01*
G01*
X153732000Y-101129000D01*
G75*
G02*
X153982000Y-101379000I0J-250000D01*
G01*
G37*
G36*
G01*
X155882000Y-101379000D02*
X155882000Y-102329000D01*
G75*
G02*
X155632000Y-102579000I-250000J0D01*
G01*
X155132000Y-102579000D01*
G75*
G02*
X154882000Y-102329000I0J250000D01*
G01*
X154882000Y-101379000D01*
G75*
G02*
X155132000Y-101129000I250000J0D01*
G01*
X155632000Y-101129000D01*
G75*
G02*
X155882000Y-101379000I0J-250000D01*
G01*
G37*
G36*
G01*
X149868000Y-102329000D02*
X149868000Y-101379000D01*
G75*
G02*
X150118000Y-101129000I250000J0D01*
G01*
X150618000Y-101129000D01*
G75*
G02*
X150868000Y-101379000I0J-250000D01*
G01*
X150868000Y-102329000D01*
G75*
G02*
X150618000Y-102579000I-250000J0D01*
G01*
X150118000Y-102579000D01*
G75*
G02*
X149868000Y-102329000I0J250000D01*
G01*
G37*
G36*
G01*
X147968000Y-102329000D02*
X147968000Y-101379000D01*
G75*
G02*
X148218000Y-101129000I250000J0D01*
G01*
X148718000Y-101129000D01*
G75*
G02*
X148968000Y-101379000I0J-250000D01*
G01*
X148968000Y-102329000D01*
G75*
G02*
X148718000Y-102579000I-250000J0D01*
G01*
X148218000Y-102579000D01*
G75*
G02*
X147968000Y-102329000I0J250000D01*
G01*
G37*
G36*
G01*
X139921000Y-103624000D02*
X138971000Y-103624000D01*
G75*
G02*
X138721000Y-103374000I0J250000D01*
G01*
X138721000Y-102874000D01*
G75*
G02*
X138971000Y-102624000I250000J0D01*
G01*
X139921000Y-102624000D01*
G75*
G02*
X140171000Y-102874000I0J-250000D01*
G01*
X140171000Y-103374000D01*
G75*
G02*
X139921000Y-103624000I-250000J0D01*
G01*
G37*
G36*
G01*
X139921000Y-105524000D02*
X138971000Y-105524000D01*
G75*
G02*
X138721000Y-105274000I0J250000D01*
G01*
X138721000Y-104774000D01*
G75*
G02*
X138971000Y-104524000I250000J0D01*
G01*
X139921000Y-104524000D01*
G75*
G02*
X140171000Y-104774000I0J-250000D01*
G01*
X140171000Y-105274000D01*
G75*
G02*
X139921000Y-105524000I-250000J0D01*
G01*
G37*
G36*
G01*
X132047000Y-88638000D02*
X131097000Y-88638000D01*
G75*
G02*
X130847000Y-88388000I0J250000D01*
G01*
X130847000Y-87888000D01*
G75*
G02*
X131097000Y-87638000I250000J0D01*
G01*
X132047000Y-87638000D01*
G75*
G02*
X132297000Y-87888000I0J-250000D01*
G01*
X132297000Y-88388000D01*
G75*
G02*
X132047000Y-88638000I-250000J0D01*
G01*
G37*
G36*
G01*
X132047000Y-90538000D02*
X131097000Y-90538000D01*
G75*
G02*
X130847000Y-90288000I0J250000D01*
G01*
X130847000Y-89788000D01*
G75*
G02*
X131097000Y-89538000I250000J0D01*
G01*
X132047000Y-89538000D01*
G75*
G02*
X132297000Y-89788000I0J-250000D01*
G01*
X132297000Y-90288000D01*
G75*
G02*
X132047000Y-90538000I-250000J0D01*
G01*
G37*
G36*
G01*
X130015000Y-88638000D02*
X129065000Y-88638000D01*
G75*
G02*
X128815000Y-88388000I0J250000D01*
G01*
X128815000Y-87888000D01*
G75*
G02*
X129065000Y-87638000I250000J0D01*
G01*
X130015000Y-87638000D01*
G75*
G02*
X130265000Y-87888000I0J-250000D01*
G01*
X130265000Y-88388000D01*
G75*
G02*
X130015000Y-88638000I-250000J0D01*
G01*
G37*
G36*
G01*
X130015000Y-90538000D02*
X129065000Y-90538000D01*
G75*
G02*
X128815000Y-90288000I0J250000D01*
G01*
X128815000Y-89788000D01*
G75*
G02*
X129065000Y-89538000I250000J0D01*
G01*
X130015000Y-89538000D01*
G75*
G02*
X130265000Y-89788000I0J-250000D01*
G01*
X130265000Y-90288000D01*
G75*
G02*
X130015000Y-90538000I-250000J0D01*
G01*
G37*
G36*
G01*
X152367000Y-84828000D02*
X151417000Y-84828000D01*
G75*
G02*
X151167000Y-84578000I0J250000D01*
G01*
X151167000Y-84078000D01*
G75*
G02*
X151417000Y-83828000I250000J0D01*
G01*
X152367000Y-83828000D01*
G75*
G02*
X152617000Y-84078000I0J-250000D01*
G01*
X152617000Y-84578000D01*
G75*
G02*
X152367000Y-84828000I-250000J0D01*
G01*
G37*
G36*
G01*
X152367000Y-86728000D02*
X151417000Y-86728000D01*
G75*
G02*
X151167000Y-86478000I0J250000D01*
G01*
X151167000Y-85978000D01*
G75*
G02*
X151417000Y-85728000I250000J0D01*
G01*
X152367000Y-85728000D01*
G75*
G02*
X152617000Y-85978000I0J-250000D01*
G01*
X152617000Y-86478000D01*
G75*
G02*
X152367000Y-86728000I-250000J0D01*
G01*
G37*
G36*
G01*
X160241000Y-90040000D02*
X159291000Y-90040000D01*
G75*
G02*
X159041000Y-89790000I0J250000D01*
G01*
X159041000Y-89290000D01*
G75*
G02*
X159291000Y-89040000I250000J0D01*
G01*
X160241000Y-89040000D01*
G75*
G02*
X160491000Y-89290000I0J-250000D01*
G01*
X160491000Y-89790000D01*
G75*
G02*
X160241000Y-90040000I-250000J0D01*
G01*
G37*
G36*
G01*
X160241000Y-91940000D02*
X159291000Y-91940000D01*
G75*
G02*
X159041000Y-91690000I0J250000D01*
G01*
X159041000Y-91190000D01*
G75*
G02*
X159291000Y-90940000I250000J0D01*
G01*
X160241000Y-90940000D01*
G75*
G02*
X160491000Y-91190000I0J-250000D01*
G01*
X160491000Y-91690000D01*
G75*
G02*
X160241000Y-91940000I-250000J0D01*
G01*
G37*
M02*
