M48
; DRILL file {KiCad 5.1.9+dfsg1-1} date Fri Jan 28 20:30:24 2022
; FORMAT={-:-/ absolute / metric / decimal}
; #@! TF.CreationDate,2022-01-28T20:30:24-05:00
; #@! TF.GenerationSoftware,Kicad,Pcbnew,5.1.9+dfsg1-1
; #@! TF.FileFunction,Plated,1,2,PTH
FMAT,2
METRIC
T1C0.400
T2C1.000
%
G90
G05
T1
X139.446Y-89.916
X140.716Y-86.106
X140.716Y-87.376
X140.716Y-88.646
X140.716Y-101.346
X141.224Y-97.282
X142.494Y-92.71
X145.669Y-92.202
X148.844Y-87.249
X149.86Y-97.028
X149.86Y-109.728
X150.114Y-103.124
X151.892Y-101.854
X152.336Y-93.218
X152.654Y-89.408
X154.686Y-88.138
X154.686Y-94.488
X154.686Y-95.758
X156.464Y-87.122
X159.766Y-88.392
X162.306Y-110.49
T2
X125.984Y-88.646
X125.984Y-91.186
X126.746Y-103.632
X126.746Y-106.172
X139.954Y-113.284
X142.494Y-113.284
X147.066Y-81.28
X147.32Y-113.284
X149.606Y-81.28
X149.86Y-113.284
X152.146Y-81.28
X154.686Y-81.28
X157.226Y-81.28
X159.766Y-81.28
X165.735Y-85.725
X165.735Y-88.265
X165.735Y-90.805
X165.735Y-95.377
X165.735Y-97.917
X165.735Y-100.457
X165.735Y-102.997
X165.735Y-105.537
X165.735Y-108.077
T0
M30
